<svg id="Layer_1" data-name="Layer 1" xmlns="http://www.w3.org/2000/svg" viewBox="0 0 708 398"><defs><style>.cls-1{fill:#dd0031;}.cls-2{fill:#c3002f;}.cls-3{fill:#fff;}</style></defs><polygon class="cls-1" points="354 80.33 354 80.33 354 80.33 243.52 119.73 260.37 265.81 354 317.67 354 317.67 354 317.67 447.63 265.81 464.48 119.73 354 80.33"/><polygon class="cls-2" points="354 80.33 354 106.68 354 106.56 354 226.77 354 226.77 354 317.67 354 317.67 447.63 265.81 464.48 119.73 354 80.33"/><path class="cls-3" d="M354,106.56,284.94,261.42h25.75l13.88-34.65h58.62l13.89,34.65h25.75L354,106.56Zm20.17,98.85H333.83L354,156.87Z"/></svg>