<svg xmlns="http://www.w3.org/2000/svg" viewBox="0 0 500 500"><g id="freepik--background-complete--inject-33"><polygon points="149.47 96.74 191.34 96.41 170.52 73.47 149.47 96.74" style="fill:#f5f5f5"></polygon><polygon points="164.1 82.81 163.84 147.6 176.72 147.6 176.72 84.76 164.1 82.81" style="fill:#f5f5f5"></polygon><polygon points="310.41 301.6 341.88 301.36 326.23 284.11 310.41 301.6" style="fill:#e0e0e0"></polygon><polygon points="321.41 291.13 321.21 339.84 330.89 339.84 330.89 292.59 321.41 291.13" style="fill:#e0e0e0"></polygon><polygon points="91.22 293.32 39.23 230.25 40 229.62 91.22 291.74 243.97 103.5 340.25 195.71 446.39 66.53 447.17 67.17 340.34 197.18 244.06 104.98 91.22 293.32" style="fill:#ebebeb"></polygon><circle cx="39.61" cy="229.94" r="6.44" style="fill:#ebebeb"></circle><path d="M96.86,291.7a6.44,6.44,0,1,1-6.44-6.44A6.44,6.44,0,0,1,96.86,291.7Z" style="fill:#ebebeb"></path><path d="M345,195.62a6.44,6.44,0,1,1-6.44-6.44A6.45,6.45,0,0,1,345,195.62Z" style="fill:#ebebeb"></path><path d="M455.76,65.22a6.44,6.44,0,1,1-6.44-6.44A6.44,6.44,0,0,1,455.76,65.22Z" style="fill:#ebebeb"></path><path d="M205.7,328.1a16.92,16.92,0,0,0-18.22-.47,20,20,0,0,0-32.07-10,20.31,20.31,0,0,0-34.32,12.76c-8,.43-16.28,5.7-18,14.7H212.37A16.93,16.93,0,0,0,205.7,328.1Z" style="fill:#ebebeb"></path><path d="M388.54,405.52a11.49,11.49,0,0,0-12.38-.32,13.59,13.59,0,0,0-21.77-6.81,13.79,13.79,0,0,0-23.31,8.66c-5.44.29-11.06,3.88-12.2,10h74.19A11.49,11.49,0,0,0,388.54,405.52Z" style="fill:#ebebeb"></path><path d="M428.85,230.08a11.47,11.47,0,0,0-12.37-.32A13.6,13.6,0,0,0,394.7,223a13.79,13.79,0,0,0-23.31,8.66c-5.44.29-11.06,3.87-12.19,10h74.19A11.48,11.48,0,0,0,428.85,230.08Z" style="fill:#ebebeb"></path><path d="M130.77,181.19a11.51,11.51,0,0,0-12.37-.32,13.6,13.6,0,0,0-21.78-6.81,13.79,13.79,0,0,0-23.31,8.67c-5.44.29-11.06,3.87-12.19,10h74.19A11.5,11.5,0,0,0,130.77,181.19Z" style="fill:#ebebeb"></path><path d="M351.33,96.47A11.47,11.47,0,0,0,339,96.15a13.6,13.6,0,0,0-21.78-6.81A13.79,13.79,0,0,0,293.87,98c-5.44.29-11.06,3.87-12.2,10h74.19A11.49,11.49,0,0,0,351.33,96.47Z" style="fill:#ebebeb"></path></g><g id="freepik--Floor--inject-33"><path d="M462.84,482.57c0,.14-94.85.26-211.83.26s-211.85-.12-211.85-.26,94.83-.26,211.85-.26S462.84,482.42,462.84,482.57Z" style="fill:#263238"></path></g><g id="freepik--coins-2--inject-33"><rect x="397.58" y="412.73" width="60" height="12.1" style="fill:#39C486"></rect><path d="M401.44,412.93a66.28,66.28,0,0,1,0,11.73,66.28,66.28,0,0,1,0-11.73Z" style="fill:#263238"></path><path d="M407,412.93a66.28,66.28,0,0,1,0,11.73,66.28,66.28,0,0,1,0-11.73Z" style="fill:#263238"></path><path d="M412.5,412.93a66.28,66.28,0,0,1,0,11.73,66.28,66.28,0,0,1,0-11.73Z" style="fill:#263238"></path><path d="M418,412.93a66.28,66.28,0,0,1,0,11.73,66.28,66.28,0,0,1,0-11.73Z" style="fill:#263238"></path><path d="M423.44,412.93a66.28,66.28,0,0,1,0,11.73,66.28,66.28,0,0,1,0-11.73Z" style="fill:#263238"></path><path d="M428.91,412.93a66.28,66.28,0,0,1,0,11.73,66.28,66.28,0,0,1,0-11.73Z" style="fill:#263238"></path><path d="M434.37,412.93a63.84,63.84,0,0,1,0,11.73,66.28,66.28,0,0,1,0-11.73Z" style="fill:#263238"></path><path d="M439.84,412.93a66.28,66.28,0,0,1,0,11.73,66.28,66.28,0,0,1,0-11.73Z" style="fill:#263238"></path><path d="M445.31,412.93a66.28,66.28,0,0,1,0,11.73,66.28,66.28,0,0,1,0-11.73Z" style="fill:#263238"></path><path d="M450.78,412.93a66.28,66.28,0,0,1,0,11.73,66.28,66.28,0,0,1,0-11.73Z" style="fill:#263238"></path><path d="M456.25,412.93a66.28,66.28,0,0,1,0,11.73,66.28,66.28,0,0,1,0-11.73Z" style="fill:#263238"></path><g style="opacity:0.30000000000000004"><path d="M398.55,412.74a218.39,218.39,0,0,0,58.07,0Z"></path></g><path d="M457.6,412.77c0,.14-13.41.26-30,.26s-29.94-.12-29.94-.26,13.4-.26,29.94-.26S457.6,412.62,457.6,412.77Z" style="fill:#263238"></path><rect x="398.93" y="424.63" width="60" height="12.1" style="fill:#39C486"></rect><path d="M402.79,424.83a66.28,66.28,0,0,1,0,11.73,66.28,66.28,0,0,1,0-11.73Z" style="fill:#263238"></path><path d="M408.35,424.83a66.28,66.28,0,0,1,0,11.73,66.28,66.28,0,0,1,0-11.73Z" style="fill:#263238"></path><path d="M413.85,424.83a66.28,66.28,0,0,1,0,11.73,66.28,66.28,0,0,1,0-11.73Z" style="fill:#263238"></path><path d="M419.32,424.83a66.28,66.28,0,0,1,0,11.73,66.28,66.28,0,0,1,0-11.73Z" style="fill:#263238"></path><path d="M424.79,424.83a66.28,66.28,0,0,1,0,11.73,66.28,66.28,0,0,1,0-11.73Z" style="fill:#263238"></path><path d="M430.25,424.83a66.28,66.28,0,0,1,0,11.73,66.28,66.28,0,0,1,0-11.73Z" style="fill:#263238"></path><path d="M435.72,424.83a66.28,66.28,0,0,1,0,11.73,66.28,66.28,0,0,1,0-11.73Z" style="fill:#263238"></path><path d="M441.19,424.83a66.28,66.28,0,0,1,0,11.73,66.28,66.28,0,0,1,0-11.73Z" style="fill:#263238"></path><path d="M446.66,424.83a66.28,66.28,0,0,1,0,11.73,66.28,66.28,0,0,1,0-11.73Z" style="fill:#263238"></path><path d="M452.13,424.83a66.28,66.28,0,0,1,0,11.73,66.28,66.28,0,0,1,0-11.73Z" style="fill:#263238"></path><path d="M457.6,424.83a66.28,66.28,0,0,1,0,11.73,63.84,63.84,0,0,1,0-11.73Z" style="fill:#263238"></path><g style="opacity:0.30000000000000004"><path d="M399.9,424.64a218.81,218.81,0,0,0,58.07,0Z"></path></g><path d="M458.94,424.66c0,.15-13.41.26-29.94.26s-29.95-.11-29.95-.26,13.41-.26,29.95-.26S458.94,424.52,458.94,424.66Z" style="fill:#263238"></path><rect x="393.24" y="436.33" width="60" height="12.1" style="fill:#39C486"></rect><path d="M397.09,436.53a66.28,66.28,0,0,1,0,11.73,66.28,66.28,0,0,1,0-11.73Z" style="fill:#263238"></path><path d="M402.66,436.53a66.28,66.28,0,0,1,0,11.73,66.28,66.28,0,0,1,0-11.73Z" style="fill:#263238"></path><path d="M408.15,436.53a66.28,66.28,0,0,1,0,11.73,66.28,66.28,0,0,1,0-11.73Z" style="fill:#263238"></path><path d="M413.62,436.53a66.28,66.28,0,0,1,0,11.73,66.28,66.28,0,0,1,0-11.73Z" style="fill:#263238"></path><path d="M419.09,436.53a66.28,66.28,0,0,1,0,11.73,66.28,66.28,0,0,1,0-11.73Z" style="fill:#263238"></path><path d="M424.56,436.53a66.28,66.28,0,0,1,0,11.73,66.28,66.28,0,0,1,0-11.73Z" style="fill:#263238"></path><path d="M430,436.53a66.28,66.28,0,0,1,0,11.73,66.28,66.28,0,0,1,0-11.73Z" style="fill:#263238"></path><path d="M435.49,436.53a66.28,66.28,0,0,1,0,11.73,66.28,66.28,0,0,1,0-11.73Z" style="fill:#263238"></path><path d="M441,436.53a66.28,66.28,0,0,1,0,11.73,66.28,66.28,0,0,1,0-11.73Z" style="fill:#263238"></path><path d="M446.43,436.53a66.28,66.28,0,0,1,0,11.73,66.28,66.28,0,0,1,0-11.73Z" style="fill:#263238"></path><path d="M451.9,436.53a66.28,66.28,0,0,1,0,11.73,66.28,66.28,0,0,1,0-11.73Z" style="fill:#263238"></path><g style="opacity:0.30000000000000004"><path d="M394.2,436.35a218.81,218.81,0,0,0,58.07,0Z"></path></g><path d="M453.25,436.37c0,.14-13.41.26-29.95.26s-29.94-.12-29.94-.26,13.4-.26,29.94-.26S453.25,436.23,453.25,436.37Z" style="fill:#263238"></path><rect x="400.26" y="448.34" width="60" height="11.64" style="fill:#39C486"></rect><path d="M404.12,448.53a61.41,61.41,0,0,1,0,11.29,61.41,61.41,0,0,1,0-11.29Z" style="fill:#263238"></path><path d="M409.68,448.53a61.41,61.41,0,0,1,0,11.29,61.41,61.41,0,0,1,0-11.29Z" style="fill:#263238"></path><path d="M415.18,448.53a61.41,61.41,0,0,1,0,11.29,61.41,61.41,0,0,1,0-11.29Z" style="fill:#263238"></path><path d="M420.65,448.53a61.41,61.41,0,0,1,0,11.29,61.41,61.41,0,0,1,0-11.29Z" style="fill:#263238"></path><path d="M426.12,448.53a61.41,61.41,0,0,1,0,11.29,61.41,61.41,0,0,1,0-11.29Z" style="fill:#263238"></path><path d="M431.59,448.53a61.41,61.41,0,0,1,0,11.29,61.41,61.41,0,0,1,0-11.29Z" style="fill:#263238"></path><path d="M437.05,448.53a61.41,61.41,0,0,1,0,11.29,61.41,61.41,0,0,1,0-11.29Z" style="fill:#263238"></path><path d="M442.52,448.53a61.41,61.41,0,0,1,0,11.29,61.41,61.41,0,0,1,0-11.29Z" style="fill:#263238"></path><path d="M448,448.53a61.41,61.41,0,0,1,0,11.29,61.41,61.41,0,0,1,0-11.29Z" style="fill:#263238"></path><path d="M453.46,448.53a61.41,61.41,0,0,1,0,11.29,61.41,61.41,0,0,1,0-11.29Z" style="fill:#263238"></path><path d="M458.93,448.53a61.41,61.41,0,0,1,0,11.29,61.41,61.41,0,0,1,0-11.29Z" style="fill:#263238"></path><g style="opacity:0.30000000000000004"><path d="M401.23,448.35a171.55,171.55,0,0,0,58.07,0Z"></path></g><path d="M460.27,448.38c0,.14-13.4.26-29.94.26s-29.94-.12-29.94-.26,13.4-.26,29.94-.26S460.27,448.23,460.27,448.38Z" style="fill:#263238"></path><rect x="396.41" y="459.98" width="60" height="11.64" style="fill:#39C486"></rect><path d="M400.26,460.18a61.3,61.3,0,0,1,0,11.28,61.3,61.3,0,0,1,0-11.28Z" style="fill:#263238"></path><path d="M405.83,460.18a61.3,61.3,0,0,1,0,11.28,61.3,61.3,0,0,1,0-11.28Z" style="fill:#263238"></path><path d="M411.32,460.18a61.3,61.3,0,0,1,0,11.28,61.3,61.3,0,0,1,0-11.28Z" style="fill:#263238"></path><path d="M416.79,460.18a61.3,61.3,0,0,1,0,11.28,61.3,61.3,0,0,1,0-11.28Z" style="fill:#263238"></path><path d="M422.26,460.18a61.3,61.3,0,0,1,0,11.28,61.3,61.3,0,0,1,0-11.28Z" style="fill:#263238"></path><path d="M427.73,460.18a61.3,61.3,0,0,1,0,11.28,61.3,61.3,0,0,1,0-11.28Z" style="fill:#263238"></path><path d="M433.2,460.18a61.3,61.3,0,0,1,0,11.28,61.3,61.3,0,0,1,0-11.28Z" style="fill:#263238"></path><path d="M438.66,460.18a59,59,0,0,1,0,11.28,61.3,61.3,0,0,1,0-11.28Z" style="fill:#263238"></path><path d="M444.13,460.18a61.3,61.3,0,0,1,0,11.28,61.3,61.3,0,0,1,0-11.28Z" style="fill:#263238"></path><path d="M449.6,460.18a61.3,61.3,0,0,1,0,11.28,61.3,61.3,0,0,1,0-11.28Z" style="fill:#263238"></path><path d="M455.07,460.18a61.3,61.3,0,0,1,0,11.28,61.3,61.3,0,0,1,0-11.28Z" style="fill:#263238"></path><g style="opacity:0.30000000000000004"><path d="M397.37,460a152.07,152.07,0,0,0,58.07,0Z"></path></g><path d="M456.42,460c0,.14-13.41.26-29.95.26s-29.94-.12-29.94-.26,13.4-.26,29.94-.26S456.42,459.88,456.42,460Z" style="fill:#263238"></path><rect x="399.83" y="471.46" width="60" height="11.64" style="fill:#39C486"></rect><path d="M403.69,471.65a61.41,61.41,0,0,1,0,11.29,61.41,61.41,0,0,1,0-11.29Z" style="fill:#263238"></path><path d="M409.25,471.65a61.41,61.41,0,0,1,0,11.29,61.41,61.41,0,0,1,0-11.29Z" style="fill:#263238"></path><path d="M414.75,471.65a61.41,61.41,0,0,1,0,11.29,61.41,61.41,0,0,1,0-11.29Z" style="fill:#263238"></path><path d="M420.22,471.65a61.41,61.41,0,0,1,0,11.29,61.41,61.41,0,0,1,0-11.29Z" style="fill:#263238"></path><path d="M425.69,471.65a61.41,61.41,0,0,1,0,11.29,61.41,61.41,0,0,1,0-11.29Z" style="fill:#263238"></path><path d="M431.16,471.65a61.41,61.41,0,0,1,0,11.29,61.41,61.41,0,0,1,0-11.29Z" style="fill:#263238"></path><path d="M436.62,471.65a61.41,61.41,0,0,1,0,11.29,61.41,61.41,0,0,1,0-11.29Z" style="fill:#263238"></path><path d="M442.09,471.65a61.41,61.41,0,0,1,0,11.29,61.41,61.41,0,0,1,0-11.29Z" style="fill:#263238"></path><path d="M447.56,471.65a61.41,61.41,0,0,1,0,11.29,61.41,61.41,0,0,1,0-11.29Z" style="fill:#263238"></path><path d="M453,471.65a61.41,61.41,0,0,1,0,11.29,61.41,61.41,0,0,1,0-11.29Z" style="fill:#263238"></path><path d="M458.5,471.65a61.41,61.41,0,0,1,0,11.29,61.41,61.41,0,0,1,0-11.29Z" style="fill:#263238"></path><g style="opacity:0.30000000000000004"><path d="M400.8,471.47a171.8,171.8,0,0,0,58.07,0Z"></path></g><path d="M459.84,471.5c0,.14-13.4.26-29.94.26S400,471.64,400,471.5s13.4-.26,29.94-.26S459.84,471.35,459.84,471.5Z" style="fill:#263238"></path></g><g id="freepik--coins-1--inject-33"><rect x="56.27" y="327.49" width="60" height="12.1" style="fill:#39C486"></rect><path d="M60.13,327.7a66.28,66.28,0,0,1,0,11.73,63.84,63.84,0,0,1,0-11.73Z" style="fill:#263238"></path><path d="M65.69,327.7a66.28,66.28,0,0,1,0,11.73,66.28,66.28,0,0,1,0-11.73Z" style="fill:#263238"></path><path d="M71.19,327.7a66.28,66.28,0,0,1,0,11.73,66.28,66.28,0,0,1,0-11.73Z" style="fill:#263238"></path><path d="M76.65,327.7a66.28,66.28,0,0,1,0,11.73,66.28,66.28,0,0,1,0-11.73Z" style="fill:#263238"></path><path d="M82.12,327.7a66.28,66.28,0,0,1,0,11.73,66.28,66.28,0,0,1,0-11.73Z" style="fill:#263238"></path><path d="M87.59,327.7a66.28,66.28,0,0,1,0,11.73,66.28,66.28,0,0,1,0-11.73Z" style="fill:#263238"></path><path d="M93.06,327.7a66.28,66.28,0,0,1,0,11.73,66.28,66.28,0,0,1,0-11.73Z" style="fill:#263238"></path><path d="M98.53,327.7a66.28,66.28,0,0,1,0,11.73,66.28,66.28,0,0,1,0-11.73Z" style="fill:#263238"></path><path d="M104,327.7a63.84,63.84,0,0,1,0,11.73,66.28,66.28,0,0,1,0-11.73Z" style="fill:#263238"></path><path d="M109.46,327.7a66.28,66.28,0,0,1,0,11.73,66.28,66.28,0,0,1,0-11.73Z" style="fill:#263238"></path><path d="M114.93,327.7a66.28,66.28,0,0,1,0,11.73,66.28,66.28,0,0,1,0-11.73Z" style="fill:#263238"></path><g style="opacity:0.30000000000000004"><path d="M57.23,327.51a155.35,155.35,0,0,0,58.07,0Z"></path></g><path d="M116.28,327.53c0,.15-13.41.26-29.94.26s-29.95-.11-29.95-.26,13.4-.26,30-.26S116.28,327.39,116.28,327.53Z" style="fill:#263238"></path><rect x="59.9" y="339.6" width="60" height="12.1" style="fill:#39C486"></rect><path d="M63.76,339.8a66.28,66.28,0,0,1,0,11.73,66.28,66.28,0,0,1,0-11.73Z" style="fill:#263238"></path><path d="M69.32,339.8a66.28,66.28,0,0,1,0,11.73,66.28,66.28,0,0,1,0-11.73Z" style="fill:#263238"></path><path d="M74.82,339.8a66.28,66.28,0,0,1,0,11.73,66.28,66.28,0,0,1,0-11.73Z" style="fill:#263238"></path><path d="M80.28,339.8a63.84,63.84,0,0,1,0,11.73,66.28,66.28,0,0,1,0-11.73Z" style="fill:#263238"></path><path d="M85.75,339.8a66.28,66.28,0,0,1,0,11.73,66.28,66.28,0,0,1,0-11.73Z" style="fill:#263238"></path><path d="M91.22,339.8a66.28,66.28,0,0,1,0,11.73,66.28,66.28,0,0,1,0-11.73Z" style="fill:#263238"></path><path d="M96.69,339.8a66.28,66.28,0,0,1,0,11.73,66.28,66.28,0,0,1,0-11.73Z" style="fill:#263238"></path><path d="M102.16,339.8a66.28,66.28,0,0,1,0,11.73,66.28,66.28,0,0,1,0-11.73Z" style="fill:#263238"></path><path d="M107.63,339.8a66.28,66.28,0,0,1,0,11.73,66.28,66.28,0,0,1,0-11.73Z" style="fill:#263238"></path><path d="M113.09,339.8a66.28,66.28,0,0,1,0,11.73,66.28,66.28,0,0,1,0-11.73Z" style="fill:#263238"></path><path d="M118.56,339.8a66.28,66.28,0,0,1,0,11.73,66.28,66.28,0,0,1,0-11.73Z" style="fill:#263238"></path><g style="opacity:0.30000000000000004"><path d="M60.86,339.61a218.39,218.39,0,0,0,58.07,0Z"></path></g><path d="M119.91,339.64c0,.14-13.41.26-29.94.26S60,339.78,60,339.64s13.41-.26,29.95-.26S119.91,339.49,119.91,339.64Z" style="fill:#263238"></path><rect x="54.44" y="351.65" width="60" height="12.1" style="fill:#39C486"></rect><path d="M58.3,351.85a66.39,66.39,0,0,1,0,11.74,66.39,66.39,0,0,1,0-11.74Z" style="fill:#263238"></path><path d="M63.86,351.85a63.94,63.94,0,0,1,0,11.74,66.39,66.39,0,0,1,0-11.74Z" style="fill:#263238"></path><path d="M69.36,351.85a66.39,66.39,0,0,1,0,11.74,66.39,66.39,0,0,1,0-11.74Z" style="fill:#263238"></path><path d="M74.83,351.85a66.39,66.39,0,0,1,0,11.74,66.39,66.39,0,0,1,0-11.74Z" style="fill:#263238"></path><path d="M80.3,351.85a66.39,66.39,0,0,1,0,11.74,66.39,66.39,0,0,1,0-11.74Z" style="fill:#263238"></path><path d="M85.77,351.85a66.39,66.39,0,0,1,0,11.74,66.39,66.39,0,0,1,0-11.74Z" style="fill:#263238"></path><path d="M91.24,351.85a66.39,66.39,0,0,1,0,11.74,66.39,66.39,0,0,1,0-11.74Z" style="fill:#263238"></path><path d="M96.7,351.85a66.39,66.39,0,0,1,0,11.74,66.39,66.39,0,0,1,0-11.74Z" style="fill:#263238"></path><path d="M102.17,351.85a66.39,66.39,0,0,1,0,11.74,66.39,66.39,0,0,1,0-11.74Z" style="fill:#263238"></path><path d="M107.64,351.85a66.39,66.39,0,0,1,0,11.74,66.39,66.39,0,0,1,0-11.74Z" style="fill:#263238"></path><path d="M113.11,351.85a66.39,66.39,0,0,1,0,11.74,66.39,66.39,0,0,1,0-11.74Z" style="fill:#263238"></path><g style="opacity:0.30000000000000004"><path d="M55.41,351.67a218.81,218.81,0,0,0,58.07,0Z"></path></g><path d="M114.46,351.69c0,.14-13.41.26-29.95.26s-29.94-.12-29.94-.26,13.4-.26,29.94-.26S114.46,351.55,114.46,351.69Z" style="fill:#263238"></path><rect x="60.42" y="363.78" width="60" height="12.1" style="fill:#39C486"></rect><path d="M64.28,364a66.28,66.28,0,0,1,0,11.73,66.28,66.28,0,0,1,0-11.73Z" style="fill:#263238"></path><path d="M69.84,364a66.28,66.28,0,0,1,0,11.73,66.28,66.28,0,0,1,0-11.73Z" style="fill:#263238"></path><path d="M75.34,364a66.28,66.28,0,0,1,0,11.73,66.28,66.28,0,0,1,0-11.73Z" style="fill:#263238"></path><path d="M80.81,364a66.28,66.28,0,0,1,0,11.73,63.84,63.84,0,0,1,0-11.73Z" style="fill:#263238"></path><path d="M86.27,364a66.28,66.28,0,0,1,0,11.73,66.28,66.28,0,0,1,0-11.73Z" style="fill:#263238"></path><path d="M91.74,364a66.28,66.28,0,0,1,0,11.73,66.28,66.28,0,0,1,0-11.73Z" style="fill:#263238"></path><path d="M97.21,364a66.28,66.28,0,0,1,0,11.73,66.28,66.28,0,0,1,0-11.73Z" style="fill:#263238"></path><path d="M102.68,364a66.28,66.28,0,0,1,0,11.73,66.28,66.28,0,0,1,0-11.73Z" style="fill:#263238"></path><path d="M108.15,364a66.28,66.28,0,0,1,0,11.73,66.28,66.28,0,0,1,0-11.73Z" style="fill:#263238"></path><path d="M113.61,364a66.28,66.28,0,0,1,0,11.73,66.28,66.28,0,0,1,0-11.73Z" style="fill:#263238"></path><path d="M119.08,364a66.28,66.28,0,0,1,0,11.73,66.28,66.28,0,0,1,0-11.73Z" style="fill:#263238"></path><g style="opacity:0.30000000000000004"><path d="M61.38,363.79a218.46,218.46,0,0,0,58.08,0Z"></path></g><path d="M120.43,363.82c0,.14-13.41.26-29.94.26s-29.95-.12-29.95-.26,13.41-.26,29.95-.26S120.43,363.67,120.43,363.82Z" style="fill:#263238"></path><rect x="56.99" y="375.81" width="60" height="12.1" style="fill:#39C486"></rect><path d="M60.84,376a66.39,66.39,0,0,1,0,11.74,66.39,66.39,0,0,1,0-11.74Z" style="fill:#263238"></path><path d="M66.41,376a66.39,66.39,0,0,1,0,11.74,63.94,63.94,0,0,1,0-11.74Z" style="fill:#263238"></path><path d="M71.9,376a66.39,66.39,0,0,1,0,11.74,66.39,66.39,0,0,1,0-11.74Z" style="fill:#263238"></path><path d="M77.37,376a66.39,66.39,0,0,1,0,11.74,66.39,66.39,0,0,1,0-11.74Z" style="fill:#263238"></path><path d="M82.84,376a66.39,66.39,0,0,1,0,11.74,66.39,66.39,0,0,1,0-11.74Z" style="fill:#263238"></path><path d="M88.31,376a66.39,66.39,0,0,1,0,11.74,66.39,66.39,0,0,1,0-11.74Z" style="fill:#263238"></path><path d="M93.78,376a66.39,66.39,0,0,1,0,11.74,66.39,66.39,0,0,1,0-11.74Z" style="fill:#263238"></path><path d="M99.24,376a66.39,66.39,0,0,1,0,11.74,66.39,66.39,0,0,1,0-11.74Z" style="fill:#263238"></path><path d="M104.71,376a66.39,66.39,0,0,1,0,11.74,66.39,66.39,0,0,1,0-11.74Z" style="fill:#263238"></path><path d="M110.18,376a66.39,66.39,0,0,1,0,11.74,66.39,66.39,0,0,1,0-11.74Z" style="fill:#263238"></path><path d="M115.65,376a66.39,66.39,0,0,1,0,11.74,66.39,66.39,0,0,1,0-11.74Z" style="fill:#263238"></path><g style="opacity:0.30000000000000004"><path d="M58,375.83a155.35,155.35,0,0,0,58.07,0Z"></path></g><path d="M117,375.85c0,.14-13.41.26-29.95.26s-29.94-.12-29.94-.26,13.4-.26,29.94-.26S117,375.71,117,375.85Z" style="fill:#263238"></path><rect x="53.13" y="387.92" width="60" height="12.1" style="fill:#39C486"></rect><path d="M57,388.12a66.28,66.28,0,0,1,0,11.73,63.84,63.84,0,0,1,0-11.73Z" style="fill:#263238"></path><path d="M62.55,388.12a66.28,66.28,0,0,1,0,11.73,66.28,66.28,0,0,1,0-11.73Z" style="fill:#263238"></path><path d="M68.05,388.12a66.28,66.28,0,0,1,0,11.73,66.28,66.28,0,0,1,0-11.73Z" style="fill:#263238"></path><path d="M73.51,388.12a66.28,66.28,0,0,1,0,11.73,66.28,66.28,0,0,1,0-11.73Z" style="fill:#263238"></path><path d="M79,388.12a66.28,66.28,0,0,1,0,11.73,66.28,66.28,0,0,1,0-11.73Z" style="fill:#263238"></path><path d="M84.45,388.12a66.28,66.28,0,0,1,0,11.73,66.28,66.28,0,0,1,0-11.73Z" style="fill:#263238"></path><path d="M89.92,388.12a66.28,66.28,0,0,1,0,11.73,66.28,66.28,0,0,1,0-11.73Z" style="fill:#263238"></path><path d="M95.39,388.12a66.28,66.28,0,0,1,0,11.73,66.28,66.28,0,0,1,0-11.73Z" style="fill:#263238"></path><path d="M100.85,388.12a63.84,63.84,0,0,1,0,11.73,66.28,66.28,0,0,1,0-11.73Z" style="fill:#263238"></path><path d="M106.32,388.12a66.28,66.28,0,0,1,0,11.73,66.28,66.28,0,0,1,0-11.73Z" style="fill:#263238"></path><path d="M111.79,388.12a66.28,66.28,0,0,1,0,11.73,66.28,66.28,0,0,1,0-11.73Z" style="fill:#263238"></path><g style="opacity:0.30000000000000004"><path d="M54.09,387.93a218.81,218.81,0,0,0,58.07,0Z"></path></g><path d="M113.14,388c0,.14-13.41.26-29.94.26s-29.95-.12-29.95-.26,13.4-.27,30-.27S113.14,387.81,113.14,388Z" style="fill:#263238"></path><rect x="49.3" y="399.93" width="60" height="12.1" style="fill:#39C486"></rect><path d="M53.16,400.13a66.28,66.28,0,0,1,0,11.73,66.28,66.28,0,0,1,0-11.73Z" style="fill:#263238"></path><path d="M58.72,400.13a66.28,66.28,0,0,1,0,11.73,66.28,66.28,0,0,1,0-11.73Z" style="fill:#263238"></path><path d="M64.22,400.13a66.28,66.28,0,0,1,0,11.73,66.28,66.28,0,0,1,0-11.73Z" style="fill:#263238"></path><path d="M69.69,400.13a66.28,66.28,0,0,1,0,11.73,66.28,66.28,0,0,1,0-11.73Z" style="fill:#263238"></path><path d="M75.15,400.13a66.28,66.28,0,0,1,0,11.73,66.28,66.28,0,0,1,0-11.73Z" style="fill:#263238"></path><path d="M80.62,400.13a66.28,66.28,0,0,1,0,11.73,66.28,66.28,0,0,1,0-11.73Z" style="fill:#263238"></path><path d="M86.09,400.13a66.28,66.28,0,0,1,0,11.73,66.28,66.28,0,0,1,0-11.73Z" style="fill:#263238"></path><path d="M91.56,400.13a66.28,66.28,0,0,1,0,11.73,66.28,66.28,0,0,1,0-11.73Z" style="fill:#263238"></path><path d="M97,400.13a66.28,66.28,0,0,1,0,11.73,66.28,66.28,0,0,1,0-11.73Z" style="fill:#263238"></path><path d="M102.49,400.13a63.84,63.84,0,0,1,0,11.73,66.28,66.28,0,0,1,0-11.73Z" style="fill:#263238"></path><path d="M108,400.13a66.28,66.28,0,0,1,0,11.73,66.28,66.28,0,0,1,0-11.73Z" style="fill:#263238"></path><g style="opacity:0.30000000000000004"><path d="M50.26,399.94a218.46,218.46,0,0,0,58.08,0Z"></path></g><path d="M109.31,400c0,.14-13.41.26-29.94.26s-29.95-.12-29.95-.26,13.41-.26,30-.26S109.31,399.83,109.31,400Z" style="fill:#263238"></path><rect x="53.65" y="412.1" width="60" height="12.1" style="fill:#39C486"></rect><path d="M57.51,412.3a66.28,66.28,0,0,1,0,11.73,66.28,66.28,0,0,1,0-11.73Z" style="fill:#263238"></path><path d="M63.07,412.3a66.28,66.28,0,0,1,0,11.73,66.28,66.28,0,0,1,0-11.73Z" style="fill:#263238"></path><path d="M68.57,412.3a66.28,66.28,0,0,1,0,11.73,66.28,66.28,0,0,1,0-11.73Z" style="fill:#263238"></path><path d="M74,412.3A66.28,66.28,0,0,1,74,424a66.28,66.28,0,0,1,0-11.73Z" style="fill:#263238"></path><path d="M79.5,412.3a66.28,66.28,0,0,1,0,11.73,66.28,66.28,0,0,1,0-11.73Z" style="fill:#263238"></path><path d="M85,412.3A66.28,66.28,0,0,1,85,424a66.28,66.28,0,0,1,0-11.73Z" style="fill:#263238"></path><path d="M90.44,412.3a66.28,66.28,0,0,1,0,11.73,66.28,66.28,0,0,1,0-11.73Z" style="fill:#263238"></path><path d="M95.91,412.3a66.28,66.28,0,0,1,0,11.73,66.28,66.28,0,0,1,0-11.73Z" style="fill:#263238"></path><path d="M101.38,412.3a66.28,66.28,0,0,1,0,11.73,63.84,63.84,0,0,1,0-11.73Z" style="fill:#263238"></path><path d="M106.84,412.3a66.28,66.28,0,0,1,0,11.73,66.28,66.28,0,0,1,0-11.73Z" style="fill:#263238"></path><path d="M112.31,412.3a66.28,66.28,0,0,1,0,11.73,66.28,66.28,0,0,1,0-11.73Z" style="fill:#263238"></path><g style="opacity:0.30000000000000004"><path d="M54.61,412.11a218.39,218.39,0,0,0,58.07,0Z"></path></g><path d="M113.66,412.14c0,.14-13.41.26-29.94.26s-29.95-.12-29.95-.26,13.4-.26,29.95-.26S113.66,412,113.66,412.14Z" style="fill:#263238"></path><rect x="55" y="424" width="60" height="12.1" style="fill:#39C486"></rect><path d="M58.85,424.2a66.28,66.28,0,0,1,0,11.73,66.28,66.28,0,0,1,0-11.73Z" style="fill:#263238"></path><path d="M64.42,424.2a66.28,66.28,0,0,1,0,11.73,66.28,66.28,0,0,1,0-11.73Z" style="fill:#263238"></path><path d="M69.91,424.2a66.28,66.28,0,0,1,0,11.73,66.28,66.28,0,0,1,0-11.73Z" style="fill:#263238"></path><path d="M75.38,424.2a66.28,66.28,0,0,1,0,11.73,66.28,66.28,0,0,1,0-11.73Z" style="fill:#263238"></path><path d="M80.85,424.2a66.28,66.28,0,0,1,0,11.73,66.28,66.28,0,0,1,0-11.73Z" style="fill:#263238"></path><path d="M86.32,424.2a66.28,66.28,0,0,1,0,11.73,66.28,66.28,0,0,1,0-11.73Z" style="fill:#263238"></path><path d="M91.79,424.2a66.28,66.28,0,0,1,0,11.73,66.28,66.28,0,0,1,0-11.73Z" style="fill:#263238"></path><path d="M97.25,424.2a63.84,63.84,0,0,1,0,11.73,66.28,66.28,0,0,1,0-11.73Z" style="fill:#263238"></path><path d="M102.72,424.2a66.28,66.28,0,0,1,0,11.73,66.28,66.28,0,0,1,0-11.73Z" style="fill:#263238"></path><path d="M108.19,424.2a66.28,66.28,0,0,1,0,11.73,66.28,66.28,0,0,1,0-11.73Z" style="fill:#263238"></path><path d="M113.66,424.2a66.28,66.28,0,0,1,0,11.73,66.28,66.28,0,0,1,0-11.73Z" style="fill:#263238"></path><g style="opacity:0.30000000000000004"><path d="M56,424A218.81,218.81,0,0,0,114,424Z"></path></g><path d="M115,424c0,.15-13.41.26-29.95.26s-29.94-.11-29.94-.26,13.4-.26,29.94-.26S115,423.89,115,424Z" style="fill:#263238"></path><rect x="49.3" y="435.7" width="60" height="12.1" style="fill:#39C486"></rect><path d="M53.16,435.9a66.28,66.28,0,0,1,0,11.73,66.28,66.28,0,0,1,0-11.73Z" style="fill:#263238"></path><path d="M58.72,435.9a66.28,66.28,0,0,1,0,11.73,66.28,66.28,0,0,1,0-11.73Z" style="fill:#263238"></path><path d="M64.22,435.9a66.28,66.28,0,0,1,0,11.73,66.28,66.28,0,0,1,0-11.73Z" style="fill:#263238"></path><path d="M69.69,435.9a66.28,66.28,0,0,1,0,11.73,66.28,66.28,0,0,1,0-11.73Z" style="fill:#263238"></path><path d="M75.15,435.9a66.28,66.28,0,0,1,0,11.73,66.28,66.28,0,0,1,0-11.73Z" style="fill:#263238"></path><path d="M80.62,435.9a66.28,66.28,0,0,1,0,11.73,66.28,66.28,0,0,1,0-11.73Z" style="fill:#263238"></path><path d="M86.09,435.9a66.28,66.28,0,0,1,0,11.73,66.28,66.28,0,0,1,0-11.73Z" style="fill:#263238"></path><path d="M91.56,435.9a66.28,66.28,0,0,1,0,11.73,66.28,66.28,0,0,1,0-11.73Z" style="fill:#263238"></path><path d="M97,435.9a66.28,66.28,0,0,1,0,11.73,66.28,66.28,0,0,1,0-11.73Z" style="fill:#263238"></path><path d="M102.49,435.9a63.84,63.84,0,0,1,0,11.73,66.28,66.28,0,0,1,0-11.73Z" style="fill:#263238"></path><path d="M108,435.9a66.28,66.28,0,0,1,0,11.73,66.28,66.28,0,0,1,0-11.73Z" style="fill:#263238"></path><g style="opacity:0.30000000000000004"><path d="M50.26,435.72a218.88,218.88,0,0,0,58.08,0Z"></path></g><path d="M109.31,435.74c0,.14-13.41.26-29.94.26s-29.95-.12-29.95-.26,13.41-.26,30-.26S109.31,435.6,109.31,435.74Z" style="fill:#263238"></path><rect x="56.33" y="447.71" width="60" height="11.64" style="fill:#39C486"></rect><path d="M60.19,447.9a61.41,61.41,0,0,1,0,11.29,59.15,59.15,0,0,1,0-11.29Z" style="fill:#263238"></path><path d="M65.75,447.9a61.41,61.41,0,0,1,0,11.29,61.41,61.41,0,0,1,0-11.29Z" style="fill:#263238"></path><path d="M71.25,447.9a61.41,61.41,0,0,1,0,11.29,61.41,61.41,0,0,1,0-11.29Z" style="fill:#263238"></path><path d="M76.71,447.9a61.41,61.41,0,0,1,0,11.29,61.41,61.41,0,0,1,0-11.29Z" style="fill:#263238"></path><path d="M82.18,447.9a61.41,61.41,0,0,1,0,11.29,61.41,61.41,0,0,1,0-11.29Z" style="fill:#263238"></path><path d="M87.65,447.9a61.41,61.41,0,0,1,0,11.29,61.41,61.41,0,0,1,0-11.29Z" style="fill:#263238"></path><path d="M93.12,447.9a61.41,61.41,0,0,1,0,11.29,61.41,61.41,0,0,1,0-11.29Z" style="fill:#263238"></path><path d="M98.59,447.9a61.41,61.41,0,0,1,0,11.29,61.41,61.41,0,0,1,0-11.29Z" style="fill:#263238"></path><path d="M104.05,447.9a59.15,59.15,0,0,1,0,11.29,61.41,61.41,0,0,1,0-11.29Z" style="fill:#263238"></path><path d="M109.52,447.9a61.41,61.41,0,0,1,0,11.29,61.41,61.41,0,0,1,0-11.29Z" style="fill:#263238"></path><path d="M115,447.9a61.41,61.41,0,0,1,0,11.29,61.41,61.41,0,0,1,0-11.29Z" style="fill:#263238"></path><g style="opacity:0.30000000000000004"><path d="M57.29,447.72a171.55,171.55,0,0,0,58.07,0Z"></path></g><path d="M116.34,447.75c0,.14-13.41.26-29.94.26s-29.95-.12-29.95-.26,13.4-.26,30-.26S116.34,447.6,116.34,447.75Z" style="fill:#263238"></path><rect x="52.47" y="459.35" width="60" height="11.64" style="fill:#39C486"></rect><path d="M56.33,459.55a61.3,61.3,0,0,1,0,11.28,61.3,61.3,0,0,1,0-11.28Z" style="fill:#263238"></path><path d="M61.89,459.55a61.3,61.3,0,0,1,0,11.28,61.3,61.3,0,0,1,0-11.28Z" style="fill:#263238"></path><path d="M67.39,459.55a61.3,61.3,0,0,1,0,11.28,61.3,61.3,0,0,1,0-11.28Z" style="fill:#263238"></path><path d="M72.86,459.55a61.3,61.3,0,0,1,0,11.28,61.3,61.3,0,0,1,0-11.28Z" style="fill:#263238"></path><path d="M78.32,459.55a59,59,0,0,1,0,11.28,61.3,61.3,0,0,1,0-11.28Z" style="fill:#263238"></path><path d="M83.79,459.55a61.3,61.3,0,0,1,0,11.28,61.3,61.3,0,0,1,0-11.28Z" style="fill:#263238"></path><path d="M89.26,459.55a61.3,61.3,0,0,1,0,11.28,61.3,61.3,0,0,1,0-11.28Z" style="fill:#263238"></path><path d="M94.73,459.55a61.3,61.3,0,0,1,0,11.28,61.3,61.3,0,0,1,0-11.28Z" style="fill:#263238"></path><path d="M100.2,459.55a61.3,61.3,0,0,1,0,11.28,61.3,61.3,0,0,1,0-11.28Z" style="fill:#263238"></path><path d="M105.67,459.55a61.3,61.3,0,0,1,0,11.28,61.3,61.3,0,0,1,0-11.28Z" style="fill:#263238"></path><path d="M111.13,459.55a61.3,61.3,0,0,1,0,11.28,61.3,61.3,0,0,1,0-11.28Z" style="fill:#263238"></path><g style="opacity:0.30000000000000004"><path d="M53.44,459.37a152.07,152.07,0,0,0,58.07,0Z"></path></g><path d="M112.48,459.39c0,.14-13.41.26-29.94.26s-29.95-.12-29.95-.26,13.41-.26,30-.26S112.48,459.25,112.48,459.39Z" style="fill:#263238"></path><rect x="55.9" y="470.83" width="60" height="11.64" style="fill:#39C486"></rect><path d="M59.76,471a61.41,61.41,0,0,1,0,11.29,59.15,59.15,0,0,1,0-11.29Z" style="fill:#263238"></path><path d="M65.32,471a61.41,61.41,0,0,1,0,11.29,61.41,61.41,0,0,1,0-11.29Z" style="fill:#263238"></path><path d="M70.82,471a61.41,61.41,0,0,1,0,11.29,61.41,61.41,0,0,1,0-11.29Z" style="fill:#263238"></path><path d="M76.28,471a61.41,61.41,0,0,1,0,11.29,61.41,61.41,0,0,1,0-11.29Z" style="fill:#263238"></path><path d="M81.75,471a61.41,61.41,0,0,1,0,11.29,61.41,61.41,0,0,1,0-11.29Z" style="fill:#263238"></path><path d="M87.22,471a61.41,61.41,0,0,1,0,11.29,61.41,61.41,0,0,1,0-11.29Z" style="fill:#263238"></path><path d="M92.69,471a61.41,61.41,0,0,1,0,11.29,61.41,61.41,0,0,1,0-11.29Z" style="fill:#263238"></path><path d="M98.16,471a61.41,61.41,0,0,1,0,11.29,61.41,61.41,0,0,1,0-11.29Z" style="fill:#263238"></path><path d="M103.62,471a59.15,59.15,0,0,1,0,11.29,61.41,61.41,0,0,1,0-11.29Z" style="fill:#263238"></path><path d="M109.09,471a61.41,61.41,0,0,1,0,11.29,61.41,61.41,0,0,1,0-11.29Z" style="fill:#263238"></path><path d="M114.56,471a61.41,61.41,0,0,1,0,11.29,61.41,61.41,0,0,1,0-11.29Z" style="fill:#263238"></path><g style="opacity:0.30000000000000004"><path d="M56.86,470.84a171.8,171.8,0,0,0,58.07,0Z"></path></g><path d="M115.91,470.87c0,.14-13.41.26-29.94.26S56,471,56,470.87s13.4-.27,29.95-.27S115.91,470.72,115.91,470.87Z" style="fill:#263238"></path></g><g id="freepik--Character--inject-33"><rect x="214.85" y="229.14" width="68.38" height="15.03" style="fill:#39C486"></rect><path d="M219.24,229.39a50.08,50.08,0,0,1,.26,7.28,50.17,50.17,0,0,1-.26,7.29,51.93,51.93,0,0,1-.26-7.29A51.84,51.84,0,0,1,219.24,229.39Z" style="fill:#263238"></path><path d="M225.58,229.39a50.08,50.08,0,0,1,.26,7.28,50.17,50.17,0,0,1-.26,7.29,51.93,51.93,0,0,1-.26-7.29A51.84,51.84,0,0,1,225.58,229.39Z" style="fill:#263238"></path><path d="M231.85,229.39a51.84,51.84,0,0,1,.26,7.28,51.93,51.93,0,0,1-.26,7.29,50.17,50.17,0,0,1-.26-7.29A50.08,50.08,0,0,1,231.85,229.39Z" style="fill:#263238"></path><path d="M238.08,229.39a51.84,51.84,0,0,1,.26,7.28,51.93,51.93,0,0,1-.26,7.29,51.93,51.93,0,0,1-.26-7.29A51.84,51.84,0,0,1,238.08,229.39Z" style="fill:#263238"></path><path d="M244.31,229.39a50.08,50.08,0,0,1,.26,7.28,50.17,50.17,0,0,1-.26,7.29,51.93,51.93,0,0,1-.26-7.29A51.84,51.84,0,0,1,244.31,229.39Z" style="fill:#263238"></path><path d="M250.54,229.39a50.08,50.08,0,0,1,.26,7.28,50.17,50.17,0,0,1-.26,7.29,51.93,51.93,0,0,1-.26-7.29A51.84,51.84,0,0,1,250.54,229.39Z" style="fill:#263238"></path><path d="M256.78,229.39a51.84,51.84,0,0,1,.26,7.28,51.93,51.93,0,0,1-.26,7.29,50.17,50.17,0,0,1-.26-7.29A50.08,50.08,0,0,1,256.78,229.39Z" style="fill:#263238"></path><path d="M263,229.39a51.84,51.84,0,0,1,.26,7.28A51.93,51.93,0,0,1,263,244a50.17,50.17,0,0,1-.26-7.29A50.08,50.08,0,0,1,263,229.39Z" style="fill:#263238"></path><path d="M269.24,229.39a51.84,51.84,0,0,1,.26,7.28,51.93,51.93,0,0,1-.26,7.29,51.93,51.93,0,0,1-.26-7.29A51.84,51.84,0,0,1,269.24,229.39Z" style="fill:#263238"></path><path d="M275.47,229.39a50.08,50.08,0,0,1,.26,7.28,50.17,50.17,0,0,1-.26,7.29,51.93,51.93,0,0,1-.26-7.29A51.84,51.84,0,0,1,275.47,229.39Z" style="fill:#263238"></path><path d="M281.7,229.39a50.08,50.08,0,0,1,.26,7.28,50.17,50.17,0,0,1-.26,7.29,51.93,51.93,0,0,1-.26-7.29A51.84,51.84,0,0,1,281.7,229.39Z" style="fill:#263238"></path><g style="opacity:0.30000000000000004"><path d="M216,229.15a229,229,0,0,0,66.18,0Z"></path></g><path d="M283.24,229.18c0,.15-15.28.26-34.13.26s-34.12-.11-34.12-.26,15.27-.26,34.12-.26S283.24,229,283.24,229.18Z" style="fill:#263238"></path><rect x="221.66" y="244.2" width="68.38" height="15.03" style="fill:#39C486"></rect><path d="M226.05,244.45a50.17,50.17,0,0,1,.26,7.29,50.08,50.08,0,0,1-.26,7.28,51.84,51.84,0,0,1-.26-7.28A51.93,51.93,0,0,1,226.05,244.45Z" style="fill:#263238"></path><path d="M232.39,244.45a51.93,51.93,0,0,1,.26,7.29,51.84,51.84,0,0,1-.26,7.28,51.84,51.84,0,0,1-.26-7.28A51.93,51.93,0,0,1,232.39,244.45Z" style="fill:#263238"></path><path d="M238.66,244.45a51.93,51.93,0,0,1,.26,7.29,51.84,51.84,0,0,1-.26,7.28,50.08,50.08,0,0,1-.26-7.28A50.17,50.17,0,0,1,238.66,244.45Z" style="fill:#263238"></path><path d="M244.89,244.45a51.93,51.93,0,0,1,.26,7.29,51.84,51.84,0,0,1-.26,7.28,51.84,51.84,0,0,1-.26-7.28A51.93,51.93,0,0,1,244.89,244.45Z" style="fill:#263238"></path><path d="M251.12,244.45a51.93,51.93,0,0,1,.26,7.29,51.84,51.84,0,0,1-.26,7.28,51.84,51.84,0,0,1-.26-7.28A51.93,51.93,0,0,1,251.12,244.45Z" style="fill:#263238"></path><path d="M257.35,244.45a50.17,50.17,0,0,1,.26,7.29,50.08,50.08,0,0,1-.26,7.28,51.84,51.84,0,0,1-.26-7.28A51.93,51.93,0,0,1,257.35,244.45Z" style="fill:#263238"></path><path d="M263.58,244.45a49.26,49.26,0,0,1,.27,7.29,49.17,49.17,0,0,1-.27,7.28,51.84,51.84,0,0,1-.26-7.28A51.93,51.93,0,0,1,263.58,244.45Z" style="fill:#263238"></path><path d="M269.82,244.45a51.93,51.93,0,0,1,.26,7.29,51.84,51.84,0,0,1-.26,7.28,50.08,50.08,0,0,1-.26-7.28A50.17,50.17,0,0,1,269.82,244.45Z" style="fill:#263238"></path><path d="M276.05,244.45a51.93,51.93,0,0,1,.26,7.29,51.84,51.84,0,0,1-.26,7.28,50.08,50.08,0,0,1-.26-7.28A50.17,50.17,0,0,1,276.05,244.45Z" style="fill:#263238"></path><path d="M282.28,244.45a51.93,51.93,0,0,1,.26,7.29,51.84,51.84,0,0,1-.26,7.28,51.84,51.84,0,0,1-.26-7.28A51.93,51.93,0,0,1,282.28,244.45Z" style="fill:#263238"></path><path d="M288.51,244.45a50.17,50.17,0,0,1,.26,7.29,50.08,50.08,0,0,1-.26,7.28,51.84,51.84,0,0,1-.26-7.28A51.93,51.93,0,0,1,288.51,244.45Z" style="fill:#263238"></path><g style="opacity:0.30000000000000004"><path d="M222.76,244.22a228.61,228.61,0,0,0,66.18,0Z"></path></g><path d="M290.05,244.25c0,.14-15.28.26-34.13.26s-34.13-.12-34.13-.26,15.28-.26,34.13-.26S290.05,244.1,290.05,244.25Z" style="fill:#263238"></path><rect x="218.41" y="289.42" width="68.38" height="15.03" style="fill:#39C486"></rect><path d="M222.8,289.67a49.37,49.37,0,0,1,.27,7.29,49.37,49.37,0,0,1-.27,7.29,52,52,0,0,1-.26-7.29A52,52,0,0,1,222.8,289.67Z" style="fill:#263238"></path><path d="M229.14,289.67a50.28,50.28,0,0,1,.26,7.29,50.28,50.28,0,0,1-.26,7.29,52,52,0,0,1-.26-7.29A52,52,0,0,1,229.14,289.67Z" style="fill:#263238"></path><path d="M235.41,289.67a52,52,0,0,1,.26,7.29,52,52,0,0,1-.26,7.29,52,52,0,0,1-.26-7.29A52,52,0,0,1,235.41,289.67Z" style="fill:#263238"></path><path d="M241.64,289.67a50.28,50.28,0,0,1,.26,7.29,50.28,50.28,0,0,1-.26,7.29,52,52,0,0,1-.26-7.29A52,52,0,0,1,241.64,289.67Z" style="fill:#263238"></path><path d="M247.87,289.67a50.28,50.28,0,0,1,.26,7.29,50.28,50.28,0,0,1-.26,7.29,52,52,0,0,1-.26-7.29A52,52,0,0,1,247.87,289.67Z" style="fill:#263238"></path><path d="M254.11,289.67a52,52,0,0,1,.26,7.29,52,52,0,0,1-.26,7.29,50.28,50.28,0,0,1-.26-7.29A50.28,50.28,0,0,1,254.11,289.67Z" style="fill:#263238"></path><path d="M260.34,289.67a52,52,0,0,1,.26,7.29,52,52,0,0,1-.26,7.29,50.28,50.28,0,0,1-.26-7.29A50.28,50.28,0,0,1,260.34,289.67Z" style="fill:#263238"></path><path d="M266.57,289.67a52,52,0,0,1,.26,7.29,52,52,0,0,1-.26,7.29,52,52,0,0,1-.26-7.29A52,52,0,0,1,266.57,289.67Z" style="fill:#263238"></path><path d="M272.8,289.67a50.28,50.28,0,0,1,.26,7.29,50.28,50.28,0,0,1-.26,7.29,52,52,0,0,1-.26-7.29A52,52,0,0,1,272.8,289.67Z" style="fill:#263238"></path><path d="M279,289.67a50.28,50.28,0,0,1,.26,7.29,50.28,50.28,0,0,1-.26,7.29,52,52,0,0,1-.26-7.29A52,52,0,0,1,279,289.67Z" style="fill:#263238"></path><path d="M285.27,289.67a52,52,0,0,1,.26,7.29,52,52,0,0,1-.26,7.29A50.28,50.28,0,0,1,285,297,50.28,50.28,0,0,1,285.27,289.67Z" style="fill:#263238"></path><g style="opacity:0.30000000000000004"><path d="M219.51,289.44a162.66,162.66,0,0,0,66.18,0Z"></path></g><path d="M286.8,289.47c0,.14-15.28.26-34.12.26s-34.13-.12-34.13-.26,15.27-.26,34.13-.26S286.8,289.33,286.8,289.47Z" style="fill:#263238"></path><rect x="222.55" y="304.46" width="68.38" height="15.03" style="fill:#39C486"></rect><path d="M226.94,304.71a50.17,50.17,0,0,1,.26,7.29,50.08,50.08,0,0,1-.26,7.28,51.84,51.84,0,0,1-.26-7.28A51.93,51.93,0,0,1,226.94,304.71Z" style="fill:#263238"></path><path d="M233.28,304.71a50.17,50.17,0,0,1,.26,7.29,50.08,50.08,0,0,1-.26,7.28A51.84,51.84,0,0,1,233,312,51.93,51.93,0,0,1,233.28,304.71Z" style="fill:#263238"></path><path d="M239.55,304.71a51.93,51.93,0,0,1,.26,7.29,51.84,51.84,0,0,1-.26,7.28,50.08,50.08,0,0,1-.26-7.28A50.17,50.17,0,0,1,239.55,304.71Z" style="fill:#263238"></path><path d="M245.78,304.71A51.93,51.93,0,0,1,246,312a51.84,51.84,0,0,1-.26,7.28,51.84,51.84,0,0,1-.26-7.28A51.93,51.93,0,0,1,245.78,304.71Z" style="fill:#263238"></path><path d="M252,304.71a50.17,50.17,0,0,1,.26,7.29,50.08,50.08,0,0,1-.26,7.28,51.84,51.84,0,0,1-.26-7.28A51.93,51.93,0,0,1,252,304.71Z" style="fill:#263238"></path><path d="M258.24,304.71a50.17,50.17,0,0,1,.26,7.29,50.08,50.08,0,0,1-.26,7.28A51.84,51.84,0,0,1,258,312,51.93,51.93,0,0,1,258.24,304.71Z" style="fill:#263238"></path><path d="M264.48,304.71a51.93,51.93,0,0,1,.26,7.29,51.84,51.84,0,0,1-.26,7.28,50.08,50.08,0,0,1-.26-7.28A50.17,50.17,0,0,1,264.48,304.71Z" style="fill:#263238"></path><path d="M270.71,304.71A51.93,51.93,0,0,1,271,312a51.84,51.84,0,0,1-.26,7.28,50.08,50.08,0,0,1-.26-7.28A50.17,50.17,0,0,1,270.71,304.71Z" style="fill:#263238"></path><path d="M276.94,304.71a51.93,51.93,0,0,1,.26,7.29,51.84,51.84,0,0,1-.26,7.28,51.84,51.84,0,0,1-.26-7.28A51.93,51.93,0,0,1,276.94,304.71Z" style="fill:#263238"></path><path d="M283.17,304.71a50.17,50.17,0,0,1,.26,7.29,50.08,50.08,0,0,1-.26,7.28,51.84,51.84,0,0,1-.26-7.28A51.93,51.93,0,0,1,283.17,304.71Z" style="fill:#263238"></path><path d="M289.4,304.71a50.17,50.17,0,0,1,.26,7.29,50.08,50.08,0,0,1-.26,7.28,51.84,51.84,0,0,1-.26-7.28A51.93,51.93,0,0,1,289.4,304.71Z" style="fill:#263238"></path><g style="opacity:0.30000000000000004"><path d="M223.65,304.48a228.61,228.61,0,0,0,66.18,0Z"></path></g><path d="M290.94,304.51c0,.14-15.28.26-34.13.26s-34.12-.12-34.12-.26,15.27-.26,34.12-.26S290.94,304.36,290.94,304.51Z" style="fill:#263238"></path><rect x="216.33" y="319.43" width="68.38" height="15.03" style="fill:#39C486"></rect><path d="M220.73,319.68A52,52,0,0,1,221,327a52,52,0,0,1-.26,7.29,50.28,50.28,0,0,1-.26-7.29A50.28,50.28,0,0,1,220.73,319.68Z" style="fill:#263238"></path><path d="M227.07,319.68a52,52,0,0,1,.26,7.29,52,52,0,0,1-.26,7.29,50.28,50.28,0,0,1-.26-7.29A50.28,50.28,0,0,1,227.07,319.68Z" style="fill:#263238"></path><path d="M233.33,319.68a50.28,50.28,0,0,1,.26,7.29,50.28,50.28,0,0,1-.26,7.29,52,52,0,0,1-.26-7.29A52,52,0,0,1,233.33,319.68Z" style="fill:#263238"></path><path d="M239.56,319.68a49.37,49.37,0,0,1,.27,7.29,49.37,49.37,0,0,1-.27,7.29,52,52,0,0,1-.26-7.29A52,52,0,0,1,239.56,319.68Z" style="fill:#263238"></path><path d="M245.8,319.68a52,52,0,0,1,.26,7.29,52,52,0,0,1-.26,7.29,50.28,50.28,0,0,1-.26-7.29A50.28,50.28,0,0,1,245.8,319.68Z" style="fill:#263238"></path><path d="M252,319.68a52,52,0,0,1,.26,7.29,52,52,0,0,1-.26,7.29,52,52,0,0,1-.26-7.29A52,52,0,0,1,252,319.68Z" style="fill:#263238"></path><path d="M258.26,319.68a52,52,0,0,1,.26,7.29,52,52,0,0,1-.26,7.29A52,52,0,0,1,258,327,52,52,0,0,1,258.26,319.68Z" style="fill:#263238"></path><path d="M264.49,319.68a50.28,50.28,0,0,1,.26,7.29,50.28,50.28,0,0,1-.26,7.29,52,52,0,0,1-.26-7.29A52,52,0,0,1,264.49,319.68Z" style="fill:#263238"></path><path d="M270.72,319.68A49.37,49.37,0,0,1,271,327a49.37,49.37,0,0,1-.27,7.29,52,52,0,0,1-.26-7.29A52,52,0,0,1,270.72,319.68Z" style="fill:#263238"></path><path d="M277,319.68a52,52,0,0,1,.26,7.29,52,52,0,0,1-.26,7.29,50.28,50.28,0,0,1-.26-7.29A50.28,50.28,0,0,1,277,319.68Z" style="fill:#263238"></path><path d="M283.19,319.68a52,52,0,0,1,.26,7.29,52,52,0,0,1-.26,7.29,50.28,50.28,0,0,1-.26-7.29A50.28,50.28,0,0,1,283.19,319.68Z" style="fill:#263238"></path><g style="opacity:0.30000000000000004"><path d="M217.43,319.45a229,229,0,0,0,66.18,0Z"></path></g><path d="M284.72,319.48c0,.14-15.28.26-34.12.26s-34.13-.12-34.13-.26,15.28-.26,34.13-.26S284.72,319.34,284.72,319.48Z" style="fill:#263238"></path><rect x="223.14" y="334.5" width="68.38" height="15.03" style="fill:#39C486"></rect><path d="M227.54,334.75a51.84,51.84,0,0,1,.26,7.28,51.93,51.93,0,0,1-.26,7.29,50.17,50.17,0,0,1-.26-7.29A50.08,50.08,0,0,1,227.54,334.75Z" style="fill:#263238"></path><path d="M233.88,334.75a51.84,51.84,0,0,1,.26,7.28,51.93,51.93,0,0,1-.26,7.29,50.17,50.17,0,0,1-.26-7.29A50.08,50.08,0,0,1,233.88,334.75Z" style="fill:#263238"></path><path d="M240.14,334.75a50.08,50.08,0,0,1,.26,7.28,50.17,50.17,0,0,1-.26,7.29,51.93,51.93,0,0,1-.26-7.29A51.84,51.84,0,0,1,240.14,334.75Z" style="fill:#263238"></path><path d="M246.37,334.75a50.08,50.08,0,0,1,.26,7.28,50.17,50.17,0,0,1-.26,7.29,51.93,51.93,0,0,1-.26-7.29A51.84,51.84,0,0,1,246.37,334.75Z" style="fill:#263238"></path><path d="M252.61,334.75a51.84,51.84,0,0,1,.26,7.28,51.93,51.93,0,0,1-.26,7.29,49.26,49.26,0,0,1-.27-7.29A49.17,49.17,0,0,1,252.61,334.75Z" style="fill:#263238"></path><path d="M258.84,334.75a51.84,51.84,0,0,1,.26,7.28,51.93,51.93,0,0,1-.26,7.29,50.17,50.17,0,0,1-.26-7.29A50.08,50.08,0,0,1,258.84,334.75Z" style="fill:#263238"></path><path d="M265.07,334.75a51.84,51.84,0,0,1,.26,7.28,51.93,51.93,0,0,1-.26,7.29,51.93,51.93,0,0,1-.26-7.29A51.84,51.84,0,0,1,265.07,334.75Z" style="fill:#263238"></path><path d="M271.3,334.75a51.84,51.84,0,0,1,.26,7.28,51.93,51.93,0,0,1-.26,7.29A51.93,51.93,0,0,1,271,342,51.84,51.84,0,0,1,271.3,334.75Z" style="fill:#263238"></path><path d="M277.53,334.75a50.08,50.08,0,0,1,.26,7.28,50.17,50.17,0,0,1-.26,7.29,51.93,51.93,0,0,1-.26-7.29A51.84,51.84,0,0,1,277.53,334.75Z" style="fill:#263238"></path><path d="M283.77,334.75A51.84,51.84,0,0,1,284,342a51.93,51.93,0,0,1-.26,7.29,49.26,49.26,0,0,1-.27-7.29A49.17,49.17,0,0,1,283.77,334.75Z" style="fill:#263238"></path><path d="M290,334.75a51.84,51.84,0,0,1,.26,7.28,51.93,51.93,0,0,1-.26,7.29,50.17,50.17,0,0,1-.26-7.29A50.08,50.08,0,0,1,290,334.75Z" style="fill:#263238"></path><g style="opacity:0.30000000000000004"><path d="M224.24,334.51a229,229,0,0,0,66.18,0Z"></path></g><path d="M291.53,334.54c0,.15-15.28.27-34.12.27s-34.13-.12-34.13-.27,15.28-.26,34.13-.26S291.53,334.4,291.53,334.54Z" style="fill:#263238"></path><rect x="214.85" y="259.31" width="68.38" height="15.03" style="fill:#39C486"></rect><path d="M219.24,259.56a50.08,50.08,0,0,1,.26,7.28,50.17,50.17,0,0,1-.26,7.29,51.93,51.93,0,0,1-.26-7.29A51.84,51.84,0,0,1,219.24,259.56Z" style="fill:#263238"></path><path d="M225.58,259.56a50.08,50.08,0,0,1,.26,7.28,50.17,50.17,0,0,1-.26,7.29,51.93,51.93,0,0,1-.26-7.29A51.84,51.84,0,0,1,225.58,259.56Z" style="fill:#263238"></path><path d="M231.85,259.56a51.84,51.84,0,0,1,.26,7.28,51.93,51.93,0,0,1-.26,7.29,50.17,50.17,0,0,1-.26-7.29A50.08,50.08,0,0,1,231.85,259.56Z" style="fill:#263238"></path><path d="M238.08,259.56a51.84,51.84,0,0,1,.26,7.28,51.93,51.93,0,0,1-.26,7.29,51.93,51.93,0,0,1-.26-7.29A51.84,51.84,0,0,1,238.08,259.56Z" style="fill:#263238"></path><path d="M244.31,259.56a50.08,50.08,0,0,1,.26,7.28,50.17,50.17,0,0,1-.26,7.29,51.93,51.93,0,0,1-.26-7.29A51.84,51.84,0,0,1,244.31,259.56Z" style="fill:#263238"></path><path d="M250.54,259.56a50.08,50.08,0,0,1,.26,7.28,50.17,50.17,0,0,1-.26,7.29,51.93,51.93,0,0,1-.26-7.29A51.84,51.84,0,0,1,250.54,259.56Z" style="fill:#263238"></path><path d="M256.78,259.56a51.84,51.84,0,0,1,.26,7.28,51.93,51.93,0,0,1-.26,7.29,50.17,50.17,0,0,1-.26-7.29A50.08,50.08,0,0,1,256.78,259.56Z" style="fill:#263238"></path><path d="M263,259.56a51.84,51.84,0,0,1,.26,7.28,51.93,51.93,0,0,1-.26,7.29,50.17,50.17,0,0,1-.26-7.29A50.08,50.08,0,0,1,263,259.56Z" style="fill:#263238"></path><path d="M269.24,259.56a51.84,51.84,0,0,1,.26,7.28,51.93,51.93,0,0,1-.26,7.29,51.93,51.93,0,0,1-.26-7.29A51.84,51.84,0,0,1,269.24,259.56Z" style="fill:#263238"></path><path d="M275.47,259.56a50.08,50.08,0,0,1,.26,7.28,50.17,50.17,0,0,1-.26,7.29,51.93,51.93,0,0,1-.26-7.29A51.84,51.84,0,0,1,275.47,259.56Z" style="fill:#263238"></path><path d="M281.7,259.56a50.08,50.08,0,0,1,.26,7.28,50.17,50.17,0,0,1-.26,7.29,51.93,51.93,0,0,1-.26-7.29A51.84,51.84,0,0,1,281.7,259.56Z" style="fill:#263238"></path><g style="opacity:0.30000000000000004"><path d="M216,259.32a229,229,0,0,0,66.18,0Z"></path></g><path d="M283.24,259.35c0,.15-15.28.26-34.13.26S215,259.5,215,259.35s15.27-.26,34.12-.26S283.24,259.21,283.24,259.35Z" style="fill:#263238"></path><rect x="221.66" y="274.37" width="68.38" height="15.03" style="fill:#39C486"></rect><path d="M226.05,274.62a50.17,50.17,0,0,1,.26,7.29,50.08,50.08,0,0,1-.26,7.28,51.84,51.84,0,0,1-.26-7.28A51.93,51.93,0,0,1,226.05,274.62Z" style="fill:#263238"></path><path d="M232.39,274.62a51.93,51.93,0,0,1,.26,7.29,51.84,51.84,0,0,1-.26,7.28,51.84,51.84,0,0,1-.26-7.28A51.93,51.93,0,0,1,232.39,274.62Z" style="fill:#263238"></path><path d="M238.66,274.62a51.93,51.93,0,0,1,.26,7.29,51.84,51.84,0,0,1-.26,7.28,50.08,50.08,0,0,1-.26-7.28A50.17,50.17,0,0,1,238.66,274.62Z" style="fill:#263238"></path><path d="M244.89,274.62a51.93,51.93,0,0,1,.26,7.29,51.84,51.84,0,0,1-.26,7.28,51.84,51.84,0,0,1-.26-7.28A51.93,51.93,0,0,1,244.89,274.62Z" style="fill:#263238"></path><path d="M251.12,274.62a51.93,51.93,0,0,1,.26,7.29,51.84,51.84,0,0,1-.26,7.28,51.84,51.84,0,0,1-.26-7.28A51.93,51.93,0,0,1,251.12,274.62Z" style="fill:#263238"></path><path d="M257.35,274.62a50.17,50.17,0,0,1,.26,7.29,50.08,50.08,0,0,1-.26,7.28,51.84,51.84,0,0,1-.26-7.28A51.93,51.93,0,0,1,257.35,274.62Z" style="fill:#263238"></path><path d="M263.58,274.62a49.26,49.26,0,0,1,.27,7.29,49.17,49.17,0,0,1-.27,7.28,51.84,51.84,0,0,1-.26-7.28A51.93,51.93,0,0,1,263.58,274.62Z" style="fill:#263238"></path><path d="M269.82,274.62a51.93,51.93,0,0,1,.26,7.29,51.84,51.84,0,0,1-.26,7.28,50.08,50.08,0,0,1-.26-7.28A50.17,50.17,0,0,1,269.82,274.62Z" style="fill:#263238"></path><path d="M276.05,274.62a51.93,51.93,0,0,1,.26,7.29,51.84,51.84,0,0,1-.26,7.28,50.08,50.08,0,0,1-.26-7.28A50.17,50.17,0,0,1,276.05,274.62Z" style="fill:#263238"></path><path d="M282.28,274.62a51.93,51.93,0,0,1,.26,7.29,51.84,51.84,0,0,1-.26,7.28,51.84,51.84,0,0,1-.26-7.28A51.93,51.93,0,0,1,282.28,274.62Z" style="fill:#263238"></path><path d="M288.51,274.62a50.17,50.17,0,0,1,.26,7.29,50.08,50.08,0,0,1-.26,7.28,51.84,51.84,0,0,1-.26-7.28A51.93,51.93,0,0,1,288.51,274.62Z" style="fill:#263238"></path><g style="opacity:0.30000000000000004"><path d="M222.76,274.39a228.61,228.61,0,0,0,66.18,0Z"></path></g><path d="M290.05,274.42c0,.14-15.28.26-34.13.26s-34.13-.12-34.13-.26,15.28-.26,34.13-.26S290.05,274.27,290.05,274.42Z" style="fill:#263238"></path><rect x="219.23" y="349.44" width="68.38" height="15.03" style="fill:#39C486"></rect><path d="M223.62,349.69a50.28,50.28,0,0,1,.26,7.29,50.28,50.28,0,0,1-.26,7.29,52,52,0,0,1-.26-7.29A52,52,0,0,1,223.62,349.69Z" style="fill:#263238"></path><path d="M230,349.69a50.28,50.28,0,0,1,.26,7.29,50.28,50.28,0,0,1-.26,7.29,52,52,0,0,1-.26-7.29A52,52,0,0,1,230,349.69Z" style="fill:#263238"></path><path d="M236.23,349.69a52,52,0,0,1,.26,7.29,52,52,0,0,1-.26,7.29A50.28,50.28,0,0,1,236,357,50.28,50.28,0,0,1,236.23,349.69Z" style="fill:#263238"></path><path d="M242.46,349.69a52,52,0,0,1,.26,7.29,52,52,0,0,1-.26,7.29,52,52,0,0,1-.26-7.29A52,52,0,0,1,242.46,349.69Z" style="fill:#263238"></path><path d="M248.69,349.69A50.28,50.28,0,0,1,249,357a50.28,50.28,0,0,1-.26,7.29,52,52,0,0,1-.26-7.29A52,52,0,0,1,248.69,349.69Z" style="fill:#263238"></path><path d="M254.92,349.69a50.28,50.28,0,0,1,.26,7.29,50.28,50.28,0,0,1-.26,7.29,52,52,0,0,1-.26-7.29A52,52,0,0,1,254.92,349.69Z" style="fill:#263238"></path><path d="M261.16,349.69a52,52,0,0,1,.26,7.29,52,52,0,0,1-.26,7.29,50.28,50.28,0,0,1-.26-7.29A50.28,50.28,0,0,1,261.16,349.69Z" style="fill:#263238"></path><path d="M267.39,349.69a52,52,0,0,1,.26,7.29,52,52,0,0,1-.26,7.29,50.28,50.28,0,0,1-.26-7.29A50.28,50.28,0,0,1,267.39,349.69Z" style="fill:#263238"></path><path d="M273.62,349.69a52,52,0,0,1,.26,7.29,52,52,0,0,1-.26,7.29,52,52,0,0,1-.26-7.29A52,52,0,0,1,273.62,349.69Z" style="fill:#263238"></path><path d="M279.85,349.69a50.28,50.28,0,0,1,.26,7.29,50.28,50.28,0,0,1-.26,7.29,52,52,0,0,1-.26-7.29A52,52,0,0,1,279.85,349.69Z" style="fill:#263238"></path><path d="M286.08,349.69a50.28,50.28,0,0,1,.26,7.29,50.28,50.28,0,0,1-.26,7.29,52,52,0,0,1-.26-7.29A52,52,0,0,1,286.08,349.69Z" style="fill:#263238"></path><g style="opacity:0.30000000000000004"><path d="M220.33,349.46a162.66,162.66,0,0,0,66.18,0Z"></path></g><path d="M287.62,349.49c0,.14-15.28.26-34.13.26s-34.12-.12-34.12-.26,15.27-.26,34.12-.26S287.62,349.35,287.62,349.49Z" style="fill:#263238"></path><rect x="214.83" y="364.48" width="68.38" height="15.03" style="fill:#39C486"></rect><path d="M219.23,364.73a102.19,102.19,0,0,1,0,14.57,102.19,102.19,0,0,1,0-14.57Z" style="fill:#263238"></path><path d="M225.57,364.73a102.19,102.19,0,0,1,0,14.57,102.19,102.19,0,0,1,0-14.57Z" style="fill:#263238"></path><path d="M231.83,364.73a102.19,102.19,0,0,1,0,14.57,102.19,102.19,0,0,1,0-14.57Z" style="fill:#263238"></path><path d="M238.06,364.73a102.19,102.19,0,0,1,0,14.57,102.19,102.19,0,0,1,0-14.57Z" style="fill:#263238"></path><path d="M244.3,364.73a102.19,102.19,0,0,1,0,14.57,102.19,102.19,0,0,1,0-14.57Z" style="fill:#263238"></path><path d="M250.53,364.73a102.19,102.19,0,0,1,0,14.57,102.19,102.19,0,0,1,0-14.57Z" style="fill:#263238"></path><path d="M256.76,364.73a102.19,102.19,0,0,1,0,14.57,102.19,102.19,0,0,1,0-14.57Z" style="fill:#263238"></path><path d="M263,364.73a102.19,102.19,0,0,1,0,14.57,102.19,102.19,0,0,1,0-14.57Z" style="fill:#263238"></path><path d="M269.22,364.73a102.19,102.19,0,0,1,0,14.57,102.19,102.19,0,0,1,0-14.57Z" style="fill:#263238"></path><path d="M275.46,364.73a102.19,102.19,0,0,1,0,14.57,102.19,102.19,0,0,1,0-14.57Z" style="fill:#263238"></path><path d="M281.69,364.73a102.19,102.19,0,0,1,0,14.57,102.19,102.19,0,0,1,0-14.57Z" style="fill:#263238"></path><g style="opacity:0.30000000000000004"><path d="M215.93,364.5a228.61,228.61,0,0,0,66.18,0Z"></path></g><path d="M283.22,364.53c0,.14-15.28.26-34.12.26s-34.13-.12-34.13-.26,15.28-.26,34.13-.26S283.22,364.38,283.22,364.53Z" style="fill:#263238"></path><rect x="210.47" y="379.4" width="68.38" height="15.03" style="fill:#39C486"></rect><path d="M214.86,379.65a102.33,102.33,0,0,1,0,14.58,102.33,102.33,0,0,1,0-14.58Z" style="fill:#263238"></path><path d="M221.2,379.65a102.33,102.33,0,0,1,0,14.58,102.33,102.33,0,0,1,0-14.58Z" style="fill:#263238"></path><path d="M227.47,379.65a102.33,102.33,0,0,1,0,14.58,102.33,102.33,0,0,1,0-14.58Z" style="fill:#263238"></path><path d="M233.7,379.65a102.33,102.33,0,0,1,0,14.58,102.33,102.33,0,0,1,0-14.58Z" style="fill:#263238"></path><path d="M239.93,379.65a102.33,102.33,0,0,1,0,14.58,102.33,102.33,0,0,1,0-14.58Z" style="fill:#263238"></path><path d="M246.16,379.65a98.55,98.55,0,0,1,0,14.58,102.33,102.33,0,0,1,0-14.58Z" style="fill:#263238"></path><path d="M252.4,379.65a102.33,102.33,0,0,1,0,14.58,102.33,102.33,0,0,1,0-14.58Z" style="fill:#263238"></path><path d="M258.63,379.65a102.33,102.33,0,0,1,0,14.58,102.33,102.33,0,0,1,0-14.58Z" style="fill:#263238"></path><path d="M264.86,379.65a102.33,102.33,0,0,1,0,14.58,102.33,102.33,0,0,1,0-14.58Z" style="fill:#263238"></path><path d="M271.09,379.65a102.33,102.33,0,0,1,0,14.58,102.33,102.33,0,0,1,0-14.58Z" style="fill:#263238"></path><path d="M277.32,379.65a98.55,98.55,0,0,1,0,14.58,102.33,102.33,0,0,1,0-14.58Z" style="fill:#263238"></path><g style="opacity:0.30000000000000004"><path d="M211.57,379.42a229,229,0,0,0,66.18,0Z"></path></g><path d="M278.86,379.45c0,.14-15.28.26-34.13.26s-34.12-.12-34.12-.26,15.27-.26,34.12-.26S278.86,379.31,278.86,379.45Z" style="fill:#263238"></path><rect x="215.42" y="394.52" width="68.38" height="15.03" style="fill:#39C486"></rect><path d="M219.82,394.77a102.19,102.19,0,0,1,0,14.57,102.19,102.19,0,0,1,0-14.57Z" style="fill:#263238"></path><path d="M226.16,394.77a102.19,102.19,0,0,1,0,14.57,102.19,102.19,0,0,1,0-14.57Z" style="fill:#263238"></path><path d="M232.42,394.77a98.42,98.42,0,0,1,0,14.57,102.19,102.19,0,0,1,0-14.57Z" style="fill:#263238"></path><path d="M238.66,394.77a102.19,102.19,0,0,1,0,14.57,102.19,102.19,0,0,1,0-14.57Z" style="fill:#263238"></path><path d="M244.89,394.77a102.19,102.19,0,0,1,0,14.57,102.19,102.19,0,0,1,0-14.57Z" style="fill:#263238"></path><path d="M251.12,394.77a102.19,102.19,0,0,1,0,14.57,102.19,102.19,0,0,1,0-14.57Z" style="fill:#263238"></path><path d="M257.35,394.77a102.19,102.19,0,0,1,0,14.57,102.19,102.19,0,0,1,0-14.57Z" style="fill:#263238"></path><path d="M263.58,394.77a98.42,98.42,0,0,1,0,14.57,102.19,102.19,0,0,1,0-14.57Z" style="fill:#263238"></path><path d="M269.82,394.77a102.19,102.19,0,0,1,0,14.57,102.19,102.19,0,0,1,0-14.57Z" style="fill:#263238"></path><path d="M276.05,394.77a102.19,102.19,0,0,1,0,14.57,102.19,102.19,0,0,1,0-14.57Z" style="fill:#263238"></path><path d="M282.28,394.77a102.19,102.19,0,0,1,0,14.57,102.19,102.19,0,0,1,0-14.57Z" style="fill:#263238"></path><g style="opacity:0.30000000000000004"><path d="M216.52,394.53a229,229,0,0,0,66.19,0Z"></path></g><path d="M283.82,394.56c0,.15-15.28.26-34.13.26s-34.13-.11-34.13-.26,15.28-.26,34.13-.26S283.82,394.42,283.82,394.56Z" style="fill:#263238"></path><rect x="216.96" y="409.29" width="68.38" height="15.03" style="fill:#39C486"></rect><path d="M221.36,409.54a102.33,102.33,0,0,1,0,14.58,98.55,98.55,0,0,1,0-14.58Z" style="fill:#263238"></path><path d="M227.69,409.54a98.55,98.55,0,0,1,0,14.58,102.33,102.33,0,0,1,0-14.58Z" style="fill:#263238"></path><path d="M234,409.54a102.33,102.33,0,0,1,0,14.58,102.33,102.33,0,0,1,0-14.58Z" style="fill:#263238"></path><path d="M240.19,409.54a102.33,102.33,0,0,1,0,14.58,102.33,102.33,0,0,1,0-14.58Z" style="fill:#263238"></path><path d="M246.42,409.54a102.33,102.33,0,0,1,0,14.58,102.33,102.33,0,0,1,0-14.58Z" style="fill:#263238"></path><path d="M252.66,409.54a102.33,102.33,0,0,1,0,14.58,102.33,102.33,0,0,1,0-14.58Z" style="fill:#263238"></path><path d="M258.89,409.54a102.33,102.33,0,0,1,0,14.58,102.33,102.33,0,0,1,0-14.58Z" style="fill:#263238"></path><path d="M265.12,409.54a102.33,102.33,0,0,1,0,14.58,102.33,102.33,0,0,1,0-14.58Z" style="fill:#263238"></path><path d="M271.35,409.54a102.33,102.33,0,0,1,0,14.58,102.33,102.33,0,0,1,0-14.58Z" style="fill:#263238"></path><path d="M277.58,409.54a102.33,102.33,0,0,1,0,14.58,102.33,102.33,0,0,1,0-14.58Z" style="fill:#263238"></path><path d="M283.82,409.54a102.33,102.33,0,0,1,0,14.58,102.33,102.33,0,0,1,0-14.58Z" style="fill:#263238"></path><g style="opacity:0.30000000000000004"><path d="M218.06,409.31a229,229,0,0,0,66.18,0Z"></path></g><path d="M285.35,409.34c0,.14-15.28.26-34.12.26s-34.13-.12-34.13-.26,15.28-.26,34.13-.26S285.35,409.2,285.35,409.34Z" style="fill:#263238"></path><rect x="210.47" y="423.84" width="68.38" height="15.03" style="fill:#39C486"></rect><path d="M214.86,424.09a102.19,102.19,0,0,1,0,14.57,102.19,102.19,0,0,1,0-14.57Z" style="fill:#263238"></path><path d="M221.2,424.09a102.19,102.19,0,0,1,0,14.57,102.19,102.19,0,0,1,0-14.57Z" style="fill:#263238"></path><path d="M227.47,424.09a102.19,102.19,0,0,1,0,14.57,102.19,102.19,0,0,1,0-14.57Z" style="fill:#263238"></path><path d="M233.7,424.09a102.19,102.19,0,0,1,0,14.57,102.19,102.19,0,0,1,0-14.57Z" style="fill:#263238"></path><path d="M239.93,424.09a102.19,102.19,0,0,1,0,14.57,102.19,102.19,0,0,1,0-14.57Z" style="fill:#263238"></path><path d="M246.16,424.09a98.42,98.42,0,0,1,0,14.57,102.19,102.19,0,0,1,0-14.57Z" style="fill:#263238"></path><path d="M252.4,424.09a102.19,102.19,0,0,1,0,14.57,102.19,102.19,0,0,1,0-14.57Z" style="fill:#263238"></path><path d="M258.63,424.09a102.19,102.19,0,0,1,0,14.57,102.19,102.19,0,0,1,0-14.57Z" style="fill:#263238"></path><path d="M264.86,424.09a102.19,102.19,0,0,1,0,14.57,102.19,102.19,0,0,1,0-14.57Z" style="fill:#263238"></path><path d="M271.09,424.09a102.19,102.19,0,0,1,0,14.57,102.19,102.19,0,0,1,0-14.57Z" style="fill:#263238"></path><path d="M277.32,424.09a98.42,98.42,0,0,1,0,14.57,102.19,102.19,0,0,1,0-14.57Z" style="fill:#263238"></path><g style="opacity:0.30000000000000004"><path d="M211.57,423.85a229,229,0,0,0,66.18,0Z"></path></g><path d="M278.86,423.88c0,.15-15.28.26-34.13.26s-34.12-.11-34.12-.26,15.27-.26,34.12-.26S278.86,423.74,278.86,423.88Z" style="fill:#263238"></path><rect x="218.48" y="438.75" width="68.38" height="14.45" style="fill:#39C486"></rect><path d="M222.87,439a94.63,94.63,0,0,1,0,14,94.63,94.63,0,0,1,0-14Z" style="fill:#263238"></path><path d="M229.21,439a94.63,94.63,0,0,1,0,14,94.63,94.63,0,0,1,0-14Z" style="fill:#263238"></path><path d="M235.48,439a94.63,94.63,0,0,1,0,14,94.63,94.63,0,0,1,0-14Z" style="fill:#263238"></path><path d="M241.71,439a94.63,94.63,0,0,1,0,14,94.63,94.63,0,0,1,0-14Z" style="fill:#263238"></path><path d="M247.94,439a94.63,94.63,0,0,1,0,14,94.63,94.63,0,0,1,0-14Z" style="fill:#263238"></path><path d="M254.17,439a91.14,91.14,0,0,1,0,14,94.63,94.63,0,0,1,0-14Z" style="fill:#263238"></path><path d="M260.41,439a94.63,94.63,0,0,1,0,14,94.63,94.63,0,0,1,0-14Z" style="fill:#263238"></path><path d="M266.64,439a94.63,94.63,0,0,1,0,14,94.63,94.63,0,0,1,0-14Z" style="fill:#263238"></path><path d="M272.87,439a94.63,94.63,0,0,1,0,14,94.63,94.63,0,0,1,0-14Z" style="fill:#263238"></path><path d="M279.1,439a94.63,94.63,0,0,1,0,14,94.63,94.63,0,0,1,0-14Z" style="fill:#263238"></path><path d="M285.33,439a94.63,94.63,0,0,1,0,14,94.63,94.63,0,0,1,0-14Z" style="fill:#263238"></path><g style="opacity:0.30000000000000004"><path d="M219.58,438.77a180,180,0,0,0,66.18,0Z"></path></g><path d="M286.87,438.8c0,.14-15.28.26-34.13.26s-34.12-.12-34.12-.26,15.27-.26,34.12-.26S286.87,438.65,286.87,438.8Z" style="fill:#263238"></path><rect x="214.08" y="453.21" width="68.38" height="14.45" style="fill:#39C486"></rect><path d="M218.48,453.45a94.63,94.63,0,0,1,0,14,94.63,94.63,0,0,1,0-14Z" style="fill:#263238"></path><path d="M224.82,453.45a94.63,94.63,0,0,1,0,14,94.63,94.63,0,0,1,0-14Z" style="fill:#263238"></path><path d="M231.08,453.45a94.63,94.63,0,0,1,0,14,94.63,94.63,0,0,1,0-14Z" style="fill:#263238"></path><path d="M237.31,453.45a94.63,94.63,0,0,1,0,14,94.63,94.63,0,0,1,0-14Z" style="fill:#263238"></path><path d="M243.55,453.45a94.63,94.63,0,0,1,0,14,94.63,94.63,0,0,1,0-14Z" style="fill:#263238"></path><path d="M249.78,453.45a94.63,94.63,0,0,1,0,14,94.63,94.63,0,0,1,0-14Z" style="fill:#263238"></path><path d="M256,453.45a94.63,94.63,0,0,1,0,14,94.63,94.63,0,0,1,0-14Z" style="fill:#263238"></path><path d="M262.24,453.45a94.63,94.63,0,0,1,0,14,94.63,94.63,0,0,1,0-14Z" style="fill:#263238"></path><path d="M268.47,453.45a94.63,94.63,0,0,1,0,14,94.63,94.63,0,0,1,0-14Z" style="fill:#263238"></path><path d="M274.71,453.45a94.63,94.63,0,0,1,0,14,94.63,94.63,0,0,1,0-14Z" style="fill:#263238"></path><path d="M280.94,453.45a94.63,94.63,0,0,1,0,14,94.63,94.63,0,0,1,0-14Z" style="fill:#263238"></path><g style="opacity:0.30000000000000004"><path d="M215.18,453.23a159.06,159.06,0,0,0,66.18,0Z"></path></g><path d="M282.47,453.26c0,.14-15.28.26-34.12.26s-34.13-.12-34.13-.26,15.28-.26,34.13-.26S282.47,453.12,282.47,453.26Z" style="fill:#263238"></path><rect x="217.99" y="467.47" width="68.38" height="14.45" style="fill:#39C486"></rect><path d="M222.38,467.71a94.5,94.5,0,0,1,0,14,94.5,94.5,0,0,1,0-14Z" style="fill:#263238"></path><path d="M228.72,467.71a94.5,94.5,0,0,1,0,14,94.5,94.5,0,0,1,0-14Z" style="fill:#263238"></path><path d="M235,467.71a94.5,94.5,0,0,1,0,14,94.5,94.5,0,0,1,0-14Z" style="fill:#263238"></path><path d="M241.22,467.71a94.5,94.5,0,0,1,0,14,94.5,94.5,0,0,1,0-14Z" style="fill:#263238"></path><path d="M247.45,467.71a94.5,94.5,0,0,1,0,14,94.5,94.5,0,0,1,0-14Z" style="fill:#263238"></path><path d="M253.68,467.71a91,91,0,0,1,0,14,94.5,94.5,0,0,1,0-14Z" style="fill:#263238"></path><path d="M259.92,467.71a94.5,94.5,0,0,1,0,14,94.5,94.5,0,0,1,0-14Z" style="fill:#263238"></path><path d="M266.15,467.71a94.5,94.5,0,0,1,0,14,94.5,94.5,0,0,1,0-14Z" style="fill:#263238"></path><path d="M272.38,467.71a94.5,94.5,0,0,1,0,14,94.5,94.5,0,0,1,0-14Z" style="fill:#263238"></path><path d="M278.61,467.71a94.5,94.5,0,0,1,0,14,94.5,94.5,0,0,1,0-14Z" style="fill:#263238"></path><path d="M284.84,467.71a94.5,94.5,0,0,1,0,14,94.5,94.5,0,0,1,0-14Z" style="fill:#263238"></path><g style="opacity:0.30000000000000004"><path d="M219.09,467.48a179.58,179.58,0,0,0,66.18,0Z"></path></g><path d="M286.38,467.51c0,.15-15.28.26-34.13.26s-34.12-.11-34.12-.26,15.27-.26,34.12-.26S286.38,467.37,286.38,467.51Z" style="fill:#263238"></path><path d="M216.73,405.94a39.33,39.33,0,0,1,0-9,39.33,39.33,0,0,1,0,9Z" style="fill:#fff"></path><path d="M211.85,391.66a48.59,48.59,0,0,1,0-10,48.59,48.59,0,0,1,0,10Z" style="fill:#fff"></path><path d="M216.18,379.05a83.52,83.52,0,0,1,0-13.17,83.52,83.52,0,0,1,0,13.17Z" style="fill:#fff"></path><path d="M220.23,362a56.94,56.94,0,0,1,0-10.87,56.94,56.94,0,0,1,0,10.87Z" style="fill:#fff"></path><path d="M224.19,344.51a29.61,29.61,0,0,1,0-7.83,29.61,29.61,0,0,1,0,7.83Z" style="fill:#fff"></path><path d="M217.61,332.52a70.17,70.17,0,0,1,0-12.07,70.17,70.17,0,0,1,0,12.07Z" style="fill:#fff"></path><path d="M223.73,314.5a30.06,30.06,0,0,1,0-7.89,30.06,30.06,0,0,1,0,7.89Z" style="fill:#fff"></path><path d="M218.26,419.73a20.24,20.24,0,0,1,0-6.59,21,21,0,0,1,0,6.59Z" style="fill:#fff"></path><path d="M212.14,434.7a37.79,37.79,0,0,1,0-8.85,37.79,37.79,0,0,1,0,8.85Z" style="fill:#fff"></path><path d="M220,447.73a18.39,18.39,0,0,1,0-6.28,19.09,19.09,0,0,1,0,6.28Z" style="fill:#fff"></path><path d="M216.52,271.37a37.79,37.79,0,0,1,0-8.85,37.79,37.79,0,0,1,0,8.85Z" style="fill:#fff"></path><path d="M295.78,64.87a26.83,26.83,0,0,1-2.69,7.83,13.63,13.63,0,0,0-1,4l-.33,1.6-4.44,7.79,4.17,5.31c-.08-.11,4.59-10.34,4.59-10.34a52.53,52.53,0,0,0,4.79-3.2,2.08,2.08,0,0,0,0-.91c-.73-1.51-3.85-5.35-3.75-6.95.14-2.17.12-5-.91-5.17Z" style="fill:#efbf9d"></path><path d="M296.32,71.65a4.23,4.23,0,0,1,.34,2.7,4.14,4.14,0,0,1-1.14,2.48,11.57,11.57,0,0,0,.84-2.52A11.53,11.53,0,0,0,296.32,71.65Z" style="fill:#e89a6c"></path><path d="M290,78.9l-7.41,10.2-5.35-11.86c-2.9-9.41-4.33-9.5-4.33-9.5L267.81,83s4.89,9.56,7.51,14.35c3.1,5.68,10,5,12.34,1.85,2.1-2.85,8.55-14.63,8.55-14.63Z" style="fill:#455a64"></path><path d="M282,97a4,4,0,0,1-.3-1.17,13.33,13.33,0,0,1-.13-2.89,12.16,12.16,0,0,1,.48-2.86,3.24,3.24,0,0,1,.47-1.11,7.82,7.82,0,0,1-.27,1.16,17.39,17.39,0,0,0-.39,2.83A33.25,33.25,0,0,0,282,97Z" style="fill:#263238"></path><path d="M347,62.52c-6.14.13-9.87-5.51-10.68-10.19-.74-4.32-.78-8.72-2.08-12.91-1.81-5.86-8.21-9.31-14.33-9.61s-12.63,1.92-18.37,4.08l-3,33.4s13.33-10.87,19-10.34c9.4.87,6.84,16.17,15.62,19.65,0,0,12.27,5.15,22.36-4.82a31.52,31.52,0,0,0,8-14.83S358.57,62.29,347,62.52Z" style="fill:#39C486"></path><g style="opacity:0.2"><path d="M331.88,49.4A41,41,0,0,0,335,60a12.37,12.37,0,0,0,6.76,6.65,7.16,7.16,0,0,1,1.62.66,1.65,1.65,0,0,1,.83,1.45c-.09.88-1.07,1.33-1.9,1.61a13.52,13.52,0,0,1-3.63.86c-1.25.07-2.22.07-2.93-1a17.4,17.4,0,0,1-1.83-2.89c-2.12-5-2.58-11.91-2.1-17.23"></path></g><path d="M337.17,71.81a1.39,1.39,0,0,1-.25-.19,8.57,8.57,0,0,1-.65-.63,12.8,12.8,0,0,1-1.9-2.7,18.85,18.85,0,0,1-1.64-4.61,47.58,47.58,0,0,1-.88-5.93,64.53,64.53,0,0,1-.11-10.87c.11-1.38.24-2.5.35-3.27.05-.36.1-.65.13-.89a1.48,1.48,0,0,1,.07-.3,1,1,0,0,1,0,.31c0,.24,0,.53-.08.89-.07.78-.17,1.89-.25,3.28a71.23,71.23,0,0,0,.2,10.82,50.66,50.66,0,0,0,.85,5.9,19.64,19.64,0,0,0,1.56,4.57,13.62,13.62,0,0,0,1.8,2.73C336.86,71.5,337.18,71.79,337.17,71.81Z" style="fill:#263238"></path><rect x="193.96" y="130.8" width="198.65" height="0.75" transform="translate(137.78 412.32) rotate(-85.15)" style="fill:#263238"></rect><path d="M300.57,76.86s-1.68,1.1-2.4.72a1,1,0,0,1-.24-1.62.8.8,0,0,1-1.23-.26,1.48,1.48,0,0,1,.3-1.6s-.45-.06-.42-.91a2.54,2.54,0,0,1,1-1.58,1.9,1.9,0,0,1,0-1.91,3.84,3.84,0,0,1,2.7-1.51c.08,0,1.13,0,1.13.9s-.24,1.19-.24,1.19.83.47.06,2.09c0,0,1,.69.12,2.14a5.6,5.6,0,0,1,.16,2.51,3,3,0,0,1-1,1.18" style="fill:#efbf9d"></path><path d="M300.55,78.2a5.86,5.86,0,0,0,.72-.81c.48-.56.31-1.65,0-2.85v0l0,0a2.21,2.21,0,0,0,.34-1,1.2,1.2,0,0,0-.44-1l-.08-.06,0-.1a3.07,3.07,0,0,0,.3-1,1,1,0,0,0-.31-.92l-.12-.08.08-.13a2.24,2.24,0,0,0,.19-1,.78.78,0,0,0-.13-.49.82.82,0,0,0-.45-.26,1.35,1.35,0,0,0-.28,0h-.17a.28.28,0,0,0-.13,0,2.48,2.48,0,0,0-.58.15,4.45,4.45,0,0,0-1.12.59,2.2,2.2,0,0,0-.89,1.12,1.88,1.88,0,0,0,.16,1.34l.06.11-.09.08a2.67,2.67,0,0,0-.89,1.13c-.14.39-.06,1,.24,1.11l.22.06-.14.16a1.31,1.31,0,0,0-.31,1.41.69.69,0,0,0,.47.43.87.87,0,0,0,.6-.16l.59-.39L298,76a1.12,1.12,0,0,0-.27.83.87.87,0,0,0,.45.63,1.09,1.09,0,0,0,.69.06,4.24,4.24,0,0,0,.6-.19c.71-.28,1.07-.52,1.09-.5a1.11,1.11,0,0,1-.25.19,7.08,7.08,0,0,1-.79.43,4.08,4.08,0,0,1-.62.21,1.15,1.15,0,0,1-.81,0,1,1,0,0,1-.55-.75,1.29,1.29,0,0,1,.29-1l.15.16a1.13,1.13,0,0,1-.77.21.9.9,0,0,1-.65-.56,1.32,1.32,0,0,1-.09-.88,1.78,1.78,0,0,1,.43-.81l.07.22a.74.74,0,0,1-.51-.65,1.56,1.56,0,0,1,0-.8,2.8,2.8,0,0,1,1-1.28l0,.19a2.09,2.09,0,0,1-.2-1.57,2.5,2.5,0,0,1,1-1.28,4.69,4.69,0,0,1,1.19-.63,2.77,2.77,0,0,1,.66-.16h.34a1.26,1.26,0,0,1,.33,0,1,1,0,0,1,.8,1c0,.21,0,.41-.05.62a1.46,1.46,0,0,1-.22.61l0-.21a1.23,1.23,0,0,1,.44,1.18,3.11,3.11,0,0,1-.34,1.08l0-.16a1.42,1.42,0,0,1,.53,1.21,2.3,2.3,0,0,1-.39,1.1v-.08a8,8,0,0,1,.25,1.71,2.42,2.42,0,0,1-.07.72,2.38,2.38,0,0,1-.29.53,2.94,2.94,0,0,1-.57.59A.91.91,0,0,1,300.55,78.2Z" style="fill:#e89a6c"></path><path d="M297.62,76.33a4,4,0,0,1,1.72-1.73,3,3,0,0,1,.9-.37,1.41,1.41,0,0,1,.83.08c.45.21.51.56.47.56s-.16-.24-.55-.37a1.87,1.87,0,0,0-1.5.36A16.57,16.57,0,0,0,297.62,76.33Z" style="fill:#e89a6c"></path><path d="M297,74.1s.14-.25.48-.53a8.88,8.88,0,0,1,1.46-.92,3,3,0,0,1,1.69-.45c.45,0,.7.18.69.21s-.28,0-.7,0a3.39,3.39,0,0,0-1.54.5c-.59.31-1.11.59-1.47.83S297,74.13,297,74.1Z" style="fill:#e89a6c"></path><path d="M297.27,71.89A4,4,0,0,1,299,70.4a2.46,2.46,0,0,1,1.61-.33c.42.08.63.25.62.28a5.8,5.8,0,0,1-.65-.07,2.72,2.72,0,0,0-1.44.38C298,71.24,297.33,71.94,297.27,71.89Z" style="fill:#e89a6c"></path><path d="M264.44,213.33l-.61,11.2S275,228.92,275.1,231l-21.76-.41.24-17.49Z" style="fill:#263238"></path><path d="M257.12,223.46a.9.9,0,0,0-.64,1,.86.86,0,0,0,1,.64.94.94,0,0,0,.67-1.07.88.88,0,0,0-1.1-.54" style="fill:#e0e0e0"></path><path d="M253.34,230.59l.09-1.76,20.83,1s1,.44.84,1.12Z" style="fill:#455a64"></path><path d="M264.18,224.43c0,.1-.53.14-1.06.47s-.82.78-.92.73.08-.65.73-1S264.21,224.33,264.18,224.43Z" style="fill:#fff"></path><path d="M266.45,225.41c0,.11-.44.28-.81.72s-.48.92-.59.91-.16-.61.31-1.15S266.45,225.31,266.45,225.41Z" style="fill:#fff"></path><path d="M267.69,228.17c-.09,0-.23-.51.05-1.09s.79-.8.83-.71-.27.4-.49.87S267.8,228.16,267.69,228.17Z" style="fill:#fff"></path><path d="M264,221.86c-.05.09-.53-.06-1.13,0s-1.07.21-1.13.12.41-.47,1.11-.49S264.09,221.78,264,221.86Z" style="fill:#fff"></path><path d="M229.23,212.45,229,223.67s-11.48,3.52-11.73,5.59L239,230.51l1.09-17.46Z" style="fill:#263238"></path><path d="M235.76,223.11a.88.88,0,0,1,.55,1,.85.85,0,0,1-1,.56.93.93,0,0,1-.58-1.11.89.89,0,0,1,1.14-.47" style="fill:#e0e0e0"></path><path d="M239,230.51l0-1.77-20.85-.54s-1,.37-.92,1.06Z" style="fill:#455a64"></path><path d="M228.64,223.54c0,.1.53.18,1,.55s.75.84.85.8,0-.66-.64-1.1S228.62,223.44,228.64,223.54Z" style="fill:#fff"></path><path d="M226.31,224.35c0,.1.42.31.75.78s.41,1,.52,1,.21-.6-.22-1.17S226.32,224.25,226.31,224.35Z" style="fill:#fff"></path><path d="M224.86,227c.09,0,.27-.49,0-1.09s-.72-.85-.77-.77.24.42.43.91S224.75,227,224.86,227Z" style="fill:#fff"></path><path d="M229,221c0,.1.53,0,1.13,0s1,.29,1.12.21-.37-.5-1.08-.57S228.93,220.9,229,221Z" style="fill:#fff"></path><path d="M274,118.77s2.85,8.55,2.26,16.34c-.24,3-10.4,86.34-10.4,86.34H252.16L256,143.13l-1.12.24s-7.49,33.4-8.1,38.81c-.55,4.86-6.87,40.18-6.87,40.18l-12.55.14,4-46.71L236,131l1.76-13Z" style="fill:#263238"></path><path d="M253.85,135.14a2.56,2.56,0,0,0,.57.32,6.49,6.49,0,0,0,1.7.6,3.59,3.59,0,0,0,1.27,0,2.63,2.63,0,0,0,1.32-.64,3.1,3.1,0,0,0,.8-1.4c.16-.53.25-1.09.37-1.65.44-2.26.73-4.33.9-5.82.09-.75.15-1.36.18-1.78a3,3,0,0,0,0-.66,2.64,2.64,0,0,0-.13.65c-.07.47-.16,1.06-.27,1.76-.22,1.49-.55,3.54-1,5.79a5.42,5.42,0,0,1-1.07,2.92,2.83,2.83,0,0,1-2.37.61,7.7,7.7,0,0,1-1.68-.49A2.63,2.63,0,0,0,253.85,135.14Z" style="fill:#263238"></path><path d="M258,124.52s-.09-.07-.28-.09a1.3,1.3,0,0,0-.77.25,1.39,1.39,0,0,0-.58,1.06,1.36,1.36,0,0,0,2.32.87,1.38,1.38,0,0,0,.26-1.18,1.17,1.17,0,0,0-.42-.69c-.15-.12-.26-.13-.26-.12a1.61,1.61,0,0,1,.48.85,1.22,1.22,0,0,1-.26,1,1.11,1.11,0,0,1-1.85-.69,1.19,1.19,0,0,1,.44-.9A1.53,1.53,0,0,1,258,124.52Z" style="fill:#263238"></path><path d="M236.23,130.17a1.72,1.72,0,0,0,.47.07,8.78,8.78,0,0,0,1.29,0,12.38,12.38,0,0,0,7.7-3.24,8.77,8.77,0,0,0,.89-.93,1.78,1.78,0,0,0,.28-.39s-.48.47-1.3,1.16a13.78,13.78,0,0,1-7.59,3.2C236.91,130.15,236.24,130.12,236.23,130.17Z" style="fill:#263238"></path><path d="M269.59,124.77a6.54,6.54,0,0,0,.64,1.4,15.43,15.43,0,0,0,2.12,3,14,14,0,0,0,2.69,2.3,5.18,5.18,0,0,0,1.26.67,14.28,14.28,0,0,0-1.17-.85,17.85,17.85,0,0,1-2.6-2.33,19.83,19.83,0,0,1-2.15-2.85C269.89,125.27,269.63,124.75,269.59,124.77Z" style="fill:#263238"></path><path d="M252.88,136.76a2.15,2.15,0,0,0,.57.24c.37.14.91.33,1.58.55l.13,0v-.14c.08-1.12.17-2.62.25-4.27s.15-3.4.19-4.57c0-.59,0-1.06,0-1.39a1.71,1.71,0,0,0,0-.51,3.18,3.18,0,0,0-.08.51c0,.32-.07.8-.11,1.38-.08,1.17-.18,2.78-.27,4.57s-.14,3.15-.18,4.27l.14-.08c-.68-.21-1.23-.37-1.61-.47A2.43,2.43,0,0,0,252.88,136.76Z" style="fill:#455a64"></path><path d="M254,127.05s0-.07-.19-.12a.87.87,0,0,0-.62,0,.78.78,0,0,0-.47.77,1,1,0,0,0,.75.83,1,1,0,0,0,1-.47.83.83,0,0,0,0-.89,1,1,0,0,0-.46-.39c-.14,0-.22,0-.23,0s.32.1.52.5a.65.65,0,0,1,0,.67.8.8,0,0,1-.76.34.7.7,0,0,1-.54-.59.6.6,0,0,1,.3-.59A1.14,1.14,0,0,1,254,127.05Z" style="fill:#455a64"></path><path d="M247.51,128c.07,0,.18-.4.23-.91s0-.92,0-.93-.18.4-.23.91S247.43,128,247.51,128Z" style="fill:#455a64"></path><path d="M246.53,127.91c.08,0,.14-.43.15-1s-.06-1-.14-1-.14.43-.14,1S246.46,127.91,246.53,127.91Z" style="fill:#455a64"></path><path d="M263.44,128.56c.08,0,.2-.48.27-1.09a2.42,2.42,0,0,0,0-1.11c-.08,0-.2.48-.27,1.09A2.42,2.42,0,0,0,263.44,128.56Z" style="fill:#455a64"></path><path d="M262.26,128.65a2.36,2.36,0,0,0,.1-2.3,5.71,5.71,0,0,0,0,1.15A7,7,0,0,0,262.26,128.65Z" style="fill:#455a64"></path><path d="M266.7,127.4a1.16,1.16,0,0,0,.05.41,7.06,7.06,0,0,0,.28,1.1,11.78,11.78,0,0,0,1.74,3.33,12.38,12.38,0,0,0,2.74,2.65,10.11,10.11,0,0,0,1,.61,1.72,1.72,0,0,0,.4.18s-.51-.34-1.29-.93A14,14,0,0,1,269,132.1a13,13,0,0,1-1.77-3.25C266.87,128,266.74,127.39,266.7,127.4Z" style="fill:#455a64"></path><path d="M236.37,133.69a1.07,1.07,0,0,0,.42.07,6.88,6.88,0,0,0,1.18,0,7.63,7.63,0,0,0,3.59-1.33,7.18,7.18,0,0,0,2.4-2.87,5.73,5.73,0,0,0,.36-1.06c.06-.26.08-.41.06-.41s-.16.56-.58,1.4a7.63,7.63,0,0,1-2.39,2.75,8,8,0,0,1-3.46,1.35C237,133.71,236.37,133.65,236.37,133.69Z" style="fill:#455a64"></path><polygon points="244.67 60.56 241.81 64.09 230.15 68.91 235.27 90.54 239.18 108.48 232.34 135.12 255.14 135.42 258.83 125.78 261.94 135.46 277.17 135.46 276.43 128.79 272.9 106.44 272.9 67.74 261.53 64.09 258.22 59.46 244.67 60.56" style="fill:#455a64"></polygon><path d="M237.26,83.19l-7-14.35-.15.07a6.22,6.22,0,0,0-2.89,4.8c-.75,6.27-5.45,29.69-5.66,33.54l2.62,26.53,11.84-1.62-2.32-24Z" style="fill:#455a64"></path><path d="M258.22,94.16a2.57,2.57,0,0,1-.23-.29l-.61-.86-2.23-3.21L247.9,79.17l-5.33-7.9,0-.06,0,0c.33-.94.64-1.8.93-2.6l.06.13-2.18-.75-.06,0v-.06c.15-1.11.27-2,.35-2.64,0-.28.08-.51.11-.69a.68.68,0,0,1,.05-.24,1.08,1.08,0,0,1,0,.24c0,.19,0,.42-.06.7-.06.65-.15,1.54-.27,2.65l-.06-.09,2.2.71.1,0,0,.1q-.42,1.2-.9,2.61v-.11c1.55,2.29,3.39,5,5.36,7.88l7.19,10.68L257.47,93l.57.89A1.42,1.42,0,0,1,258.22,94.16Z" style="fill:#263238"></path><path d="M261.53,64.28s.07,0,.18.15l.49.48c.44.46,1.05,1.08,1.8,1.84l.07.07-.08.06-.87.67,0-.14,1.05,1.2,0,0v.06c-.56,2.76-1.27,6.32-2.05,10.19l-2.39,11.48c-.31,1.44-.57,2.62-.75,3.47-.09.39-.17.7-.22,1a1.93,1.93,0,0,1-.1.32,2.12,2.12,0,0,1,0-.34c0-.24.1-.56.17-1,.16-.86.39-2,.67-3.49.59-3,1.4-7,2.3-11.5.8-3.86,1.54-7.41,2.11-10.18l0,.1-1-1.23-.07-.08.09-.06.87-.64v.12L262.13,65l-.45-.51Z" style="fill:#263238"></path><g style="opacity:0.30000000000000004"><path d="M265.12,68.8a8.74,8.74,0,0,0-2.06-1.33l1.05,1.21s-.3,1.48-.43,2.07c-1.58,7.55-3.18,15.77-4.76,23.33,2.15-7.47,4.12-15.34,5.7-22.94Z"></path></g><path d="M224.18,133.75l.21,0,.63-.1,2.4-.36,8.69-1.23-.1.13-1.73-17.63c-.21-2.19-.42-4.33-.61-6.37v0c1-6.6,1.86-12.36,2.48-16.51.32-2,.58-3.68.76-4.84.09-.55.17-1,.22-1.3q0-.19.06-.33l0-.11v.11l0,.34c0,.32-.1.76-.17,1.31-.16,1.15-.39,2.8-.67,4.85-.6,4.15-1.43,9.92-2.39,16.52v0c.2,2,.41,4.18.62,6.37.63,6.63,1.21,12.75,1.68,17.63v.12h-.12l-8.7,1.13-2.41.3-.63.06A.53.53,0,0,1,224.18,133.75Z" style="fill:#263238"></path><polygon points="245.19 60.4 244.67 64.92 258.58 94.68 260.71 80.26 260.19 65.73 258.3 60.4 245.19 60.4" style="fill:#f5f5f5"></polygon><path d="M253.35,67.19a10.21,10.21,0,0,1-.7,1.51c-.46.92-1.12,2.2-1.88,3.64l-.09.18-.14-.15-.6-.66c-1.24-1.36-2.35-2.6-3.14-3.5a13,13,0,0,1-1.24-1.51,14.52,14.52,0,0,1,1.38,1.37c.83.87,2,2.09,3.21,3.45l.6.66-.23,0c.77-1.43,1.46-2.7,2-3.6A9.67,9.67,0,0,1,253.35,67.19Z" style="fill:#263238"></path><path d="M259.7,65.06a25.55,25.55,0,0,1-1,3.71l-.1.34-.06.21-.17-.15c-.71-.64-1.43-1.14-1.91-1.54a3.36,3.36,0,0,1-.74-.7,4.26,4.26,0,0,1,.85.54,18.76,18.76,0,0,1,2,1.5l-.23.06.1-.34A26.85,26.85,0,0,1,259.7,65.06Z" style="fill:#263238"></path><polygon points="255.75 66.93 253.6 67.13 252.69 68.88 254.53 71.28 256.65 71.28 257.37 68.13 255.75 66.93" style="fill:#39C486"></polygon><path d="M254.54,71.28a38.88,38.88,0,0,0-.92,7.57c.16,2.57.23,6,.23,6l4.73,9.88L260,85.15S258,75,257.37,73.42a8.65,8.65,0,0,1-.72-2.14Z" style="fill:#39C486"></path><path d="M256.64,71.2c0,.07-.46.21-1.06.24s-1.09,0-1.08-.13.48-.12,1.07-.15S256.63,71.12,256.64,71.2Z" style="fill:#263238"></path><path d="M256.6,67.64a6.71,6.71,0,0,1-1.23,1.5,6.87,6.87,0,0,1-1.43,1.31,13.64,13.64,0,0,1,2.66-2.81Z" style="fill:#263238"></path><g style="opacity:0.30000000000000004"><path d="M246.13,68.05s4.55,5.6,4.69,5.55l1.66-4.78-1.83,3.46-5.31-5.82Z"></path></g><path d="M270.79,88.08a.86.86,0,0,1,0-.19v-.5c0-.54,0-1.14,0-1.84l.07.07-8,0,.1-.1h0v2.51l-.1-.1,5.7,0,1.69,0,.46,0h.17a3.58,3.58,0,0,1-.58,0l-1.67,0-5.77.05h-.1V85.57h0c.2-.21.05-.06.1-.11l8,0h.07v.06c0,.71,0,1.33,0,1.88l0,.49A.92.92,0,0,1,270.79,88.08Z" style="fill:#263238"></path><path d="M258.46,126.61c-.06,0-.11-7.2-.11-16.07s0-16.07.11-16.07.1,7.19.1,16.07S258.51,126.61,258.46,126.61Z" style="fill:#263238"></path><path d="M269.87,103.66c0,.06-2.22.38-5,.71s-5,.57-5,.51,2.22-.38,5-.71S269.86,103.6,269.87,103.66Z" style="fill:#263238"></path><path d="M268.07,108a7.21,7.21,0,0,1-1.26-.1c-.77-.09-1.84-.25-3-.47s-2.23-.46-3-.65a6.69,6.69,0,0,1-1.21-.37,9.3,9.3,0,0,1,1.25.22l3,.59,3,.53A9,9,0,0,1,268.07,108Z" style="fill:#263238"></path><path d="M225,158s1.47-14.49,4.85-16.13,8.07-2.72,9.37-.57a25.77,25.77,0,0,1,3.19,8.88,54.48,54.48,0,0,1,.28,8.76l-3.86-.41s.08-14.43-1.11-16.55-7.13-.37-7.76,2.2-2,14.12-2,14.12Z" style="fill:#455a64"></path><path d="M211.66,178.47c.13-6,.61-19.15.82-24.95a2.94,2.94,0,0,1,2.94-2.83l35.52-.05a2.94,2.94,0,0,1,2.94,2.84l.88,24.52a2.94,2.94,0,0,1-2.91,3.05l-37.22.43A3,3,0,0,1,211.66,178.47Z" style="fill:#455a64"></path><path d="M251.46,159.64a2.39,2.39,0,0,1,0,.26c0,.19,0,.45,0,.79,0,.71,0,1.74,0,3.06,0,2.69,0,6.56,0,11.34,0,.3,0,.6,0,.91a1.67,1.67,0,0,1-.2.94,1.63,1.63,0,0,1-.72.68,2.28,2.28,0,0,1-1,.15l-4.06,0-9,.05-9.91,0-5.24,0h-3.35a2.8,2.8,0,0,1-.7,0,1.61,1.61,0,0,1-1.12-.89,1.62,1.62,0,0,1-.16-.61c0-.22,0-.4,0-.6,0-.38,0-.77,0-1.16l0-2.31c0-1.52,0-3,.06-4.52.05-3,.09-5.84.13-8.58v-.13h.13c10.21.55,19,.65,25.16.63,3.1,0,5.56,0,7.24-.07l1.94,0h.48l-.5,0-1.91.08c-1.69.05-4.15.11-7.25.14-6.2.06-15,0-25.17-.54l.13-.12c0,2.74-.07,5.61-.11,8.58,0,1.48,0,3-.06,4.52l0,2.3c0,.39,0,.78,0,1.17a2.28,2.28,0,0,0,.13,1.09,1.38,1.38,0,0,0,.93.75,2.76,2.76,0,0,0,.65,0h.67l2.68,0,5.24,0,9.9,0,9,0h4.06a1.78,1.78,0,0,0,.9-.13,1.36,1.36,0,0,0,.64-.59,1.52,1.52,0,0,0,.18-.84c0-.31,0-.61,0-.9,0-4.76.06-8.61.08-11.29,0-1.33,0-2.36,0-3.08,0-.35,0-.62,0-.81S251.46,159.64,251.46,159.64Z" style="fill:#263238"></path><path d="M241.37,175.47a4.6,4.6,0,0,0,.62-.09,3,3,0,0,0,1.53-.86,3.24,3.24,0,0,0,.85-2.59c0-1.11,0-2.38,0-3.78V166a3.14,3.14,0,0,0-.65-2.17,2.93,2.93,0,0,0-2.12-1.11H226.81a2.91,2.91,0,0,0-2.93,2.83c0,.51,0,1,0,1.53,0,1,0,2,0,3v1.44a10.64,10.64,0,0,0,0,1.39,2.94,2.94,0,0,0,1.39,2.09,2.86,2.86,0,0,0,1.18.4c.4,0,.83,0,1.24,0l4.59,0,6.64.06,1.81,0h.63l-.16,0h-.47l-1.81,0-6.64,0H227.7c-.42,0-.82,0-1.27,0a3.17,3.17,0,0,1-2.78-2.69,11.33,11.33,0,0,1,0-1.42V167c0-.51,0-1,0-1.54a3,3,0,0,1,.45-1.53,3.17,3.17,0,0,1,2.75-1.56l12.06,0c.93,0,1.83,0,2.72,0a3.18,3.18,0,0,1,2.27,1.2,3.26,3.26,0,0,1,.68,2.31c0,.76,0,1.5,0,2.2,0,1.4,0,2.67,0,3.78,0,.28,0,.55,0,.82a3.48,3.48,0,0,1-.18.74,3.1,3.1,0,0,1-2.31,1.95A2.5,2.5,0,0,1,241.37,175.47Z" style="fill:#263238"></path><g style="opacity:0.30000000000000004"><path d="M217.21,177.78a56.71,56.71,0,0,0,32.52-.17Z"></path></g><path d="M233,164h4.4a1.08,1.08,0,0,1,1.08,1.08v.21a1.09,1.09,0,0,1-1.09,1.09H233a1.08,1.08,0,0,1-1.08-1.08v-.21A1.09,1.09,0,0,1,233,164Z" transform="translate(0.28 -0.4) rotate(0.1)" style="fill:#e0e0e0"></path><path d="M237.4,136.5a11.28,11.28,0,0,1,1.61,2.08,31,31,0,0,1,.94,4.34s-.68.53-1.69-1.38A17,17,0,0,1,237,138.7Z" style="fill:#efbf9d"></path><path d="M238.59,143l-1.13-6.41-3.63-4-7.62,1,1.29,7.92a24.17,24.17,0,0,0,2.47,3.61c.68.51,1.68-.17,1.68-.17.77.81,2.32.15,2.32.15,1,.78,2-.35,2-.35s1.28.77,1.77.61a1,1,0,0,0,.45-.44A2.77,2.77,0,0,0,238.59,143Z" style="fill:#efbf9d"></path><path d="M230.72,143.45c.07,0,.32.27.56.68s.38.79.31.83-.32-.27-.56-.68S230.65,143.49,230.72,143.45Z" style="fill:#e89a6c"></path><path d="M232.72,143c.08,0,.32.49.65,1.1s.61,1.11.54,1.15-.47-.38-.8-1A2.29,2.29,0,0,1,232.72,143Z" style="fill:#e89a6c"></path><path d="M235.07,142.7c.08,0,.24.46.47,1a3.86,3.86,0,0,1,.37,1.07c-.07,0-.4-.36-.64-1S235,142.72,235.07,142.7Z" style="fill:#e89a6c"></path><path d="M237.77,138.61a10,10,0,0,1,.59,2.4,10.55,10.55,0,0,1,.31,2.45,21.46,21.46,0,0,1-.9-4.85Z" style="fill:#e89a6c"></path><path d="M230.35,142.19s0,.13-.13.24a.87.87,0,0,1-.59.22.92.92,0,0,1-.6-.23c-.12-.12-.15-.22-.12-.24s.33.18.72.18S230.29,142.14,230.35,142.19Z" style="fill:#e89a6c"></path><path d="M232.78,142.11s0,.13-.16.23a1.16,1.16,0,0,1-1.3,0c-.14-.11-.19-.21-.16-.24s.37.16.81.16S232.73,142.05,232.78,142.11Z" style="fill:#e89a6c"></path><path d="M237.2,140.74s.21.14.09.44a1.4,1.4,0,0,1-.87.65,1.63,1.63,0,0,1-1.06,0c-.26-.1-.37-.23-.35-.26a3.39,3.39,0,0,0,1.33,0,1.56,1.56,0,0,0,.77-.47C237.23,140.91,237.17,140.76,237.2,140.74Z" style="fill:#e89a6c"></path><path d="M245,49.4a40.53,40.53,0,0,1-1.85-6.74,14.3,14.3,0,0,1,.47-6.91c.12-.33,1.15-2.57,1.5-2.54s-.37,2.1-.24,2.32a12,12,0,0,1,1.43,7A31.06,31.06,0,0,1,245,49.4" style="fill:#263238"></path><path d="M245.28,61.47l-.58-21c-.26-5.84,2.92-10.87,8.77-11l.54,0a10.46,10.46,0,0,1,10,10c.2,5.06.35,10.67.2,13.38-.3,5.6-5.94,6.24-5.94,6.24s0,.5,0,2.15L255,67h0Z" style="fill:#efbf9d"></path><path d="M258.3,59.22a13.59,13.59,0,0,1-7.22-2.46s1.58,4.29,7.2,4Z" style="fill:#e89a6c"></path><path d="M261.45,44.28a.8.8,0,0,1-.81.78.77.77,0,0,1-.79-.76.81.81,0,0,1,.8-.78A.78.78,0,0,1,261.45,44.28Z" style="fill:#263238"></path><path d="M262.74,42c-.1.1-.69-.38-1.55-.41s-1.51.37-1.6.26.06-.23.35-.42a2.12,2.12,0,0,1,1.28-.34,2.08,2.08,0,0,1,1.23.45C262.71,41.79,262.79,42,262.74,42Z" style="fill:#263238"></path><path d="M253.71,44.28a.8.8,0,0,1-.81.78.77.77,0,0,1-.79-.76.81.81,0,0,1,.8-.78A.78.78,0,0,1,253.71,44.28Z" style="fill:#263238"></path><path d="M254.28,41.88c-.1.1-.69-.38-1.55-.41s-1.51.37-1.6.26.06-.23.35-.42a2.22,2.22,0,0,1,1.28-.34,2.08,2.08,0,0,1,1.23.45C254.25,41.64,254.33,41.83,254.28,41.88Z" style="fill:#263238"></path><path d="M257.1,48.63a5.82,5.82,0,0,1,1.41-.2c.22,0,.43,0,.48-.19a1.16,1.16,0,0,0-.12-.66c-.19-.54-.38-1.11-.58-1.71A30,30,0,0,1,257,41.43a29.17,29.17,0,0,1,1.64,4.33c.19.6.38,1.17.55,1.71a1.22,1.22,0,0,1,.08.87.54.54,0,0,1-.37.31,1.32,1.32,0,0,1-.38,0A5.32,5.32,0,0,1,257.1,48.63Z" style="fill:#263238"></path><path d="M254.67,39.19c-.12.22-.95,0-2-.11s-1.87.05-2-.18.14-.3.5-.46a3.39,3.39,0,0,1,1.53-.24,3.23,3.23,0,0,1,1.47.46C254.58,38.87,254.73,39.09,254.67,39.19Z" style="fill:#263238"></path><path d="M262.89,39.49c-.19.19-.89,0-1.73-.06s-1.56.09-1.72-.12.05-.29.36-.47a2.73,2.73,0,0,1,1.42-.29,2.83,2.83,0,0,1,1.36.43C262.87,39.19,263,39.4,262.89,39.49Z" style="fill:#263238"></path><path d="M245,44.68c-.1,0-3.81-1.3-3.85,2.54s3.83,3.08,3.84,3S245,44.68,245,44.68Z" style="fill:#efbf9d"></path><path d="M243.82,48.73s-.07,0-.18.09a.65.65,0,0,1-.5,0,1.63,1.63,0,0,1-.75-1.49,2.29,2.29,0,0,1,.19-1,.78.78,0,0,1,.51-.51.34.34,0,0,1,.39.19c.05.11,0,.18.05.19s.08-.06.05-.22a.38.38,0,0,0-.15-.24.5.5,0,0,0-.37-.11,1,1,0,0,0-.7.59,2.22,2.22,0,0,0-.24,1.07,1.72,1.72,0,0,0,1,1.67.72.72,0,0,0,.61-.1C243.81,48.82,243.83,48.73,243.82,48.73Z" style="fill:#e89a6c"></path><path d="M261.56,33.23c.62-.34-1.25-2.35-2.77-3-2.31-1.05-5.84-1.69-8-1.09a9.29,9.29,0,0,0-6,4.33,15.22,15.22,0,0,0-1.7,7.71,4.7,4.7,0,0,0,.54,2.35c.54.85,1.57,1.38,1.52,2.56a1.66,1.66,0,0,0,.4,1.17c.7.75,1.56,0,2-.66a11.1,11.1,0,0,0,1-5,11,11,0,0,0-.24-3.66c-.18-.64-.49-1.24-.64-1.89a2.3,2.3,0,0,1,.28-1.92,2.22,2.22,0,0,1,.31-.31,4,4,0,0,1,4-.76c2.16.77,5.86,1.91,6.82,1.18a5.83,5.83,0,0,0,1.72-1.74Z" style="fill:#263238"></path><path d="M254.39,49.16c.14,0,.14.88.9,1.5s1.7.52,1.7.64-.21.17-.6.19A2.22,2.22,0,0,1,255,51a1.87,1.87,0,0,1-.7-1.26C254.24,49.38,254.33,49.16,254.39,49.16Z" style="fill:#263238"></path><polygon points="211.22 131.94 211.37 133.88 220.07 132.15 219.79 130.84 211.22 131.94" style="fill:#e0e0e0"></polygon></g><g id="freepik--Clouds--inject-33"><path d="M449.14,317.78a12.21,12.21,0,0,0-13.12-.34,14.42,14.42,0,0,0-23.08-7.22,14.61,14.61,0,0,0-24.7,9.19c-5.77.3-11.72,4.1-12.92,10.58h78.62A12.18,12.18,0,0,0,449.14,317.78Z" style="fill:#fff"></path><path d="M449.14,317.78s.26.17.75.53a12,12,0,0,1,1.87,1.93,12.55,12.55,0,0,1,2,3.87,12,12,0,0,1,.33,5.91l0,.1h-.11l-78.62.13H375l.07-.31.09-.38a12.59,12.59,0,0,1,4.88-7.47,15.23,15.23,0,0,1,8.2-2.94l-.25.23a14.85,14.85,0,0,1,25.11-9.31h-.29a14.82,14.82,0,0,1,7.78-3.23,14.32,14.32,0,0,1,7.54,1.19,14.87,14.87,0,0,1,8,9.39l-.2-.08a12,12,0,0,1,5.66-1.72,12.57,12.57,0,0,1,4.32.55,12,12,0,0,1,2.45,1.1c.51.33.76.52.76.52s-.08,0-.21-.11l-.58-.35a13.14,13.14,0,0,0-2.46-1,12.49,12.49,0,0,0-4.27-.48,11.77,11.77,0,0,0-5.52,1.74l-.16.09-.05-.17a14.6,14.6,0,0,0-7.92-9.13,13.91,13.91,0,0,0-7.34-1.12,14.47,14.47,0,0,0-7.55,3.16l-.15.13-.14-.14a14.4,14.4,0,0,0-24.3,9.05l0,.22h-.22a14.65,14.65,0,0,0-7.91,2.85,12,12,0,0,0-4.68,7.16c0,.12-.06.25-.09.36l-.25-.3,78.62.12-.13.11a11.77,11.77,0,0,0-.26-5.79,12.59,12.59,0,0,0-1.91-3.84,12.27,12.27,0,0,0-1.8-2l-.53-.43C449.19,317.84,449.13,317.79,449.14,317.78Z" style="fill:#263238"></path><path d="M453.38,147.48a14,14,0,0,0-15.07-.39,16.57,16.57,0,0,0-26.54-8.3,16.8,16.8,0,0,0-28.4,10.55c-6.63.36-13.48,4.72-14.86,12.17h90.4A14,14,0,0,0,453.38,147.48Z" style="fill:#fff"></path><path d="M453.38,147.48s.3.19.86.61a14,14,0,0,1,2.15,2.22,14.61,14.61,0,0,1,2.29,4.45,13.84,13.84,0,0,1,.36,6.78l0,.11h-.11l-90.4.12h-.33l.08-.31.1-.43a14.45,14.45,0,0,1,5.59-8.57,17.45,17.45,0,0,1,9.4-3.37l-.24.23a17,17,0,0,1,28.81-10.69h-.29a17,17,0,0,1,8.92-3.7,16.4,16.4,0,0,1,8.66,1.36,17.08,17.08,0,0,1,6.13,4.8,16.86,16.86,0,0,1,3.1,6l-.21-.08a13.84,13.84,0,0,1,6.5-2,14.27,14.27,0,0,1,5,.62,14,14,0,0,1,2.82,1.26c.59.38.87.6.87.6l-.23-.13-.67-.41a14.84,14.84,0,0,0-2.83-1.18,14.45,14.45,0,0,0-4.91-.56,13.73,13.73,0,0,0-6.36,2l-.15.1-.05-.18a16.39,16.39,0,0,0-3.09-5.84,16.78,16.78,0,0,0-6-4.67,16,16,0,0,0-8.46-1.29,16.47,16.47,0,0,0-8.69,3.64l-.15.12-.14-.14a16.59,16.59,0,0,0-28,10.43l0,.22h-.22a17,17,0,0,0-9.12,3.28,13.89,13.89,0,0,0-5.39,8.26l-.1.42-.26-.31,90.4.13-.13.1a13.79,13.79,0,0,0-.3-6.66,14.66,14.66,0,0,0-2.2-4.42,14.2,14.2,0,0,0-2.09-2.25l-.61-.5Z" style="fill:#263238"></path><path d="M240.13,248.69a16.76,16.76,0,0,0-18.08-.47,19.88,19.88,0,0,0-31.84-10,20.17,20.17,0,0,0-34.07,12.66c-7.95.43-16.16,5.67-17.82,14.6H246.76A16.77,16.77,0,0,0,240.13,248.69Z" style="fill:#fff"></path><path d="M240.13,248.69s.36.23,1,.74a16.55,16.55,0,0,1,2.57,2.66,17.22,17.22,0,0,1,2.73,5.34,16.5,16.5,0,0,1,.44,8.12l0,.1h-.11l-108.44.13H138l.08-.31.12-.52a17.25,17.25,0,0,1,6.69-10.24,20.79,20.79,0,0,1,11.25-4l-.24.23a20.25,20.25,0,0,1,25.35-17.8,20.57,20.57,0,0,1,9.13,5h-.3a20.33,20.33,0,0,1,10.69-4.43,19.6,19.6,0,0,1,10.36,1.62,20.5,20.5,0,0,1,7.34,5.75,20.06,20.06,0,0,1,3.72,7.15l-.2-.08a16.56,16.56,0,0,1,7.78-2.37,17.34,17.34,0,0,1,5.94.74,16.4,16.4,0,0,1,3.39,1.51c.7.45,1,.71,1,.71l-.27-.16-.81-.49a16.87,16.87,0,0,0-9.28-2.1,16.42,16.42,0,0,0-7.65,2.39l-.15.1-.05-.18a19.84,19.84,0,0,0-3.71-7,20.2,20.2,0,0,0-7.24-5.62,19.31,19.31,0,0,0-10.17-1.55,20,20,0,0,0-10.45,4.37l-.15.12-.14-.13a20.46,20.46,0,0,0-19.71-4.67A20.35,20.35,0,0,0,156.4,251l0,.22h-.22a20.33,20.33,0,0,0-11,3.94,16.77,16.77,0,0,0-6.49,9.94c0,.17-.08.35-.12.51l-.26-.31,108.44.12-.13.11a16.35,16.35,0,0,0-.37-8,17.49,17.49,0,0,0-2.64-5.31,17.89,17.89,0,0,0-2.51-2.7c-.31-.25-.56-.44-.73-.59Z" style="fill:#263238"></path><path d="M252.5,462a20.15,20.15,0,0,0-21.69-.56,23.84,23.84,0,0,0-38.17-11.94,24.18,24.18,0,0,0-40.86,15.19c-9.54.5-19.39,6.79-21.37,17.5h130A20.13,20.13,0,0,0,252.5,462Z" style="fill:#ebebeb"></path><path d="M345.15,433.68a16.63,16.63,0,0,0-17.91-.47,19.7,19.7,0,0,0-31.52-9.86A20,20,0,0,0,262,435.89c-7.87.42-16,5.61-17.64,14.45H351.71A16.61,16.61,0,0,0,345.15,433.68Z" style="fill:#fff"></path><path d="M345.15,433.68s.35.23,1,.73a16.3,16.3,0,0,1,2.55,2.64,17.39,17.39,0,0,1,2.71,5.28,16.34,16.34,0,0,1,.42,8l0,.11h-.11l-107.36.12H244l.07-.3.12-.52a17.12,17.12,0,0,1,6.63-10.14,20.63,20.63,0,0,1,11.14-4l-.24.23a20,20,0,0,1,25.1-17.62,20.23,20.23,0,0,1,9,4.95h-.29a20.12,20.12,0,0,1,10.58-4.39,19.44,19.44,0,0,1,10.26,1.6,20.23,20.23,0,0,1,7.27,5.7,19.58,19.58,0,0,1,3.68,7.08l-.2-.08a16.27,16.27,0,0,1,7.7-2.35,17.33,17.33,0,0,1,5.89.73,17.15,17.15,0,0,1,3.35,1.49c.7.45,1,.71,1,.71l-.28-.16-.8-.48a16.87,16.87,0,0,0-3.35-1.42,17.26,17.26,0,0,0-5.84-.66,16.12,16.12,0,0,0-7.57,2.37l-.15.09-.05-.17a19.52,19.52,0,0,0-3.67-6.95,20,20,0,0,0-7.17-5.57,19.11,19.11,0,0,0-10.06-1.53,19.72,19.72,0,0,0-10.35,4.32l-.15.13-.14-.14a20.31,20.31,0,0,0-19.51-4.62,20.14,20.14,0,0,0-13.81,17l0,.22H262a20.2,20.2,0,0,0-10.85,3.9,16.62,16.62,0,0,0-6.43,9.84l-.12.5-.25-.31,107.36.13-.13.1a16.15,16.15,0,0,0-.37-7.92,17.17,17.17,0,0,0-2.62-5.26,17.34,17.34,0,0,0-2.47-2.66l-.73-.59A2.68,2.68,0,0,1,345.15,433.68Z" style="fill:#263238"></path><path d="M152.25,384.24a11.78,11.78,0,0,0-12.68-.33,13.94,13.94,0,0,0-22.32-7,14.14,14.14,0,0,0-23.89,8.88c-5.57.3-11.33,4-12.49,10.23h76A11.75,11.75,0,0,0,152.25,384.24Z" style="fill:#fff"></path><path d="M152.25,384.24s.25.16.72.51a11.26,11.26,0,0,1,1.81,1.87,11.83,11.83,0,0,1,1.93,3.74,11.61,11.61,0,0,1,.32,5.71l0,.11h-.11l-76,.12h-.33l.07-.3.09-.37a12.19,12.19,0,0,1,4.72-7.23,14.8,14.8,0,0,1,7.93-2.85l-.24.24a14.38,14.38,0,0,1,24.29-9h-.29a14.35,14.35,0,0,1,7.52-3.11,13.85,13.85,0,0,1,7.3,1.14,14.45,14.45,0,0,1,7.77,9.09l-.21-.08a11.59,11.59,0,0,1,5.48-1.66,12.08,12.08,0,0,1,4.18.53,11.49,11.49,0,0,1,2.37,1.06c.49.33.73.51.73.51s-.07,0-.2-.1l-.57-.34a12.38,12.38,0,0,0-2.37-1,12,12,0,0,0-4.13-.46,11.35,11.35,0,0,0-5.34,1.68l-.16.09,0-.17a14.19,14.19,0,0,0-7.66-8.83,13.52,13.52,0,0,0-7.1-1.07,13.92,13.92,0,0,0-7.29,3.05l-.15.12-.14-.13a13.91,13.91,0,0,0-23.48,8.74l0,.22-.22,0a14.11,14.11,0,0,0-7.65,2.75,11.66,11.66,0,0,0-4.52,6.92c0,.12-.06.24-.08.35l-.26-.31,76,.13-.13.1a11.45,11.45,0,0,0-.25-5.59,12,12,0,0,0-1.84-3.72,12.24,12.24,0,0,0-1.74-1.89l-.52-.42C152.3,384.3,152.24,384.25,152.25,384.24Z" style="fill:#263238"></path><path d="M124.89,77.12A11,11,0,0,0,113,76.81a13.05,13.05,0,0,0-20.89-6.53,13.23,13.23,0,0,0-22.36,8.31c-5.22.28-10.6,3.72-11.69,9.58h71.16A11,11,0,0,0,124.89,77.12Z" style="fill:#fff"></path><path d="M124.89,77.12s.25.15.69.48a10.46,10.46,0,0,1,1.69,1.74,11.34,11.34,0,0,1,1.81,3.51,10.9,10.9,0,0,1,.3,5.35l0,.1h-.11l-71.16.13h-.33l.07-.31.08-.34A11.46,11.46,0,0,1,62.34,81a13.75,13.75,0,0,1,7.43-2.66l-.24.23a13.47,13.47,0,0,1,22.76-8.45H92a13.47,13.47,0,0,1,7-2.92,13,13,0,0,1,6.83,1.08,13.53,13.53,0,0,1,7.28,8.51l-.2-.08a10.81,10.81,0,0,1,5.12-1.55,11.39,11.39,0,0,1,3.92.5,10.08,10.08,0,0,1,2.21,1c.46.3.68.47.68.47l-.18-.1-.53-.31a12.05,12.05,0,0,0-2.23-.93,11.28,11.28,0,0,0-3.86-.42,10.67,10.67,0,0,0-5,1.57L113,77l0-.18a13.27,13.27,0,0,0-7.17-8.25,12.63,12.63,0,0,0-6.64-1,13,13,0,0,0-6.81,2.86l-.15.12L92,70.44A13,13,0,0,0,70,78.61l0,.22-.21,0a13.26,13.26,0,0,0-7.15,2.57,10.9,10.9,0,0,0-4.23,6.47l-.08.33-.25-.31,71.16.12-.14.11a10.62,10.62,0,0,0-.23-5.23,11.39,11.39,0,0,0-1.72-3.48,11.11,11.11,0,0,0-1.63-1.77l-.48-.4A.61.61,0,0,1,124.89,77.12Z" style="fill:#263238"></path></g></svg>
