<?xml version="1.0" encoding="utf-8"?>
<!-- Generator: Adobe Illustrator 27.5.0, SVG Export Plug-In . SVG Version: 6.00 Build 0)  -->
<svg version="1.1" xmlns="http://www.w3.org/2000/svg" xmlns:xlink="http://www.w3.org/1999/xlink" x="0px" y="0px"
	 viewBox="0 0 750 500" style="enable-background:new 0 0 750 500;" xml:space="preserve">
<g id="Background_Simple">
	<g>
		<path style="fill:#92E3A9;" d="M599.433,35.068c-77.887-10.142-122.148,33.058-226.816,37.755
			c-103.993-8.147-143.643-52.734-222.46-45.184C65.359,35.763-0.321,146.265,18.369,256.801
			c18.69,110.536,134.517,172.328,193.733,171.946c47.325-0.305,89.13-19.567,143.092-24.17
			c53.385,6.378,93.096,26.988,140.307,28.856c59.074,2.337,181.185-55.52,211.443-165.247
			C737.201,158.459,683.232,45.979,599.433,35.068z"/>
		<path style="opacity:0.7;fill:#FFFFFF;" d="M599.433,35.068c-77.887-10.142-122.148,33.058-226.816,37.755
			c-103.993-8.147-143.643-52.734-222.46-45.184C65.359,35.763-0.321,146.265,18.369,256.801
			c18.69,110.536,134.517,172.328,193.733,171.946c47.325-0.305,89.13-19.567,143.092-24.17
			c53.385,6.378,93.096,26.988,140.307,28.856c59.074,2.337,181.185-55.52,211.443-165.247
			C737.201,158.459,683.232,45.979,599.433,35.068z"/>
	</g>
</g>
<g id="Windows">
	<g style="opacity:0.3;">
		<g>
			
				<rect x="587.751" y="36.046" style="fill:none;stroke:#000000;stroke-linejoin:round;stroke-miterlimit:10;" width="44.682" height="79.707"/>
			
				<rect x="636.814" y="36.046" style="fill:none;stroke:#000000;stroke-linejoin:round;stroke-miterlimit:10;" width="44.682" height="79.707"/>
			
				<rect x="685.876" y="36.046" style="fill:none;stroke:#000000;stroke-linejoin:round;stroke-miterlimit:10;" width="44.682" height="79.707"/>
		</g>
		<g>
			
				<rect x="587.751" y="122.557" style="fill:none;stroke:#000000;stroke-linejoin:round;stroke-miterlimit:10;" width="44.682" height="79.707"/>
			
				<rect x="636.814" y="122.557" style="fill:none;stroke:#000000;stroke-linejoin:round;stroke-miterlimit:10;" width="44.682" height="79.707"/>
			
				<rect x="685.876" y="122.557" style="fill:none;stroke:#000000;stroke-linejoin:round;stroke-miterlimit:10;" width="44.682" height="79.707"/>
		</g>
		<g>
			
				<rect x="587.751" y="209.068" style="fill:none;stroke:#000000;stroke-linejoin:round;stroke-miterlimit:10;" width="44.682" height="79.707"/>
			
				<rect x="636.814" y="209.068" style="fill:none;stroke:#000000;stroke-linejoin:round;stroke-miterlimit:10;" width="44.682" height="79.707"/>
			
				<rect x="685.876" y="209.068" style="fill:none;stroke:#000000;stroke-linejoin:round;stroke-miterlimit:10;" width="44.682" height="79.707"/>
		</g>
		<g>
			
				<rect x="587.751" y="295.579" style="fill:none;stroke:#000000;stroke-linejoin:round;stroke-miterlimit:10;" width="44.682" height="79.707"/>
			
				<rect x="636.814" y="295.579" style="fill:none;stroke:#000000;stroke-linejoin:round;stroke-miterlimit:10;" width="44.682" height="79.707"/>
			
				<rect x="685.876" y="295.579" style="fill:none;stroke:#000000;stroke-linejoin:round;stroke-miterlimit:10;" width="44.682" height="79.707"/>
		</g>
	</g>
	<g style="opacity:0.3;">
		<g>
			
				<rect x="32.291" y="36.046" style="fill:none;stroke:#000000;stroke-linejoin:round;stroke-miterlimit:10;" width="44.682" height="79.707"/>
			
				<rect x="81.353" y="36.046" style="fill:none;stroke:#000000;stroke-linejoin:round;stroke-miterlimit:10;" width="44.682" height="79.707"/>
			
				<rect x="130.416" y="36.046" style="fill:none;stroke:#000000;stroke-linejoin:round;stroke-miterlimit:10;" width="44.682" height="79.707"/>
		</g>
		<g>
			
				<rect x="32.291" y="122.557" style="fill:none;stroke:#000000;stroke-linejoin:round;stroke-miterlimit:10;" width="44.682" height="79.707"/>
			
				<rect x="81.353" y="122.557" style="fill:none;stroke:#000000;stroke-linejoin:round;stroke-miterlimit:10;" width="44.682" height="79.707"/>
			
				<rect x="130.416" y="122.557" style="fill:none;stroke:#000000;stroke-linejoin:round;stroke-miterlimit:10;" width="44.682" height="79.707"/>
		</g>
		<g>
			
				<rect x="32.291" y="209.068" style="fill:none;stroke:#000000;stroke-linejoin:round;stroke-miterlimit:10;" width="44.682" height="79.707"/>
			
				<rect x="81.353" y="209.068" style="fill:none;stroke:#000000;stroke-linejoin:round;stroke-miterlimit:10;" width="44.682" height="79.707"/>
			
				<rect x="130.416" y="209.068" style="fill:none;stroke:#000000;stroke-linejoin:round;stroke-miterlimit:10;" width="44.682" height="79.707"/>
		</g>
		<g>
			
				<rect x="32.291" y="295.579" style="fill:none;stroke:#000000;stroke-linejoin:round;stroke-miterlimit:10;" width="44.682" height="79.707"/>
			
				<rect x="81.353" y="295.579" style="fill:none;stroke:#000000;stroke-linejoin:round;stroke-miterlimit:10;" width="44.682" height="79.707"/>
			
				<rect x="130.416" y="295.579" style="fill:none;stroke:#000000;stroke-linejoin:round;stroke-miterlimit:10;" width="44.682" height="79.707"/>
		</g>
	</g>
</g>
<g id="Floor">
	
		<line style="fill:none;stroke:#263238;stroke-linejoin:round;stroke-miterlimit:10;" x1="20.153" y1="463.416" x2="730.362" y2="463.416"/>
</g>
<g id="Plants">
	<g>
		<g>
			<path style="fill:#263238;" d="M672.752,301.647l0.003-0.006c0.019-0.049-0.004-0.105-0.052-0.126
				c-0.05-0.022-0.108,0.001-0.129,0.051c-2.971,6.861-5.059,14.062-6.803,21.326c-1.683,7.284-2.901,14.674-3.754,22.109
				l-0.532,5.588c-0.082,0.932-0.183,1.863-0.25,2.797l-0.153,2.803c-0.081,1.87-0.195,3.74-0.248,5.611l0.051,5.616l0.063,2.807
				c0.042,0.935,0.109,1.869,0.172,2.802c0.142,1.867,0.255,34.83,0.426,36.692c0.358,3.723,0.918,7.426,1.494,11.113
				c0.007,0.047,0.048,0.084,0.098,0.083c0.054,0,0.098-0.044,0.098-0.099v-0.005c-0.01-1.872-0.089-3.734-0.131-5.596
				c-0.054-1.862-0.216-3.714-0.19-5.576c0.009-1.861-0.04-34.814-0.061-36.671l-0.052-2.783l0.049-2.784l0.025-5.565l0.151-5.562
				l0.058-2.783c0.036-0.927,0.105-1.852,0.156-2.779l0.341-5.558c0.651-7.397,1.667-14.767,3.149-22.051
				C668.208,315.826,670.037,308.577,672.752,301.647z"/>
			<path style="fill:#263238;" d="M673.549,330.746c0.014-0.05-0.012-0.106-0.061-0.123c-0.051-0.018-0.107,0.009-0.125,0.061
				c-1.602,4.624-2.88,9.353-3.961,14.133c-1.033,4.788-1.844,9.638-2.339,14.525c-0.494,4.87-1.039,9.745-1.106,14.641
				c-0.075,4.894,0.003,40.89,0.52,45.779c0.005,0.045,0.041,0.083,0.088,0.088c0.054,0.006,0.103-0.034,0.109-0.088
				c0.566-4.875,0.911-40.834,1.248-45.696c0.345-4.859,0.392-9.732,0.708-14.594c0.294-4.846,0.902-9.673,1.736-14.467
				C671.184,340.21,672.203,335.432,673.549,330.746z"/>
			<path style="fill:#263238;" d="M689.682,340.982c-0.029-0.046-0.09-0.06-0.136-0.03c-4.038,2.557-7.639,5.776-10.787,9.404
				c-1.547,1.841-2.985,3.769-4.218,5.865l-0.867,1.636l-0.678,1.699c-0.244,0.563-0.416,1.144-0.592,1.723
				c-0.174,0.58-0.369,1.157-0.526,1.741c-1.211,4.676-2.014,40.536-2.232,45.326c-0.195,4.786-0.104,9.58,0.535,14.332
				c0.007,0.045,0.044,0.082,0.091,0.085c0.054,0.004,0.102-0.037,0.106-0.091l1.229-14.187c0.49-4.69,0.79-40.504,1.797-45.085
				c0.128-0.57,0.292-1.128,0.436-1.694c0.147-0.565,0.288-1.133,0.498-1.671l0.576-1.64l0.741-1.549
				c1.092-2.05,2.428-4.01,3.865-5.868c2.881-3.718,6.27-7.107,10.128-9.858l0.005-0.004
				C689.698,341.085,689.71,341.026,689.682,340.982z"/>
			<path style="fill:#263238;" d="M681.874,359.209c-2.198,1.419-3.669,3.651-4.905,5.896c-1.179,2.295-2.107,4.728-2.748,7.224
				c-0.193,0.618-0.345,1.244-0.48,1.874l-0.445,1.886c-0.227,1.267-0.404,33.643-0.476,34.927
				c-0.017,1.287-0.054,2.573,0.033,3.856c0.107,1.283,0.253,2.563,0.505,3.831c0.009,0.037,0.039,0.071,0.079,0.079
				c0.054,0.011,0.107-0.025,0.118-0.079c0.311-1.266,0.515-2.52,0.68-3.772c0.199-1.249,0.393-2.49,0.543-3.732
				c0.182-1.237,0.346-2.47,0.442-3.717c0.173-1.229,0.264-33.583,0.533-34.798c0.431-2.459,1.143-4.86,2.104-7.156
				c0.957-2.277,2.203-4.547,4.118-6.151l0.015-0.013c0.037-0.031,0.046-0.086,0.019-0.128
				C681.979,359.193,681.919,359.18,681.874,359.209z"/>
			<path style="fill:#263238;" d="M659.25,373.42c-0.531-6.298-1.569-12.533-2.551-18.765c-0.985-6.233-2.07-12.447-3.211-18.649
				c-1.181-6.195-2.415-12.379-3.751-18.541c-0.011-0.051-0.062-0.085-0.114-0.076c-0.053,0.01-0.089,0.061-0.079,0.114
				c1.078,6.208,2.053,12.434,2.974,18.666c0.945,6.227,1.835,12.462,2.623,18.708c0.77,6.249,1.369,12.512,2.153,18.749
				l2.304,49.845c0.006,0.047,0.045,0.085,0.094,0.087c0.054,0.003,0.1-0.04,0.103-0.094c0.072-1.58,0.074-3.159,0.113-4.743
				c0.014-1.583-0.064-3.159-0.092-4.741C659.756,410.815,659.487,376.571,659.25,373.42z"/>
			<path style="fill:#263238;" d="M655.473,373.329c-0.337-2.495-0.795-4.975-1.271-7.447l-0.884-3.677
				c-0.29-1.226-0.564-2.455-0.923-3.665c-1.257-4.879-2.863-9.674-4.813-14.322l-0.755-1.733l-0.839-1.696
				c-0.534-1.142-1.179-2.23-1.792-3.33c-1.317-2.145-2.683-4.288-4.546-6.027c-0.038-0.035-0.097-0.035-0.135,0.001
				c-0.039,0.038-0.04,0.1-0.002,0.139l0.01,0.01c1.721,1.784,2.976,3.987,4.158,6.164c0.548,1.12,1.127,2.221,1.595,3.377
				l0.74,1.714l0.656,1.75c1.745,4.662,3.144,9.455,4.197,14.327c0.574,2.423,0.954,4.893,1.424,7.336l0.59,3.691
				c0.213,1.227,0.476,2.446,0.649,3.681c0.393,2.462,0.846,36.014,1.276,38.479c0.382,2.47,0.833,4.937,1.354,7.405
				c0.009,0.045,0.049,0.081,0.097,0.081c0.055,0,0.099-0.044,0.099-0.098c0.011-2.516-0.047-5.034-0.176-7.548
				C656.032,409.43,655.735,375.834,655.473,373.329z"/>
			<path style="fill:#263238;" d="M650.261,373.651c-1.167-3.304-2.517-6.539-3.988-9.711c-1.51-3.155-3.14-6.249-5.016-9.196
				c-0.029-0.041-0.088-0.058-0.133-0.032c-0.047,0.028-0.062,0.088-0.035,0.135c1.639,3.061,3.025,6.254,4.281,9.484
				c1.279,3.221,2.431,6.489,3.396,9.81c0.985,3.317,1.69,37.795,2.573,41.127c0.928,3.329,1.678,6.693,2.702,10.065
				c0.012,0.04,0.05,0.072,0.094,0.073c0.055,0.001,0.1-0.043,0.101-0.098c0.05-3.518-0.296-7.034-0.98-10.478
				C652.639,411.365,651.421,376.953,650.261,373.651z"/>
			<path style="fill:#263238;" d="M650.045,415.754c-0.597-2.069-1.615-3.997-2.772-5.814c-1.136-1.826-2.455-34.648-4.035-36.111
				c-0.814-0.705-1.647-1.384-2.567-1.936c-0.906-0.566-1.868-1.045-2.911-1.316c-0.045-0.012-0.094,0.011-0.114,0.055
				c-0.022,0.049,0,0.107,0.05,0.129l0.012,0.005c1.887,0.839,3.482,2.229,4.829,3.752c1.366,1.524,2.456,34.37,3.365,36.191
				c0.955,1.809,1.449,3.809,2.281,5.672c0.367,0.955,0.731,1.917,1.155,2.871c0.36,0.974,0.759,1.944,1.266,2.91l0.003,0.005
				c0.016,0.031,0.048,0.052,0.085,0.054c0.056,0.002,0.103-0.041,0.105-0.097c0.045-1.077-0.018-2.15-0.12-3.219
				C650.521,417.849,650.298,416.799,650.045,415.754z"/>
		</g>
		<path style="fill:#92E3A9;" d="M650.435,326.481c0,0-10.32-2.381-12.702-13.495c-2.382-11.114,5.292-6.351-1.588-23.816
			c-6.88-17.465-5.293-21.434-2.911-26.462c2.382-5.028,3.705-3.44,5.822,3.175c2.117,6.615,9.791,16.935,12.702,36.253
			C654.668,321.453,650.435,326.481,650.435,326.481z"/>
		<path style="fill:#92E3A9;" d="M670.81,307.693c0,0-6.88-2.382-7.145-15.348c-0.264-12.966,5.028-10.32,5.822-26.462
			c0.794-16.142,1.852-27.52,4.763-27.785c2.911-0.264,10.585,7.939,13.231,25.933c2.646,17.994-3.44,29.902-8.732,35.194
			C673.456,304.518,670.81,307.693,670.81,307.693z"/>
		<path style="fill:#92E3A9;" d="M646.73,342.094c0,0-1.588-9.526-4.763-14.025s-10.056-8.468-14.554-17.2
			c-4.498-8.732-9.526-12.966-9.262-0.529c0.265,12.437,5.822,18.788,12.702,23.022C637.733,337.595,646.73,342.094,646.73,342.094z
			"/>
		<path style="fill:#92E3A9;" d="M643.819,358.5c0,0-6.351-12.172-15.612-21.169c-9.262-8.997-16.671-13.496-14.025-8.997
			c2.646,4.499,5.822,4.234,10.32,12.173c4.499,7.939,3.176,13.76,9.526,18.259C640.379,363.263,643.819,358.5,643.819,358.5z"/>
		<path style="fill:#92E3A9;" d="M643.025,374.113c-0.264-0.794-0.529-6.615-9.526-11.379c-8.997-4.763-17.465-2.911-16.406-0.529
			c1.058,2.382,6.615,6.351,12.172,8.732C634.822,373.319,643.025,374.113,643.025,374.113z"/>
		<path style="fill:#92E3A9;" d="M670.281,342.623c0,0-3.969-5.028-1.853-15.612c2.117-10.585,6.88-7.939,12.173-13.496
			c5.292-5.557,4.234-6.351,9.526-12.172c5.292-5.822,10.056-8.997,12.172-6.616c2.117,2.382-1.058,9.791-4.234,14.025
			c-3.175,4.234-8.203,6.351-10.585,11.643c-2.382,5.292-1.323,13.76-7.409,17.729C673.986,342.094,670.281,342.623,670.281,342.623
			z"/>
		<path style="fill:#92E3A9;" d="M683.512,345.534c0,0,9.526-10.85,16.406-18.788c6.88-7.939,9.526-14.025,9.791-8.733
			c0.264,5.292,2.382,9.526-3.176,16.406C700.977,341.3,683.512,345.534,683.512,345.534z"/>
		<path style="fill:#92E3A9;" d="M678.484,362.999c0,0-0.265-4.234,14.819-14.025c15.083-9.791,21.434-11.643,19.846-7.674
			c-1.588,3.969-8.203,7.938-15.348,15.083C690.657,363.528,678.484,362.999,678.484,362.999z"/>
		<path style="fill:none;stroke:#ABABAB;stroke-linecap:round;stroke-linejoin:round;stroke-miterlimit:10;" d="M651.064,325.354
			c0,0-3.54-18.983-7.245-32.479c-3.705-13.496-6.086-21.699-6.086-21.699"/>
		<path style="fill:none;stroke:#ABABAB;stroke-linecap:round;stroke-linejoin:round;stroke-miterlimit:10;" d="M670.201,307.893
			c0,0,6.431-20.575,8.548-33.013c2.117-12.437-0.265-21.699-1.323-27.256"/>
		<path style="fill:none;stroke:#ABABAB;stroke-linecap:round;stroke-linejoin:round;stroke-miterlimit:10;" d="M645.896,341.696
			c0,0-3.929-7.012-9.75-13.892c-5.822-6.88-10.32-10.585-12.966-17.2"/>
		<path style="fill:none;stroke:#ABABAB;stroke-linecap:round;stroke-linejoin:round;stroke-miterlimit:10;" d="M670.281,342.623
			c0,0,2.117-12.702,7.145-19.317c5.028-6.615,15.083-16.935,19.052-23.551"/>
		<path style="fill:none;stroke:#ABABAB;stroke-linecap:round;stroke-linejoin:round;stroke-miterlimit:10;" d="M642.403,373.824
			c0,0-8.904-5.797-15.255-8.973"/>
		<path style="fill:#263238;" d="M666.918,463.416h-11.649c-2.062,0-3.925-1.235-4.719-3.138
			c-3.805-9.119-7.848-52.738-7.848-52.738h36.782c0,0-4.043,43.619-7.848,52.738C670.842,462.181,668.98,463.416,666.918,463.416z"
			/>
		<path style="fill:#92E3A9;" d="M667.739,341.953c0,0-4.958,5.268-8.987,3.719c-4.029-1.549-6.848-4.764-11.171-1.452
			c-4.323,3.311-1.534,9.819,3.424,16.637c4.958,6.818,8.196,9.99,11.845,6.544c3.649-3.446,12.636-8.094,12.946-17.081
			C676.106,341.333,676.726,338.234,667.739,341.953z"/>
		<path style="fill:#92E3A9;" d="M674.867,367.984c0,0-2.241,3.073-7.128,4.029c-4.887,0.956-10.664-3.59-10.445,1.614
			c0.219,5.204,4.867,9.852,11.995,9.542c7.128-0.31,12.086,1.24,13.325,4.029c1.24,2.789,4.958,0.31,3.409-8.057
			C684.474,370.773,681.375,366.744,674.867,367.984z"/>
		<path style="fill:#92E3A9;" d="M653.794,381.619c0,0-2.479-0.62-5.888,0.31s-4.339,3.409-3.099,6.818
			c1.24,3.409,4.339,6.508,5.578,4.029c1.24-2.479,1.549-4.029,4.958-4.958C658.752,386.887,657.823,381.619,653.794,381.619z"/>
	</g>
	<g>
		<g>
			<path style="fill:#263238;" d="M84.651,301.647l0.003-0.006c0.019-0.049-0.004-0.105-0.053-0.126
				c-0.05-0.022-0.108,0.001-0.129,0.051c-2.971,6.861-5.059,14.062-6.803,21.326c-1.683,7.284-2.902,14.674-3.754,22.109
				l-0.532,5.588c-0.082,0.932-0.184,1.863-0.25,2.797l-0.153,2.803c-0.081,1.87-0.195,3.74-0.248,5.611l0.051,5.616l0.062,2.807
				c0.042,0.935,0.109,1.869,0.172,2.802c0.142,1.867,0.255,34.83,0.426,36.692c0.358,3.723,0.917,7.426,1.494,11.113
				c0.007,0.047,0.048,0.084,0.098,0.083c0.054,0,0.098-0.044,0.098-0.099v-0.005c-0.01-1.872-0.089-3.734-0.131-5.596
				c-0.054-1.862-0.216-3.714-0.19-5.576c0.008-1.861-0.04-34.814-0.061-36.671l-0.052-2.783l0.049-2.784l0.025-5.565l0.151-5.562
				l0.058-2.783c0.035-0.927,0.105-1.852,0.156-2.779l0.341-5.558c0.651-7.397,1.667-14.767,3.149-22.051
				C80.107,315.826,81.936,308.577,84.651,301.647z"/>
			<path style="fill:#263238;" d="M85.448,330.746c0.014-0.05-0.012-0.106-0.061-0.123c-0.051-0.018-0.107,0.009-0.125,0.061
				c-1.601,4.624-2.88,9.353-3.961,14.133c-1.033,4.788-1.844,9.638-2.338,14.525c-0.494,4.87-1.039,9.745-1.106,14.641
				c-0.075,4.894,0.003,40.89,0.52,45.779c0.005,0.045,0.041,0.083,0.088,0.088c0.055,0.006,0.103-0.034,0.109-0.088
				c0.566-4.875,0.911-40.834,1.248-45.696c0.345-4.859,0.392-9.732,0.708-14.594c0.294-4.846,0.902-9.673,1.736-14.467
				C83.083,340.21,84.102,335.432,85.448,330.746z"/>
			<path style="fill:#263238;" d="M101.58,340.982c-0.029-0.046-0.09-0.06-0.136-0.03c-4.038,2.557-7.639,5.776-10.787,9.404
				c-1.547,1.841-2.985,3.769-4.218,5.865l-0.867,1.636l-0.678,1.699c-0.244,0.563-0.416,1.144-0.592,1.723
				c-0.174,0.58-0.369,1.157-0.526,1.741c-1.212,4.676-2.014,40.536-2.232,45.326c-0.195,4.786-0.104,9.58,0.535,14.332
				c0.007,0.045,0.044,0.082,0.091,0.085c0.054,0.004,0.102-0.037,0.105-0.091l1.229-14.187c0.49-4.69,0.79-40.504,1.797-45.085
				c0.128-0.57,0.292-1.128,0.436-1.694c0.147-0.565,0.288-1.133,0.498-1.671l0.576-1.64l0.741-1.549
				c1.092-2.05,2.428-4.01,3.865-5.868c2.881-3.718,6.27-7.107,10.128-9.858l0.006-0.004
				C101.597,341.085,101.609,341.026,101.58,340.982z"/>
			<path style="fill:#263238;" d="M93.773,359.209c-2.199,1.419-3.669,3.651-4.905,5.896c-1.178,2.295-2.107,4.728-2.748,7.224
				c-0.193,0.618-0.345,1.244-0.48,1.874l-0.445,1.886c-0.227,1.267-0.404,33.643-0.476,34.927
				c-0.017,1.287-0.054,2.573,0.033,3.856c0.107,1.283,0.252,2.563,0.506,3.831c0.009,0.037,0.039,0.071,0.079,0.079
				c0.054,0.011,0.107-0.025,0.118-0.079c0.311-1.266,0.515-2.52,0.68-3.772c0.199-1.249,0.394-2.49,0.543-3.732
				c0.182-1.237,0.346-2.47,0.442-3.717c0.173-1.229,0.264-33.583,0.533-34.798c0.432-2.459,1.143-4.86,2.104-7.156
				c0.957-2.277,2.203-4.547,4.118-6.151l0.015-0.013c0.037-0.031,0.046-0.086,0.019-0.128
				C93.878,359.193,93.818,359.18,93.773,359.209z"/>
			<path style="fill:#263238;" d="M71.149,373.42c-0.531-6.298-1.569-12.533-2.551-18.765c-0.985-6.233-2.071-12.447-3.211-18.649
				c-1.181-6.195-2.415-12.379-3.751-18.541c-0.011-0.051-0.061-0.085-0.113-0.076c-0.054,0.01-0.089,0.061-0.079,0.114
				c1.078,6.208,2.053,12.434,2.974,18.666c0.945,6.227,1.835,12.462,2.623,18.708c0.77,6.249,1.369,12.512,2.153,18.749
				l2.304,49.845c0.006,0.047,0.044,0.085,0.093,0.087c0.054,0.003,0.101-0.04,0.103-0.094c0.072-1.58,0.074-3.159,0.113-4.743
				c0.014-1.583-0.064-3.159-0.092-4.741C71.655,410.815,71.386,376.571,71.149,373.42z"/>
			<path style="fill:#263238;" d="M67.372,373.329c-0.337-2.495-0.795-4.975-1.271-7.447l-0.884-3.677
				c-0.29-1.226-0.564-2.455-0.923-3.665c-1.257-4.879-2.863-9.674-4.814-14.322l-0.755-1.733l-0.839-1.696
				c-0.534-1.142-1.179-2.23-1.791-3.33c-1.317-2.145-2.683-4.288-4.546-6.027c-0.038-0.035-0.097-0.035-0.135,0.001
				c-0.039,0.038-0.04,0.1-0.002,0.139l0.009,0.01c1.721,1.784,2.976,3.987,4.158,6.164c0.548,1.12,1.127,2.221,1.595,3.377
				l0.74,1.714l0.656,1.75c1.745,4.662,3.144,9.455,4.197,14.327c0.574,2.423,0.954,4.893,1.424,7.336l0.59,3.691
				c0.213,1.227,0.476,2.446,0.649,3.681c0.393,2.462,0.846,36.014,1.276,38.479c0.382,2.47,0.833,4.937,1.354,7.405
				c0.009,0.045,0.05,0.081,0.097,0.081c0.054,0,0.099-0.044,0.099-0.098c0.011-2.516-0.047-5.034-0.176-7.548
				C67.931,409.43,67.634,375.834,67.372,373.329z"/>
			<path style="fill:#263238;" d="M62.16,373.651c-1.167-3.304-2.517-6.539-3.988-9.711c-1.51-3.155-3.14-6.249-5.016-9.196
				c-0.029-0.041-0.088-0.058-0.133-0.032c-0.047,0.028-0.062,0.088-0.035,0.135c1.639,3.061,3.025,6.254,4.281,9.484
				c1.279,3.221,2.431,6.489,3.396,9.81c0.985,3.317,1.69,37.795,2.573,41.127c0.928,3.329,1.678,6.693,2.702,10.065
				c0.012,0.04,0.05,0.072,0.095,0.073c0.055,0.001,0.1-0.043,0.1-0.098c0.05-3.518-0.295-7.034-0.98-10.478
				C64.538,411.365,63.32,376.953,62.16,373.651z"/>
			<path style="fill:#263238;" d="M61.944,415.754c-0.597-2.069-1.615-3.997-2.772-5.814c-1.136-1.826-2.455-34.648-4.035-36.111
				c-0.814-0.705-1.647-1.384-2.567-1.936c-0.906-0.566-1.868-1.045-2.911-1.316c-0.046-0.012-0.094,0.011-0.114,0.055
				c-0.022,0.049,0,0.107,0.05,0.129l0.012,0.005c1.887,0.839,3.482,2.229,4.829,3.752c1.366,1.524,2.456,34.37,3.365,36.191
				c0.955,1.809,1.449,3.809,2.281,5.672c0.367,0.955,0.731,1.917,1.155,2.871c0.36,0.974,0.759,1.944,1.266,2.91l0.003,0.005
				c0.016,0.031,0.048,0.052,0.085,0.054c0.056,0.002,0.103-0.041,0.105-0.097c0.045-1.077-0.018-2.15-0.12-3.219
				C62.42,417.849,62.197,416.799,61.944,415.754z"/>
		</g>
		<path style="fill:#92E3A9;" d="M62.333,326.481c0,0-10.32-2.381-12.702-13.495c-2.382-11.114,5.292-6.351-1.588-23.816
			c-6.88-17.465-5.293-21.434-2.911-26.462c2.382-5.028,3.705-3.44,5.822,3.175c2.117,6.615,9.791,16.935,12.702,36.253
			C66.567,321.453,62.333,326.481,62.333,326.481z"/>
		<path style="fill:#92E3A9;" d="M82.709,307.693c0,0-6.88-2.382-7.145-15.348c-0.265-12.966,5.028-10.32,5.822-26.462
			c0.794-16.142,1.852-27.52,4.763-27.785c2.911-0.264,10.585,7.939,13.231,25.933c2.646,17.994-3.44,29.902-8.732,35.194
			C85.355,304.518,82.709,307.693,82.709,307.693z"/>
		<path style="fill:#92E3A9;" d="M58.629,342.094c0,0-1.588-9.526-4.763-14.025c-3.175-4.499-10.056-8.468-14.554-17.2
			c-4.499-8.732-9.526-12.966-9.262-0.529c0.265,12.437,5.822,18.788,12.702,23.022C49.632,337.595,58.629,342.094,58.629,342.094z"
			/>
		<path style="fill:#92E3A9;" d="M55.718,358.5c0,0-6.351-12.172-15.613-21.169c-9.262-8.997-16.671-13.496-14.025-8.997
			c2.646,4.499,5.822,4.234,10.32,12.173c4.499,7.939,3.175,13.76,9.526,18.259S55.718,358.5,55.718,358.5z"/>
		<path style="fill:#92E3A9;" d="M54.924,374.113c-0.264-0.794-0.529-6.615-9.526-11.379c-8.997-4.763-17.465-2.911-16.406-0.529
			c1.058,2.382,6.615,6.351,12.172,8.732C46.721,373.319,54.924,374.113,54.924,374.113z"/>
		<path style="fill:#92E3A9;" d="M82.18,342.623c0,0-3.969-5.028-1.853-15.612c2.117-10.585,6.88-7.939,12.173-13.496
			c5.292-5.557,4.234-6.351,9.526-12.172c5.293-5.822,10.056-8.997,12.173-6.616c2.117,2.382-1.058,9.791-4.234,14.025
			c-3.175,4.234-8.203,6.351-10.585,11.643c-2.382,5.292-1.323,13.76-7.409,17.729C85.885,342.094,82.18,342.623,82.18,342.623z"/>
		<path style="fill:#92E3A9;" d="M95.411,345.534c0,0,9.526-10.85,16.407-18.788c6.88-7.939,9.526-14.025,9.791-8.733
			c0.264,5.292,2.382,9.526-3.176,16.406C112.876,341.3,95.411,345.534,95.411,345.534z"/>
		<path style="fill:#92E3A9;" d="M90.383,362.999c0,0-0.265-4.234,14.819-14.025c15.083-9.791,21.434-11.643,19.847-7.674
			c-1.588,3.969-8.203,7.938-15.348,15.083C102.555,363.528,90.383,362.999,90.383,362.999z"/>
		<path style="fill:none;stroke:#ABABAB;stroke-linecap:round;stroke-linejoin:round;stroke-miterlimit:10;" d="M62.963,325.354
			c0,0-3.54-18.983-7.245-32.479c-3.705-13.496-6.086-21.699-6.086-21.699"/>
		<path style="fill:none;stroke:#ABABAB;stroke-linecap:round;stroke-linejoin:round;stroke-miterlimit:10;" d="M82.1,307.893
			c0,0,6.431-20.575,8.548-33.013c2.117-12.437-0.265-21.699-1.323-27.256"/>
		<path style="fill:none;stroke:#ABABAB;stroke-linecap:round;stroke-linejoin:round;stroke-miterlimit:10;" d="M57.795,341.696
			c0,0-3.929-7.012-9.75-13.892c-5.822-6.88-10.32-10.585-12.966-17.2"/>
		<path style="fill:none;stroke:#ABABAB;stroke-linecap:round;stroke-linejoin:round;stroke-miterlimit:10;" d="M82.18,342.623
			c0,0,2.117-12.702,7.145-19.317c5.028-6.615,15.083-16.935,19.052-23.551"/>
		<path style="fill:none;stroke:#ABABAB;stroke-linecap:round;stroke-linejoin:round;stroke-miterlimit:10;" d="M54.302,373.824
			c0,0-8.904-5.797-15.255-8.973"/>
		<path style="fill:#263238;" d="M78.817,463.416H67.167c-2.062,0-3.925-1.235-4.718-3.138c-3.806-9.119-7.848-52.738-7.848-52.738
			h36.782c0,0-4.043,43.619-7.848,52.738C82.741,462.181,80.879,463.416,78.817,463.416z"/>
		<path style="fill:#92E3A9;" d="M76.001,346.874c0,0-7.166,1.886-10.937-1.509c-3.771-3.394-9.429-4.149-10.56,0.754
			c-1.132,4.903,0.377,9.806,3.771,16.972c3.394,7.166,8.583,2.181,8.674-0.754c0.091-2.935,3.622-5.247,8.034-4.321
			C79.395,358.943,86.938,348.383,76.001,346.874z"/>
		<path style="fill:#92E3A9;" d="M88.447,366.109c0,0,3.265,4.144-5.345,1.695c-8.61-2.449-12.314-4.454-13.102,0.697
			c-0.788,5.151,6.001,6.283,10.527,7.414c4.526,1.132,8.297,9.052,11.314,13.954c3.017,4.903,9.051-0.754,5.657-12.446
			C94.104,365.732,94.716,360.654,88.447,366.109z"/>
	</g>
</g>
<g id="Diagram">
	<g>
		
			<rect x="188.98" y="36.313" style="opacity:0.3;fill:none;stroke:#000000;stroke-linejoin:round;stroke-miterlimit:10;" width="384.479" height="216.685"/>
		
			<rect x="188.98" y="232.84" style="opacity:0.3;fill:none;stroke:#000000;stroke-linejoin:round;stroke-miterlimit:10;" width="384.479" height="20.158"/>
		<g style="opacity:0.3;">
			
				<rect x="226.404" y="72.735" style="fill:none;stroke:#000000;stroke-linejoin:round;stroke-miterlimit:10;" width="61.175" height="40.376"/>
			
				<rect x="217.135" y="148.004" style="fill:none;stroke:#000000;stroke-linejoin:round;stroke-miterlimit:10;" width="22.709" height="24.425"/>
			
				<rect x="254.211" y="148.004" style="fill:none;stroke:#000000;stroke-linejoin:round;stroke-miterlimit:10;" width="22.709" height="24.425"/>
			
				<rect x="291.287" y="148.004" style="fill:none;stroke:#000000;stroke-linejoin:round;stroke-miterlimit:10;" width="22.709" height="24.425"/>
			
				<rect x="470.178" y="116.601" style="fill:none;stroke:#000000;stroke-linejoin:round;stroke-miterlimit:10;" width="22.709" height="24.425"/>
			<polyline style="fill:none;stroke:#000000;stroke-linejoin:round;stroke-miterlimit:10;" points="288.043,91.178 352.926,91.178 
				352.926,67.252 480.838,67.252 480.838,117.099 			"/>
			
				<rect x="503.083" y="111.616" style="fill:none;stroke:#000000;stroke-linejoin:round;stroke-miterlimit:10;" width="43.564" height="9.969"/>
			
				<rect x="503.083" y="129.561" style="fill:none;stroke:#000000;stroke-linejoin:round;stroke-miterlimit:10;" width="43.564" height="9.969"/>
			
				<rect x="503.083" y="147.506" style="fill:none;stroke:#000000;stroke-linejoin:round;stroke-miterlimit:10;" width="43.564" height="9.969"/>
			
				<rect x="503.083" y="165.451" style="fill:none;stroke:#000000;stroke-linejoin:round;stroke-miterlimit:10;" width="43.564" height="9.969"/>
			
				<rect x="503.083" y="183.396" style="fill:none;stroke:#000000;stroke-linejoin:round;stroke-miterlimit:10;" width="43.564" height="9.969"/>
			
				<line style="fill:none;stroke:#000000;stroke-linejoin:round;stroke-miterlimit:10;" x1="254.211" y1="113.61" x2="254.211" y2="135.044"/>
			<polyline style="fill:none;stroke:#000000;stroke-linejoin:round;stroke-miterlimit:10;" points="228.258,147.506 
				228.258,134.546 302.901,134.546 302.901,147.506 			"/>
			
				<line style="fill:none;stroke:#000000;stroke-linejoin:round;stroke-miterlimit:10;" x1="265.797" y1="148.004" x2="265.797" y2="135.044"/>
			<g>
				
					<line style="fill:none;stroke:#000000;stroke-linejoin:round;stroke-miterlimit:10;" x1="245.174" y1="84.698" x2="268.81" y2="84.698"/>
				
					<line style="fill:none;stroke:#000000;stroke-linejoin:round;stroke-miterlimit:10;" x1="245.174" y1="101.148" x2="268.81" y2="101.148"/>
				
					<line style="fill:none;stroke:#000000;stroke-linejoin:round;stroke-miterlimit:10;" x1="237.759" y1="92.674" x2="276.225" y2="92.674"/>
			</g>
		</g>
	</g>
</g>
<g id="Pallet">
	
		<rect x="99.965" y="389.525" style="fill:#7D7D7D;stroke:#263238;stroke-linejoin:round;stroke-miterlimit:10;" width="519.272" height="73.891"/>
</g>
<g id="Character_5">
	<g>
		<path style="fill:#FFFFFF;stroke:#263238;stroke-linejoin:round;stroke-miterlimit:10;" d="M331.461,367.116
			c0,0-1.345,8.297-1.57,8.969c-0.224,0.673-3.812,8.297-4.26,10.315c-0.448,2.018,2.467,3.139,4.26,3.139
			c1.794,0,11.66,0.673,12.781-0.224c1.121-0.897,2.242-3.812,2.018-6.055c-0.224-2.242-1.794-15.921-1.794-15.921L331.461,367.116z
			"/>
		<path style="fill:#FFFFFF;stroke:#263238;stroke-linejoin:round;stroke-miterlimit:10;" d="M390.436,368.467
			c0,0,2.691,4.26,4.036,5.382c1.346,1.121,9.418,9.418,12.109,10.315c2.691,0.897,2.242,2.915,0.673,4.485
			c-1.57,1.57-10.091,1.121-14.576,0.673c-4.485-0.448-9.637-0.027-10.309-0.252c-0.673-0.224-4.933-0.224-6.951-1.346
			c-2.018-1.121-1.121-9.418-1.121-9.418L390.436,368.467z"/>
		<path style="fill:#263238;stroke:#263238;stroke-linejoin:round;stroke-miterlimit:10;" d="M342.673,221.278
			c0,0-5.158,20.63-4.709,34.757c0.448,14.127-2.691,50.453-2.691,51.575c0,1.121-2.467,7.624-2.467,13.678
			c0,6.054-0.673,40.223-0.673,40.223s-2.691,0.449-2.242,2.915c0.448,2.467,0.897,6.054,0.897,6.054s4.036,0.224,7.176,0.673
			c3.139,0.448,5.83-0.224,5.83-0.224s2.018-5.606,2.242-8.521c0.224-2.915-0.449-3.896-0.449-7.26
			c0-3.364,19.284-100.01,19.284-100.01l7.176,56.956c0,0,0.454,28.899,1.8,36.972c1.345,8.073,1.345,13.993,1.345,13.993
			s-0.673,6.054-0.897,6.727c-0.224,0.673-1.121,1.121-0.673,2.915c0.448,1.794,0.673,5.606,0.673,5.606s3.806-2.439,8.291-4.009
			c4.485-1.57,9.642-4.036,9.642-4.036s-0.897-3.588-0.897-4.709c0-1.121-1.121-1.57-1.121-2.467c0-0.897,1.794-41.125,2.467-55.252
			c0.673-14.127,0.673-63.235,0.673-63.235l-5.382-23.321l-1.121-4.485l-43.278-0.224L342.673,221.278z"/>
		<path style="fill:#FFFFFF;stroke:#263238;stroke-linejoin:round;stroke-miterlimit:10;" d="M348.268,221.085
			c0,0,12.073,3.659,20.488,2.927c8.415-0.732,12.073-2.378,12.073-2.378l2.195-29.451l1.646-40.061l0.183-6.585
			c0,0-11.159-3.293-14.451-3.659c-3.293-0.366-13.161-0.893-13.161-0.893l-10.986,6.015L348.268,221.085z"/>
		<g>
			<path style="fill:#FFFFFF;stroke:#263238;stroke-linejoin:round;stroke-miterlimit:10;" d="M356.294,130.961l0.948,10.023
				c0,0,0.677,2.438,2.032,4.199c1.354,1.761,6.095,5.147,6.095,5.147l2.303,7.585l2.303-7.856c0,0,2.709-1.084,4.199-3.657
				c1.49-2.573,2.167-6.637,2.167-6.637l0.542-4.876c0,0-5.553,2.032-9.752,0.948C362.931,134.754,356.294,130.961,356.294,130.961z
				"/>
			<polyline style="fill:none;stroke:#263238;stroke-linejoin:round;stroke-miterlimit:10;" points="365.369,150.33 
				361.073,159.987 358.512,153.951 			"/>
			<polyline style="fill:none;stroke:#263238;stroke-linejoin:round;stroke-miterlimit:10;" points="369.974,150.059 
				373.329,158.707 375.707,155.048 			"/>
		</g>
		<g>
			<path style="fill:#FFFFFF;stroke:#263238;stroke-linejoin:round;stroke-miterlimit:10;" d="M352.275,119.501
				c0,0-2.571-2.442-3.342,1.285c-0.771,3.728,2.314,6.813,3.214,7.327c0.9,0.514,2.442,0.771,2.442,0.771s1.414,4.37,4.627,7.07
				c3.214,2.699,8.355,5.527,14.782,2.828c6.427-2.699,5.913-10.669,5.527-16.839c-0.386-6.17-1.8-17.225-3.856-21.338
				c-2.057-4.113-10.155-5.27-16.582-3.856c-6.427,1.414-9.641,8.355-9.898,12.211C348.933,112.817,352.275,119.501,352.275,119.501
				z"/>
			<g>
				<path style="fill:#FFFFFF;stroke:#263238;stroke-linejoin:round;stroke-miterlimit:10;" d="M352.275,119.501
					c0,0-0.777-0.733-1.604-0.779L352.275,119.501z"/>
				<path style="fill:#263238;stroke:#263238;stroke-linejoin:round;stroke-miterlimit:10;" d="M359.216,135.955
					c3.214,2.699,8.355,5.527,14.782,2.828c6.427-2.699,5.913-10.669,5.527-16.839c-0.074-1.183-0.186-2.548-0.333-4.007
					l-0.052-0.106l-1.414,10.026c0,0-0.386-1.028-4.37-3.471s-7.713,0-9.769,1.285c-2.057,1.285-4.242,3.599-4.242,3.599
					s-2.185-1.028-3.599-3.985c-1.414-2.956-1.671-6.041-1.671-6.041s2.571-3.085,1.8-5.27c-0.771-2.185-1.414-1.414-1.928-3.985
					c-0.514-2.571-1.157-5.399,0.643-6.941c1.8-1.542,6.427-1.671,8.355-0.386c1.928,1.285,3.728,2.057,5.913,0.771
					c2.185-1.285,3.085-2.699,4.627-2.314c0.849,0.212,2.125,1.125,3.102,1.903c-0.289-0.941-0.594-1.772-0.917-2.417
					c-2.057-4.113-10.155-5.27-16.582-3.856c-6.427,1.414-9.641,8.355-9.898,12.211s3.085,10.54,3.085,10.54l2.314,9.383
					C354.588,128.885,356.002,133.255,359.216,135.955z"/>
			</g>
			<path style="fill:#FFFFFF;stroke:#263238;stroke-linejoin:round;stroke-miterlimit:10;" d="M369.371,112.175
				c0,0,0.514,9.255,1.8,11.183c1.285,1.928,1.157,2.699-0.9,2.314c-2.057-0.386-3.985-2.571-3.985-3.856"/>
			<path style="fill:none;stroke:#FFFFFF;stroke-linecap:round;stroke-linejoin:round;stroke-miterlimit:10;" d="M364.486,127.6
				c0,0,2.571,3.214,8.355,1.414"/>
			<path style="fill:#263238;" d="M363.322,116.803c0.152,0.986-0.135,1.849-0.641,1.927c-0.506,0.078-1.039-0.659-1.191-1.645
				c-0.152-0.986,0.135-1.849,0.641-1.927C362.637,115.08,363.17,115.817,363.322,116.803z"/>
			<path style="fill:#263238;" d="M374.534,116.016c0.152,0.986-0.135,1.849-0.641,1.927c-0.506,0.078-1.039-0.659-1.191-1.645
				c-0.152-0.986,0.135-1.849,0.641-1.927C373.85,114.293,374.383,115.029,374.534,116.016z"/>
			<path style="fill:none;stroke:#263238;stroke-linecap:round;stroke-linejoin:round;stroke-miterlimit:10;" d="M359.348,112.821
				c0,0,1.39-1.39,4.726-1.483"/>
			<path style="fill:none;stroke:#263238;stroke-linecap:round;stroke-linejoin:round;stroke-miterlimit:10;" d="M371.116,110.874
				c0,0,1.761-1.946,5.004,0.556"/>
			<path style="fill:#FFFFFF;stroke:#263238;stroke-linejoin:round;stroke-miterlimit:10;" d="M378.993,115.323
				c0,0,1.853-0.927,2.131,2.131c0.278,3.058-1.297,5.56-1.297,5.56L378.993,115.323z"/>
		</g>
		<g>
			<path style="fill:#FFFFFF;stroke:#263238;stroke-linejoin:round;stroke-miterlimit:10;" d="M319.182,166.99
				c0,0-2.167-6.366-2.032-6.908c0.135-0.542-0.406-4.063-1.219-5.418c-0.813-1.355-0.677-0.948-1.896-2.98
				c-1.219-2.032-2.98-4.605-3.386-5.689c-0.406-1.084-1.761,1.625-0.948,3.251c0.813,1.625,2.709,4.47,2.709,4.47
				s-0.677,0.135-1.354-0.271c-0.677-0.406-1.354-0.677-1.354-0.677l-2.303-1.219c0,0-3.522-3.115-4.063-3.386
				c-0.542-0.271-2.844-7.179-4.063-6.366s0.135,2.574,0.271,3.928c0.135,1.354,1.49,6.908,1.761,7.585
				c0.271,0.677,3.251,4.605,4.876,6.772c1.625,2.167,5.147,4.605,5.147,4.605l2.438,8.262L319.182,166.99z"/>
			<path style="fill:#FFFFFF;stroke:#263238;stroke-linejoin:round;stroke-miterlimit:10;" d="M306.324,158.532
				c0,0,0.087-2.005,0.261-3.138c0.174-1.133,2.963-8.193,3.486-7.234c0.523,0.959,0.523,2.789,0.174,3.486
				c-0.349,0.697-1.395,3.225-1.395,3.225l0.959,3.835c0,0,2.527,0.261,3.66,1.307c1.133,1.046,1.83,3.399,1.83,3.399"/>
			<path style="fill:#FFFFFF;stroke:#263238;stroke-linejoin:round;stroke-miterlimit:10;" d="M305.016,157.137
				c0,0-1.046-2.353-0.872-3.486c0.174-1.133,1.918-8.105,1.918-8.105s1.22-0.61,1.307,0.697c0.087,1.307-0.697,5.055-0.872,5.578
				c-0.174,0.523,0.087,3.573,0.087,3.573"/>
			<path style="fill:#FFFFFF;stroke:#263238;stroke-linejoin:round;stroke-miterlimit:10;" d="M304.058,154.348
				c0,0-1.83-2.353-1.83-3.573s0.436-7.582,0.697-8.367c0.261-0.785,0.959-0.61,1.22,1.394c0.262,2.005-0.261,5.665-0.261,5.665
				l0.697,2.092"/>
		</g>
		<g>
			<path style="fill:#92E3A9;stroke:#263238;stroke-linejoin:round;stroke-miterlimit:10;" d="M356.7,139.765l0.677,25.464
				c0,0,2.303,31.965,2.844,36.435c0.542,4.47-6.095,51.334-6.095,51.334s-7.585-1.084-15.441-2.844
				c-7.856-1.761-10.971-3.522-10.971-3.522l11.784-46.729c0,0-11.919,13.003-12.732,13.274c-0.813,0.271-1.49,0-2.574-1.625
				c-1.084-1.625-14.222-38.06-14.222-38.06l9.21-6.501l9.075,14.764c0,0,5.418-29.934,5.96-31.017
				C334.758,149.653,356.7,139.765,356.7,139.765z"/>
			<path style="fill:none;stroke:#263238;stroke-linejoin:round;stroke-miterlimit:10;" d="M351.824,142.745
				c0,0-2.98,18.421-0.948,28.037c2.032,9.617,7.72,27.631,7.72,27.631"/>
			<polyline style="fill:none;stroke:#263238;stroke-linejoin:round;stroke-miterlimit:10;" points="339.499,199.903 
				340.447,195.163 337.06,161.301 			"/>
			
				<line style="fill:none;stroke:#263238;stroke-linejoin:round;stroke-miterlimit:10;" x1="328.257" y1="181.753" x2="330.83" y2="189.745"/>
		</g>
		<g>
			<path style="fill:#FFFFFF;stroke:#263238;stroke-linejoin:round;stroke-miterlimit:10;" d="M426.011,169.709
				c0,0,3.922-5.463,3.95-6.02c0.028-0.558,1.568-3.77,2.739-4.831c1.171-1.06,0.923-0.711,2.68-2.301s4.189-3.542,4.892-4.461
				s1.213,2.066-0.036,3.386c-1.25,1.319-3.89,3.491-3.89,3.491s0.609,0.326,1.375,0.134c0.766-0.192,1.493-0.255,1.493-0.255
				l2.557-0.498c0,0,4.274-1.959,4.872-2.061c0.597-0.102,4.806-6.044,5.737-4.912c0.931,1.132-0.877,2.423-1.4,3.68
				c-0.523,1.257-3.431,6.178-3.887,6.747c-0.456,0.569-4.448,3.463-6.632,5.065c-2.185,1.602-6.262,2.913-6.262,2.913l-4.732,7.199
				L426.011,169.709z"/>
			<path style="fill:#FFFFFF;stroke:#263238;stroke-linejoin:round;stroke-miterlimit:10;" d="M440.771,165.348
				c0,0,0.499-1.943,0.661-3.078c0.162-1.135-0.457-8.7-1.236-7.935c-0.779,0.766-1.31,2.517-1.179,3.286
				c0.131,0.768,0.398,3.491,0.398,3.491l-2.031,3.391c0,0-2.495-0.484-3.883,0.188c-1.388,0.672-2.738,2.721-2.738,2.721"/>
			<path style="fill:#FFFFFF;stroke:#263238;stroke-linejoin:round;stroke-miterlimit:10;" d="M442.427,164.394
				c0,0,1.684-1.948,1.846-3.083c0.162-1.135,0.518-8.313,0.518-8.313s-0.991-0.938-1.453,0.288c-0.463,1.226-0.8,5.04-0.785,5.591
				c0.015,0.551-1.121,3.394-1.121,3.394"/>
			<path style="fill:#FFFFFF;stroke:#263238;stroke-linejoin:round;stroke-miterlimit:10;" d="M444.154,162.003
				c0,0,2.435-1.72,2.789-2.888c0.354-1.168,1.784-7.382,1.762-8.209c-0.022-0.826-0.74-0.862-1.573,0.98s-1.395,5.497-1.395,5.497
				l-1.275,1.799"/>
		</g>
		<g>
			<path style="fill:#92E3A9;stroke:#263238;stroke-linejoin:round;stroke-miterlimit:10;" d="M376.34,139.765
				c0,0,0.648,13.454-0.266,23.88c-0.915,10.427-4.573,36.951-4.207,37.683c0.366,0.732,5.488,51.036,5.488,51.036
				s10.427,0.366,16.28-0.915c5.854-1.281,10.427-3.293,10.427-3.293s-13.354-49.207-13.537-49.939
				c-0.183-0.732,2.012-7.134,2.012-7.134s12.988,14.817,15.183,14.451c2.195-0.366,25.061-30.549,25.061-30.549l-7.134-7.683
				l-15.915,13.72c0,0-10.244-25.244-11.341-27.439c-1.098-2.195-3.659-4.756-4.207-5.305S376.34,139.765,376.34,139.765z"/>
			<path style="fill:none;stroke:#263238;stroke-linejoin:round;stroke-miterlimit:10;" d="M380.829,143.524
				c0,0,2.012,9.329,0.732,21.036c-1.28,11.707-8.415,34.573-8.415,34.573"/>
			
				<line style="fill:none;stroke:#263238;stroke-linejoin:round;stroke-miterlimit:10;" x1="392.537" y1="191.085" x2="396.744" y2="164.926"/>
			
				<line style="fill:none;stroke:#263238;stroke-linejoin:round;stroke-miterlimit:10;" x1="409.732" y1="181.024" x2="409.549" y2="188.341"/>
		</g>
	</g>
</g>
<g id="Character_4">
	<g>
		<g>
			<g>
				<path style="fill:#FFFFFF;stroke:#263238;stroke-linejoin:round;stroke-miterlimit:10;" d="M556.289,238.978
					c0,0-8.784,1.996-11.179,5.789c-2.396,3.793-5.19,12.776-4.392,16.17c0.799,3.394,4.592,12.777,7.586,15.172
					c2.994,2.395,8.983,5.789,13.375,5.789s12.577-5.789,13.375-8.584c0.798-2.795,2.995-10.78,3.194-14.374
					c0.2-3.593,1.797-9.383-5.19-14.773C566.071,238.778,563.675,237.381,556.289,238.978z"/>
				<path style="fill:#FFFFFF;stroke:#263238;stroke-linejoin:round;stroke-miterlimit:10;" d="M575.055,273.314
					c0.799-2.795,2.995-10.78,3.194-14.374c0.151-2.712,1.092-6.675-1.456-10.773c-0.235,1.739-1.189,6.287-2.736,8.178
					c-1.797,2.196-9.782,6.388-20.163,4.192c-7.474-1.581-10.591-6.358-11.756-8.916c-1.152,3.589-1.877,7.37-1.419,9.315
					c0.798,3.394,4.591,12.777,7.586,15.172c2.995,2.395,8.984,5.789,13.375,5.789S574.256,276.109,575.055,273.314z"/>
				<path style="fill:#FFFFFF;stroke:#263238;stroke-linejoin:round;stroke-miterlimit:10;" d="M540.718,260.937
					c0,0-2.595-0.998-2.995,1.597c-0.399,2.595,1.198,7.985,3.394,9.183c2.196,1.198,4.192,0,4.192,0L540.718,260.937z"/>
				<path style="fill:#FFFFFF;stroke:#263238;stroke-linejoin:round;stroke-miterlimit:10;" d="M578.249,260.538
					c0,0,3.993-3.194,3.593,1.797c-0.399,4.991-5.789,8.784-5.789,8.784L578.249,260.538z"/>
			</g>
			<path style="fill:#263238;stroke:#263238;stroke-linejoin:round;stroke-miterlimit:10;" d="M581.044,288.287
				c0,0-5.59-8.784-6.189-9.383c-0.599-0.599-9.582-1.996-15.172-1.996c-5.59,0-14.773,2.396-14.773,2.396l-4.791,9.982
				C540.119,289.285,562.478,283.496,581.044,288.287z"/>
			<path style="fill:none;stroke:#263238;stroke-linejoin:round;stroke-miterlimit:10;" d="M512.57,348.576
				c0,0-1.597,8.185-0.599,10.381c0.998,2.196,4.791,4.392,6.787,4.392c1.996,0,6.189-0.998,6.189-0.998l0.799-11.579
				L512.57,348.576z"/>
			<path style="fill:none;stroke:#263238;stroke-linejoin:round;stroke-miterlimit:10;" d="M606.397,342.387
				c0,0,0.799,9.582,0.2,11.179c-0.599,1.597-3.993,4.591-6.388,5.19c-2.396,0.599-5.789,0.998-6.388,0.799
				c-0.599-0.2-2.595-14.374-2.595-14.374L606.397,342.387z"/>
			<g>
				<path style="fill:#263238;stroke:#263238;stroke-linejoin:round;stroke-miterlimit:10;" d="M555.69,445.397
					c0,0-0.399,14.374,0.599,15.771c0.998,1.397,5.789,3.194,10.98,2.595c5.19-0.599,7.386-2.196,7.386-3.194
					c0-0.998-0.2-13.775-0.2-13.775S558.285,445.796,555.69,445.397z"/>
				<path style="fill:#FFFFFF;stroke:#263238;stroke-linejoin:round;stroke-miterlimit:10;" d="M574.655,460.569
					c0-0.222-0.01-1.027-0.025-2.142c-6.866,3.033-14.7,1.336-18.831,0.023c0.104,1.373,0.259,2.396,0.49,2.719
					c0.998,1.397,5.789,3.194,10.98,2.595C572.459,463.164,574.655,461.567,574.655,460.569z"/>
			</g>
			<path style="fill:#92E3A9;stroke:#263238;stroke-linejoin:round;stroke-miterlimit:10;" d="M551.099,392.894
				c0,0,4.591,32.141,4.392,36.533c-0.2,4.392,0.2,6.588,0.2,6.588s-1.797,0.998-1.797,2.595c0,1.597,1.797,6.788,1.797,6.788
				s-0.2,0.799,4.991,1.797c5.19,0.998,12.377,0.599,13.775-0.399c1.397-0.998,1.397-5.59,1.198-8.584s-2.595-9.183-2.595-11.579
				c0-2.395,3.194-35.734,3.194-35.734S558.285,394.291,551.099,392.894z"/>
			<g>
				<path style="fill:#263238;stroke:#263238;stroke-linejoin:round;stroke-miterlimit:10;" d="M585.435,435.415
					c0,0,2.994,9.982,3.793,11.778c0.799,1.797,3.993,3.793,5.59,3.793c1.597,0,10.181-2.795,11.379-3.394
					c1.198-0.599,3.394-4.192,2.396-7.386c-0.998-3.194-5.989-13.375-5.989-13.375L585.435,435.415z"/>
				<path style="fill:#FFFFFF;stroke:#263238;stroke-linejoin:round;stroke-miterlimit:10;" d="M606.197,447.593
					c1.099-0.549,3.03-3.618,2.573-6.588c-2.082,1.372-5.195,3.308-8.562,4.991c-3.34,1.67-7.112,2.408-9.798,2.734
					c1.315,1.237,3.267,2.257,4.408,2.257C596.415,450.987,604.999,448.192,606.197,447.593z"/>
			</g>
			<path style="fill:#92E3A9;stroke:#263238;stroke-linejoin:round;stroke-miterlimit:10;" d="M571.261,402.277
				c0,0,7.786,15.571,9.183,17.967c1.397,2.396,2.396,4.192,2.396,4.192s-1.198,1.797-0.799,3.593
				c0.399,1.797,3.394,7.386,3.394,7.386s4.591,0.998,8.185-0.2c3.593-1.198,7.786-4.591,8.185-5.39
				c0.399-0.799,0.799-2.994,0.799-2.994s-0.799-3.394-2.595-7.786s-3.793-7.786-4.591-11.579c-0.799-3.793-5.19-19.963-5.19-19.963
				l-22.958,4.991L571.261,402.277z"/>
			<path style="fill:#92E3A9;stroke:#263238;stroke-linejoin:round;stroke-miterlimit:10;" d="M521.553,370.136
				c0,0-0.998,6.987-0.599,10.181c0.399,3.194,0.998,7.187,10.98,10.98c9.982,3.793,19.963,6.388,27.948,5.789
				c7.985-0.599,22.758-4.192,25.952-5.789c3.194-1.597,5.848-4.622,8.014-6.703c2.167-2.081,2.766-9.667,2.367-12.661
				c-0.399-2.995-1.198-4.991-1.198-4.991S561.48,375.725,521.553,370.136z"/>
			<path style="fill:#263238;stroke:#263238;stroke-linejoin:round;stroke-miterlimit:10;" d="M540.119,289.285
				c0,0-9.582,8.784-13.974,12.177s-8.784,7.586-8.784,8.784c0,1.198-11.778,37.331-11.778,37.331s4.592,5.789,14.573,6.788h2.795
				c0,0-1.397,14.374-1.397,15.771c0,1.397,18.765,7.985,40.725,6.189c21.96-1.797,32.34-7.386,32.74-9.383
				c0.399-1.996-0.399-5.989-0.399-8.983c0-2.995-0.599-8.784-0.599-8.784s5.59,0.599,9.782-0.998
				c4.192-1.597,10.381-7.187,10.381-7.187s-11.978-25.753-13.775-31.542c-1.797-5.789-19.364-21.161-19.364-21.161
				S564.674,283.096,540.119,289.285z"/>
		</g>
		<g>
			<path style="fill:#B2B2B2;stroke:#263238;stroke-linejoin:round;stroke-miterlimit:10;" d="M522.224,322.06l1.57,45.745
				c0,0,35.878,8.073,69.289,0l2.691-45.072C595.773,322.733,535.454,324.975,522.224,322.06z"/>
			
				<line style="fill:none;stroke:#263238;stroke-width:3;stroke-linecap:round;stroke-linejoin:round;stroke-miterlimit:10;" x1="523.793" y1="367.805" x2="517.515" y2="464.182"/>
			
				<line style="fill:none;stroke:#263238;stroke-width:3;stroke-linecap:round;stroke-linejoin:round;stroke-miterlimit:10;" x1="592.892" y1="367.805" x2="599.171" y2="464.182"/>
			<path style="fill:#B2B2B2;stroke:#263238;stroke-linejoin:round;stroke-miterlimit:10;" d="M522.498,384.756
				c0,0,19.317,10.214,37.569,9.944c18.991-0.281,33.782-10.106,33.782-10.106l0.971,10.517c0,0-32.995,13.785-72.645-0.647
				L522.498,384.756z"/>
		</g>
	</g>
</g>
<g id="Character_3">
	<g>
		<g>
			<g>
				<path style="fill:#FFFFFF;stroke:#263238;stroke-linejoin:round;stroke-miterlimit:10;" d="M454.227,392.267
					c0,0,8.271,34.139,9.586,37.775c1.316,3.636,2.82,1.616,4.511,6.06c1.692,4.444,2.068,8.282,3.947,10.706
					c1.88,2.424,6.767,3.434,8.271,7.07c1.504,3.636,2.444,6.666-3.384,7.878c-5.827,1.212-11.09-2.222-13.534-7.474
					c-2.444-5.252-5.827-19.998-5.827-19.998s-22.932-32.118-25.564-38.178c-2.632-6.06-2.632-6.06-2.632-6.06L454.227,392.267z"/>
				<path style="fill:#263238;stroke:#263238;stroke-linejoin:round;stroke-miterlimit:10;" d="M465.881,433.072l0.563,0.074
					c0.599,0.486,1.225,1.235,1.88,2.956c1.692,4.444,2.068,8.282,3.947,10.706c1.88,2.424,6.767,3.434,8.271,7.07
					c1.504,3.636,2.443,6.666-3.384,7.878c-5.827,1.212-11.09-2.222-13.534-7.474c-2.444-5.252-5.827-19.998-5.827-19.998
					C461.37,428.628,465.881,433.072,465.881,433.072z"/>
			</g>
			<g>
				<path style="fill:#FFFFFF;stroke:#263238;stroke-linejoin:round;stroke-miterlimit:10;" d="M459.876,392.267
					c0,0-8.271,34.139-9.586,37.775c-1.316,3.636-2.819,1.616-4.511,6.06c-1.692,4.444-2.068,8.282-3.947,10.706
					c-1.88,2.424-6.767,3.434-8.271,7.07c-1.504,3.636-2.444,6.666,3.383,7.878c5.827,1.212,11.09-2.222,13.534-7.474
					c2.444-5.252,5.827-19.998,5.827-19.998s22.932-32.118,25.564-38.178c2.632-6.06,2.632-6.06,2.632-6.06L459.876,392.267z"/>
				<path style="fill:#263238;stroke:#263238;stroke-linejoin:round;stroke-miterlimit:10;" d="M448.222,433.072l-0.563,0.074
					c-0.599,0.486-1.225,1.235-1.88,2.956c-1.692,4.444-2.068,8.282-3.947,10.706s-6.767,3.434-8.271,7.07
					c-1.504,3.636-2.444,6.666,3.383,7.878c5.827,1.212,11.09-2.222,13.534-7.474c2.444-5.252,5.827-19.998,5.827-19.998
					C452.733,428.628,448.222,433.072,448.222,433.072z"/>
			</g>
			<g>
				<path style="fill:#FFFFFF;stroke:#263238;stroke-linejoin:round;stroke-miterlimit:10;" d="M434.132,286.532
					c0,0-12.03,5.075-12.218,7.331c-0.188,2.256-7.895,31.767-8.459,35.15c-0.564,3.383-3.759,11.466-1.316,14.85
					c2.444,3.383,6.767,5.639,9.586,5.827c2.82,0.188,3.947-1.504,3.947-1.504l-2.444,16.541c0,0-3.759,11.654-2.819,16.353
					c0.94,4.699,4.135,9.398,21.992,13.346c17.857,3.947,28.195,1.88,34.774-1.128c6.579-3.008,14.474-6.767,15.225-11.466
					c0.752-4.699-2.256-19.549-2.256-19.549l-1.504-15.977c0,0,9.023-0.188,12.406-4.511c3.383-4.323,2.256-8.646,0.94-12.406
					c-1.316-3.759-5.263-17.481-6.579-22.368s-2.256-13.346-3.759-15.413c-1.504-2.068-16.729-5.451-16.729-5.451
					S455.372,278.825,434.132,286.532z"/>
				
					<line style="fill:none;stroke:#263238;stroke-linejoin:round;stroke-miterlimit:10;" x1="427.177" y1="310.968" x2="431.312" y2="330.328"/>
				
					<line style="fill:none;stroke:#263238;stroke-linejoin:round;stroke-miterlimit:10;" x1="489.395" y1="312.284" x2="486.575" y2="329.389"/>
				<path style="fill:#92E3A9;stroke:#263238;stroke-linejoin:round;stroke-miterlimit:10;" d="M492.402,381.832
					c0.622-3.886-1.326-14.707-2.019-18.337c-22.388,6.277-54.066,2.155-66.975,0.025l-0.178,1.208c0,0-3.759,11.654-2.819,16.353
					c0.94,4.699,4.135,9.398,21.992,13.346c17.857,3.947,28.195,1.88,34.774-1.128C483.755,390.29,491.65,386.531,492.402,381.832z"
					/>
			</g>
			<path style="fill:#263238;stroke:#263238;stroke-linejoin:round;stroke-miterlimit:10;" d="M447.289,234.089
				c0,0-6.767-2.632-7.707,6.015c-0.94,8.646,3.195,18.985,3.383,21.24c0.188,2.256-12.782,21.616-9.774,28.007
				c3.007,6.391,9.586,14.85,18.985,16.165c9.398,1.316,16.729-0.376,23.684-6.579c6.955-6.203,8.459-7.519,8.271-10.902
				c-0.188-3.383-7.331-23.308-8.083-28.195c-0.752-4.887,3.759-14.286-1.692-23.308c-5.451-9.022-16.917-11.09-21.428-8.458
				C448.417,230.705,447.289,234.089,447.289,234.089z"/>
		</g>
		<g>
			<path style="fill:#B2B2B2;stroke:#263238;stroke-linejoin:round;stroke-miterlimit:10;" d="M420.215,322.06l1.57,45.745
				c0,0,35.878,8.073,69.289,0l2.691-45.072C493.765,322.733,433.445,324.975,420.215,322.06z"/>
			
				<line style="fill:none;stroke:#263238;stroke-width:3;stroke-linecap:round;stroke-linejoin:round;stroke-miterlimit:10;" x1="421.784" y1="367.805" x2="415.506" y2="464.182"/>
			
				<line style="fill:none;stroke:#263238;stroke-width:3;stroke-linecap:round;stroke-linejoin:round;stroke-miterlimit:10;" x1="490.883" y1="367.805" x2="497.162" y2="464.182"/>
			<path style="fill:#B2B2B2;stroke:#263238;stroke-linejoin:round;stroke-miterlimit:10;" d="M420.489,384.756
				c0,0,19.317,10.214,37.569,9.944c18.991-0.281,33.782-10.106,33.782-10.106l0.971,10.517c0,0-32.995,13.785-72.645-0.647
				L420.489,384.756z"/>
		</g>
	</g>
</g>
<g id="Character_2">
	<g>
		<g>
			<polygon style="fill:#FFFFFF;stroke:#263238;stroke-linejoin:round;stroke-miterlimit:10;" points="258.291,258.4 
				256.786,277.426 286.134,276.426 283.876,259.528 			"/>
			<g>
				<path style="fill:#263238;stroke:#263238;stroke-linejoin:round;stroke-miterlimit:10;" d="M291.952,231.229
					c-1.371-4.114-6.857-4.343-8.685-5.485c-1.828-1.143-1.371-4.114-6.4-5.943c-5.028-1.828-7.999-1.6-10.514,0.686
					c-2.127,1.934-4.9,5.493-5.706,6.546c-2.677,1.334-5.356,2.989-6.407,4.653c-2.396,3.793-3.177,12.76-2.379,16.153
					c0.799,3.394,4.592,12.776,7.586,15.172c2.994,2.396,8.983,5.789,13.375,5.789c4.392,0,12.577-5.789,13.375-8.584
					c0.799-2.795,2.995-10.78,3.194-14.374c0.64-2.756,0.96-3.415,1.417-4.558C291.267,240.143,293.324,235.343,291.952,231.229z"/>
				<path style="fill:#FFFFFF;stroke:#263238;stroke-linejoin:round;stroke-miterlimit:10;" d="M251.861,247.839
					c0,0-2.595-0.998-2.994,1.597c-0.399,2.595,1.198,7.985,3.394,9.183c2.196,1.198,4.192,0,4.192,0L251.861,247.839z"/>
				<path style="fill:#FFFFFF;stroke:#263238;stroke-linejoin:round;stroke-miterlimit:10;" d="M289.392,247.44
					c0,0,3.993-3.194,3.593,1.797s-5.789,8.784-5.789,8.784L289.392,247.44z"/>
			</g>
			<path style="fill:#92E3A9;stroke:#263238;stroke-linejoin:round;stroke-miterlimit:10;" d="M295.916,283.766
				c0,0-6.608-10.224-7.316-10.921c-0.708-0.697-11.329-2.324-17.937-2.324c-6.608,0-17.465,2.788-17.465,2.788l-5.664,11.618
				C247.533,284.928,273.967,278.19,295.916,283.766z"/>
			<path style="fill:#FFFFFF;stroke:#263238;stroke-linejoin:round;stroke-miterlimit:10;" d="M223.713,348.576
				c0,0-1.597,8.185-0.599,10.381c0.998,2.196,4.791,4.392,6.787,4.392c1.996,0,6.189-0.998,6.189-0.998l0.799-11.579
				L223.713,348.576z"/>
			<path style="fill:#FFFFFF;stroke:#263238;stroke-linejoin:round;stroke-miterlimit:10;" d="M317.54,342.387
				c0,0,0.799,9.582,0.2,11.179c-0.599,1.597-3.993,4.591-6.388,5.19c-2.395,0.599-5.789,0.998-6.388,0.799
				c-0.599-0.2-2.595-14.374-2.595-14.374L317.54,342.387z"/>
			<g>
				<g>
					<path style="fill:#FFFFFF;stroke:#263238;stroke-linejoin:round;stroke-miterlimit:10;" d="M234.309,448.649l-6.503,5.503
						c0,0-5.003,1-3.752,4.752c0.576,1.728,9.255,7.504,13.007,8.254c3.752,0.75,10.505,0,12.256-2.501
						c1.751-2.501,0.5-14.258,0.5-14.258L234.309,448.649z"/>
					<path style="fill:#FFFFFF;stroke:#263238;stroke-linejoin:round;stroke-miterlimit:10;" d="M249.317,464.658
						c0.258-0.369,0.45-0.943,0.591-1.646c-3.244,0.946-8.655,1.849-12.347,1.146c-3.745-0.713-10.029-5.238-13.331-7.779
						c-0.379,0.656-0.525,1.481-0.176,2.526c0.576,1.728,9.255,7.504,13.007,8.254C240.812,467.909,247.566,467.159,249.317,464.658
						z"/>
				</g>
				<path style="fill:#263238;stroke:#263238;stroke-linejoin:round;stroke-miterlimit:10;" d="M239.562,368.607
					c0,0-8.254,0.75-10.756,8.004c-2.501,7.254,4.252,65.034,4.252,65.034s-1.251,3.752-1.001,4.502s0.75,4.753,0.75,4.753
					s1.251,2.251,6.754,2.251s10.255-2.751,10.255-2.751s-0.5-7.254-0.5-10.756c0-3.502-0.25-11.256-0.25-11.256l4.252-44.273
					C253.319,384.115,257.071,370.858,239.562,368.607z"/>
			</g>
			<g>
				<g>
					<path style="fill:#FFFFFF;stroke:#263238;stroke-linejoin:round;stroke-miterlimit:10;" d="M304.483,448.649l6.503,5.503
						c0,0,5.003,1,3.752,4.752c-0.576,1.728-9.255,7.504-13.007,8.254c-3.752,0.75-10.506,0-12.257-2.501
						c-1.751-2.501-0.5-14.258-0.5-14.258L304.483,448.649z"/>
					<path style="fill:#FFFFFF;stroke:#263238;stroke-linejoin:round;stroke-miterlimit:10;" d="M289.475,464.658
						c-0.258-0.369-0.45-0.943-0.591-1.646c3.244,0.946,8.655,1.849,12.347,1.146c3.745-0.713,10.029-5.238,13.331-7.779
						c0.379,0.656,0.525,1.481,0.176,2.526c-0.576,1.728-9.255,7.504-13.007,8.254C297.979,467.909,291.226,467.159,289.475,464.658
						z"/>
				</g>
				<path style="fill:#263238;stroke:#263238;stroke-linejoin:round;stroke-miterlimit:10;" d="M299.23,368.607
					c0,0,8.254,0.75,10.756,8.004c2.501,7.254-4.252,65.034-4.252,65.034s1.251,3.752,1,4.502c-0.25,0.75-0.75,4.753-0.75,4.753
					s-1.251,2.251-6.754,2.251s-10.255-2.751-10.255-2.751s0.5-7.254,0.5-10.756c0-3.502,0.25-11.256,0.25-11.256l-4.252-44.273
					C285.473,384.115,281.721,370.858,299.23,368.607z"/>
			</g>
			<path style="fill:#263238;stroke:#263238;stroke-linejoin:round;stroke-miterlimit:10;" d="M232.697,370.136
				c0,0-0.998,6.987-0.599,10.181c0.399,3.194,0.998,7.187,10.98,10.98c9.982,3.793,19.963,6.388,27.948,5.789
				c7.985-0.599,22.758-4.192,25.952-5.789c3.194-1.597,5.848-4.622,8.014-6.703c2.167-2.081,2.766-9.667,2.366-12.661
				s-1.198-4.991-1.198-4.991S272.623,375.725,232.697,370.136z"/>
			<path style="fill:#92E3A9;stroke:#263238;stroke-linejoin:round;stroke-miterlimit:10;" d="M251.263,282.899
				c0,0-9.582,3.89-13.974,7.284c-4.392,3.394-8.784,7.586-8.784,8.784c0,1.198-11.778,48.611-11.778,48.611
				s4.591,5.789,14.573,6.788h2.795c0,0-1.397,14.374-1.397,15.771c0,1.397,18.765,7.985,40.725,6.189s32.34-7.386,32.74-9.383
				c0.399-1.996-0.399-5.989-0.399-8.983c0-2.995-0.599-8.784-0.599-8.784s5.59,0.599,9.782-0.998
				c4.192-1.597,10.381-7.187,10.381-7.187s-11.978-37.032-13.775-42.821c-1.797-5.789-19.364-16.268-19.364-16.268
				S275.817,276.71,251.263,282.899z"/>
			
				<line style="fill:none;stroke:#263238;stroke-linejoin:round;stroke-miterlimit:10;" x1="233.497" y1="307.704" x2="238.324" y2="327.817"/>
			
				<line style="fill:none;stroke:#263238;stroke-linejoin:round;stroke-miterlimit:10;" x1="305.333" y1="315.627" x2="302.285" y2="327.817"/>
			
				<line style="fill:none;stroke:#263238;stroke-linejoin:round;stroke-miterlimit:10;" x1="307.112" y1="308.508" x2="306.229" y2="312.042"/>
		</g>
		<g>
			<path style="fill:#B2B2B2;stroke:#263238;stroke-linejoin:round;stroke-miterlimit:10;" d="M233.906,322.06l1.57,45.745
				c0,0,35.878,8.073,69.289,0l2.691-45.072C307.456,322.733,247.136,324.975,233.906,322.06z"/>
			
				<line style="fill:none;stroke:#263238;stroke-width:3;stroke-linecap:round;stroke-linejoin:round;stroke-miterlimit:10;" x1="235.476" y1="367.805" x2="229.197" y2="464.182"/>
			
				<line style="fill:none;stroke:#263238;stroke-width:3;stroke-linecap:round;stroke-linejoin:round;stroke-miterlimit:10;" x1="304.575" y1="367.805" x2="310.854" y2="464.182"/>
			<path style="fill:#B2B2B2;stroke:#263238;stroke-linejoin:round;stroke-miterlimit:10;" d="M234.181,384.756
				c0,0,19.318,10.214,37.569,9.944c18.991-0.281,33.782-10.106,33.782-10.106l0.971,10.517c0,0-32.995,13.785-72.645-0.647
				L234.181,384.756z"/>
		</g>
	</g>
</g>
<g id="Character_1">
	<g>
		<g>
			<g>
				<path style="fill:#FFFFFF;stroke:#263238;stroke-linejoin:round;stroke-miterlimit:10;" d="M155.403,456.108
					c-2.033,0.928-6.642,4.984-10.372,5.813c-3.73,0.829-11.191,0-12.435-2.073c-1.105-1.845,4.036-5.349,6.642-8.438
					c0.316-0.375,0.592-0.74,0.819-1.105c2.073-3.316,3.316-9.948,3.316-9.948l-7.875-55.552l19.906,2.902l-0.829,48.92
					c0,0,3.543,6.326,4.559,11.191C160.061,452.329,159.518,454.253,155.403,456.108z"/>
				<path style="fill:#FFFFFF;stroke:#263238;stroke-linejoin:round;stroke-miterlimit:10;" d="M155.403,456.108
					c-2.033,0.928-6.642,4.984-10.372,5.813c-3.73,0.829-11.191,0-12.435-2.073c-0.069-0.118-0.118-0.237-0.138-0.365
					c-0.345-1.915,4.332-5.171,6.78-8.073l1.016,1.017c0,0,3.069-4.717,4.096-6.77c1.026-2.043,2.053-4.915,4.303-6.958
					c2.25-2.053,5.921-2.073,5.921-2.073s3.543,6.326,4.559,11.191c0.158,0.76,0.266,1.441,0.326,2.063
					C159.775,452.97,158.827,454.569,155.403,456.108z"/>
				<path style="fill:#FFFFFF;stroke:#263238;stroke-linejoin:round;stroke-miterlimit:10;" d="M155.403,456.108
					c-2.033,0.928-6.642,4.984-10.372,5.813c-3.73,0.829-11.191,0-12.435-2.073c-0.069-0.118-0.118-0.237-0.138-0.365
					c1.836,0.938,4.895,2.053,8.408,1.549c5.734-0.829,6.356-6.356,13.935-10.047c2.023-0.987,3.533-1.253,4.658-1.105
					C159.775,452.97,158.827,454.569,155.403,456.108z"/>
			</g>
			<g>
				<path style="fill:#FFFFFF;stroke:#263238;stroke-linejoin:round;stroke-miterlimit:10;" d="M167.292,456.108
					c2.033,0.928,6.642,4.984,10.372,5.813c3.73,0.829,11.191,0,12.435-2.073c1.105-1.845-4.036-5.349-6.642-8.438
					c-0.316-0.375-0.592-0.74-0.819-1.105c-2.073-3.316-3.316-9.948-3.316-9.948l7.875-55.552l-19.906,2.902l0.829,48.92
					c0,0-3.543,6.326-4.56,11.191C162.634,452.329,163.177,454.253,167.292,456.108z"/>
				<path style="fill:#FFFFFF;stroke:#263238;stroke-linejoin:round;stroke-miterlimit:10;" d="M167.292,456.108
					c2.033,0.928,6.642,4.984,10.372,5.813c3.73,0.829,11.191,0,12.435-2.073c0.069-0.118,0.118-0.237,0.138-0.365
					c0.345-1.915-4.332-5.171-6.78-8.073l-1.017,1.017c0,0-3.069-4.717-4.096-6.77c-1.026-2.043-2.053-4.915-4.303-6.958
					c-2.25-2.053-5.921-2.073-5.921-2.073s-3.543,6.326-4.56,11.191c-0.158,0.76-0.266,1.441-0.326,2.063
					C162.921,452.97,163.868,454.569,167.292,456.108z"/>
				<path style="fill:#FFFFFF;stroke:#263238;stroke-linejoin:round;stroke-miterlimit:10;" d="M167.292,456.108
					c2.033,0.928,6.642,4.984,10.372,5.813c3.73,0.829,11.191,0,12.435-2.073c0.069-0.118,0.118-0.237,0.138-0.365
					c-1.836,0.938-4.895,2.053-8.408,1.549c-5.734-0.829-6.356-6.356-13.935-10.047c-2.023-0.987-3.533-1.253-4.658-1.105
					C162.921,452.97,163.868,454.569,167.292,456.108z"/>
			</g>
			<g>
				<g>
					<path style="fill:#92E3A9;stroke:#263238;stroke-linejoin:round;stroke-miterlimit:10;" d="M140.872,286.532
						c0,0-12.03,5.075-12.218,7.331c-0.188,2.256-7.895,31.767-8.459,35.15c-0.564,3.383-3.759,11.466-1.316,14.85
						c2.444,3.383,6.767,5.639,9.586,5.827c2.82,0.188,3.947-1.504,3.947-1.504l-2.444,16.541c0,0-3.759,11.654-2.82,16.353
						c0.94,4.699,4.135,9.398,21.992,13.346c17.857,3.947,28.195,1.88,34.774-1.128s14.474-6.767,15.225-11.466
						c0.752-4.699-2.256-19.549-2.256-19.549l-1.504-15.977c0,0,9.022-0.188,12.406-4.511c3.383-4.323,2.256-8.646,0.94-12.406
						s-5.263-17.481-6.579-22.368c-1.316-4.887-2.256-13.346-3.759-15.413c-1.504-2.068-16.729-5.451-16.729-5.451
						S162.113,278.825,140.872,286.532z"/>
					
						<line style="fill:none;stroke:#263238;stroke-linejoin:round;stroke-miterlimit:10;" x1="135.688" y1="319.255" x2="138.053" y2="330.328"/>
					
						<line style="fill:none;stroke:#263238;stroke-linejoin:round;stroke-miterlimit:10;" x1="133.917" y1="310.968" x2="134.78" y2="315.005"/>
					
						<line style="fill:none;stroke:#263238;stroke-linejoin:round;stroke-miterlimit:10;" x1="196.135" y1="312.284" x2="193.316" y2="329.389"/>
					<path style="fill:#263238;stroke:#263238;stroke-linejoin:round;stroke-miterlimit:10;" d="M199.143,381.832
						c0.622-3.886-1.326-14.707-2.019-18.337c-22.388,6.277-54.066,2.155-66.975,0.025l-0.178,1.208c0,0-3.759,11.654-2.82,16.353
						c0.94,4.699,4.135,9.398,21.992,13.346c17.857,3.947,28.195,1.88,34.774-1.128C190.496,390.29,198.391,386.531,199.143,381.832
						z"/>
				</g>
			</g>
			<g>
				<path style="fill:#FFFFFF;stroke:#263238;stroke-linejoin:round;stroke-miterlimit:10;" d="M144.897,249.473
					c0,0-1.033-3.356-2.839-0.516c-1.807,2.839,0,7.744,1.291,9.293c1.291,1.549,4.441,3.094,4.441,3.094l1.754-2.062
					L144.897,249.473z"/>
				<path style="fill:#FFFFFF;stroke:#263238;stroke-linejoin:round;stroke-miterlimit:10;" d="M180.789,249.473
					c0,0,1.033-3.356,2.839-0.516c1.807,2.839,0,7.744-1.291,9.293c-1.291,1.549-4.441,3.094-4.441,3.094l-1.754-2.062
					L180.789,249.473z"/>
				<g>
					<path style="fill:#263238;stroke:#263238;stroke-linejoin:round;stroke-miterlimit:10;" d="M152.005,267.504l-6.775,31.94
						c3.176,3.026,7.128,5.422,11.77,6.072c9.227,1.292,16.46-0.326,23.301-6.254c-1.12-10.081-4.428-33.747-4.428-33.747
						l3.415-7.318c1.823-3.907,2.807-8.189,2.597-12.495c-0.145-2.971-0.846-6.092-2.705-9.17
						c-5.451-9.022-16.917-11.09-21.428-8.459c-4.511,2.632-5.639,6.015-5.639,6.015s-6.767-2.632-7.707,6.015
						c-0.94,8.647,0.491,16.856,3.383,21.241L152.005,267.504z"/>
					<path style="fill:#FFFFFF;stroke:#263238;stroke-linejoin:round;stroke-miterlimit:10;" d="M163.224,234.244
						c0,0-2.839,0-4.388,2.065c-1.549,2.065-1.033,4.646-1.033,4.646s2.065-2.323,4.904-2.323c2.839,0,3.872,2.323,3.872,2.323
						S168.903,236.309,163.224,234.244z"/>
				</g>
			</g>
		</g>
		<g>
			<path style="fill:#B2B2B2;stroke:#263238;stroke-linejoin:round;stroke-miterlimit:10;" d="M126.89,322.06l1.57,45.745
				c0,0,35.878,8.073,69.289,0l2.691-45.072C200.44,322.733,140.12,324.975,126.89,322.06z"/>
			
				<line style="fill:none;stroke:#263238;stroke-width:3;stroke-linecap:round;stroke-linejoin:round;stroke-miterlimit:10;" x1="128.46" y1="367.805" x2="122.181" y2="464.182"/>
			
				<line style="fill:none;stroke:#263238;stroke-width:3;stroke-linecap:round;stroke-linejoin:round;stroke-miterlimit:10;" x1="197.559" y1="367.805" x2="203.838" y2="464.182"/>
			<path style="fill:#B2B2B2;stroke:#263238;stroke-linejoin:round;stroke-miterlimit:10;" d="M127.165,384.756
				c0,0,19.317,10.214,37.569,9.944c18.991-0.281,33.782-10.106,33.782-10.106l0.971,10.517c0,0-32.995,13.785-72.645-0.647
				L127.165,384.756z"/>
		</g>
	</g>
</g>
<g id="Speech_Bubble">
	<g>
		<path style="fill:#FFFFFF;stroke:#263238;stroke-linejoin:round;stroke-miterlimit:10;" d="M422.961,84.71h-26.58
			c-3.665,0-6.637,2.972-6.637,6.637v17.763c0,3.666,2.971,6.637,6.637,6.637h3.415l-4.409,8.817l11.966-8.817h15.608
			c3.665,0,6.637-2.971,6.637-6.637V91.347C429.598,87.682,426.626,84.71,422.961,84.71z"/>
		<circle style="fill:#263238;stroke:#263238;stroke-linejoin:round;stroke-miterlimit:10;" cx="401.206" cy="100.229" r="1.94"/>
		<circle style="fill:#263238;stroke:#263238;stroke-linejoin:round;stroke-miterlimit:10;" cx="409.671" cy="100.229" r="1.94"/>
		<circle style="fill:#263238;stroke:#263238;stroke-linejoin:round;stroke-miterlimit:10;" cx="418.135" cy="100.229" r="1.94"/>
	</g>
</g>
</svg>
