<?xml version="1.0" encoding="utf-8"?>
<!-- Generator: Adobe Illustrator 27.5.0, SVG Export Plug-In . SVG Version: 6.00 Build 0)  -->
<svg version="1.1" xmlns="http://www.w3.org/2000/svg" xmlns:xlink="http://www.w3.org/1999/xlink" x="0px" y="0px"
	 viewBox="0 0 750 500" style="enable-background:new 0 0 750 500;" xml:space="preserve">
<g id="Background_Simple">
	<g>
		<path style="fill:#92E3A9;" d="M525.884,95.516c-107.555,44.293-206.085-63.624-313.942-43.35
			c-53.867,10.126-100.189,47.511-129.956,92.426C50.109,192.69,34.069,255.433,55.004,311.075
			c5.828,15.49,14.484,29.81,25.192,42.411c60.976,71.761,190.617,111.051,279.4,74.556c0.411-0.171,0.821-0.342,1.232-0.513
			c98.439-41.634,170.323,9.695,255.413-14.449c95.996-27.239,118.92-160.912,84.528-241.984
			c-9.565-22.547-26.123-42.534-45.513-57.324C618.192,85.501,569.279,77.645,525.884,95.516z"/>
		<path style="opacity:0.7;fill:#FFFFFF;" d="M525.884,95.516c-107.555,44.293-206.085-63.624-313.942-43.35
			c-53.867,10.126-100.189,47.511-129.956,92.426C50.109,192.69,34.069,255.433,55.004,311.075
			c5.828,15.49,14.484,29.81,25.192,42.411c60.976,71.761,190.617,111.051,279.4,74.556c0.411-0.171,0.821-0.342,1.232-0.513
			c98.439-41.634,170.323,9.695,255.413-14.449c95.996-27.239,118.92-160.912,84.528-241.984
			c-9.565-22.547-26.123-42.534-45.513-57.324C618.192,85.501,569.279,77.645,525.884,95.516z"/>
	</g>
</g>
<g id="Floor">
	<ellipse style="fill:#92E3A9;" cx="375.624" cy="469.885" rx="269.947" ry="9.356"/>
</g>
<g id="Puzzle">
	<g>
		<path style="fill:none;stroke:#263238;stroke-miterlimit:10;" d="M650.833,279.039c-15.669,5.814-30.585-4.868-36.141-10.435
			c-0.215-0.204-0.419-0.408-0.623-0.613c11.746,66.286,30.521,145.876,30.521,145.876s-77.782-14.101-112.462-23.278
			c0.161,1.182,0.516,2.493,1.139,3.976c5.728,13.444,16.131,31.939-6.169,50.531c-22.299,18.592-58.645,5.33-66.705-19.333
			c-5.191-15.884,6.072-30.37,11.843-35.701c4.438-4.094,9.307-9.962,6.383-14.551c-35.518-8.619-52.081-8.306-95.917-4.813
			c3.202-8.329,8.834-22.622,15.851-38.839c11.112-25.717,12.509-51.434,3.471-70.198c-9.038-18.764-17.377,19.462-45.878,11.811
			c-28.489-7.641-32.659-50.037-21.536-68.113c11.112-18.065,29.188-15.98,45.867-6.953c16.679,9.038,19.462,2.784,19.462,2.784
			s0-13.896-5.567-52.82c-3.643-25.534-10.274-47.468-14.411-59.547c4.03,0.537,22.953,1.868,26.735,2.166
			c99.359,7.836,210.069,3.745,210.069,3.745s-16.905,50.735-11.542,110.777c1.913,2.912,5.352,4.868,11.553,1.934
			c13.197-6.255,31.273-17.377,50.735,4.17C686.974,233.162,675.152,270.001,650.833,279.039z"/>
		<path style="fill:none;stroke:#263238;stroke-miterlimit:10;" d="M398.553,331.859c-7.018,16.217-12.649,30.51-15.851,38.839
			c-21.665,1.73-43.879,5.857-66.168,13.283c-87.575,29.188-186.961,4.868-186.961,4.868s20.129-50.596,24.363-126.424
			c-3.342-2.375-7.061,2.085-11.155,6.179c-5.567,5.567-20.483,16.249-36.141,10.435c-24.331-9.038-36.141-45.878-16.679-67.425
			c19.451-21.547,37.527-10.424,50.735-4.17c8.619,4.084,11.907-1.311,13.154-5.545c-3.622-78.397-15.937-100.095-15.937-100.095
			s42.793-6.867,96.119-11.649c4.191-1.429,9.597-4.965,5.029-13.466c-6.899-12.875-18.903-30.37,1.655-50.886
			c20.548-20.505,57.925-10.532,68.156,13.315c6.588,15.357-3.342,30.789-8.619,36.614c-3.504,3.88-7.329,7.458-6.179,10.489
			c30.628-1.15,60.955-0.752,85.888,2.601c4.137,12.079,10.768,34.013,14.411,59.547c5.567,38.925,5.567,52.82,5.567,52.82
			s-2.783,6.255-19.462-2.784c-16.679-9.027-34.755-11.112-45.867,6.953c-11.123,18.076-6.953,60.472,21.536,68.113
			c28.5,7.652,36.84-30.574,45.878-11.811C411.063,280.426,409.666,306.143,398.553,331.859z"/>
	</g>
</g>
<g id="Plants">
	<g>
		<g>
			<g>
				<path style="fill:#263238;" d="M102.234,464.439c0.194,0.045,0.393-0.067,0.454-0.26c5.02-16.104,1.207-33.962-9.951-46.604
					c-0.14-0.159-0.383-0.175-0.543-0.034c-0.159,0.14-0.175,0.384-0.034,0.543c10.982,12.442,14.734,30.017,9.793,45.866
					c-0.063,0.203,0.05,0.419,0.253,0.482C102.215,464.434,102.224,464.437,102.234,464.439z"/>
			</g>
			<g>
				<g>
					<path style="fill:#263238;" d="M97.684,448.587c4.694-0.346,6.494,7.036,6.32,7.128c-0.074,0.805-0.168,1.611-0.283,2.417
						c-0.224-1.062-2.128-2.925-5.397-4.299C95.133,452.353,93.2,448.751,97.684,448.587z"/>
				</g>
				<g>
					<path style="fill:#263238;" d="M111.271,448.215c4.616-0.174,2.538,5.844-1.061,6.782c-3.495,1.037-5.838,2.241-6.422,3.148
						c0.17-0.798,0.319-1.598,0.448-2.4C104.396,455.83,106.907,448.541,111.271,448.215z"/>
				</g>
			</g>
			<g>
				<g>
					<path style="fill:#263238;" d="M96.903,441.651c4.567-1.12,7.578,5.774,7.426,5.885c0.064,0.794,0.108,1.592,0.132,2.392
						c-0.403-0.99-2.595-2.479-6.049-3.267C95.017,445.76,92.51,442.568,96.903,441.651z"/>
				</g>
				<g>
					<path style="fill:#263238;" d="M110.233,439c4.52-0.943,3.477,5.282,0.09,6.794c-3.269,1.596-5.374,3.157-5.794,4.133
						c0.031-0.801,0.042-1.602,0.033-2.403C104.731,447.589,105.984,440.062,110.233,439z"/>
				</g>
			</g>
			<g>
				<g>
					<path style="fill:#263238;" d="M94.98,434.972c4.316-1.862,8.429,4.404,8.298,4.532c0.195,0.767,0.371,1.539,0.529,2.317
						c-0.562-0.9-2.971-1.988-6.506-2.179C93.804,439.332,90.803,436.613,94.98,434.972z"/>
				</g>
				<g>
					<path style="fill:#263238;" d="M107.679,430.129c4.299-1.683,4.305,4.614,1.218,6.661c-2.957,2.114-4.772,3.996-5.023,5.02
						c-0.103-0.788-0.226-1.573-0.368-2.355C103.683,439.495,103.667,431.892,107.679,430.129z"/>
				</g>
			</g>
			<g>
				<g>
					<path style="fill:#263238;" d="M91.963,428.698c3.946-2.556,9.054,2.948,8.944,3.091c0.32,0.723,0.623,1.454,0.907,2.193
						c-0.704-0.791-3.259-1.459-6.777-1.057C91.539,433.207,88.121,431.017,91.963,428.698z"/>
				</g>
				<g>
					<path style="fill:#263238;" d="M103.671,421.796c3.958-2.378,5.026,3.847,2.322,6.379c-2.562,2.579-4.038,4.737-4.115,5.786
						c-0.233-0.758-0.485-1.51-0.755-2.258C101.307,431.719,100.016,424.211,103.671,421.796z"/>
				</g>
			</g>
			<g>
				<g>
					<path style="fill:#263238;" d="M87.899,422.976c3.464-3.184,9.462,1.431,9.371,1.588c0.439,0.663,0.861,1.336,1.267,2.019
						c-0.828-0.665-3.463-0.902-6.867,0.079C88.268,427.521,84.507,425.912,87.899,422.976z"/>
				</g>
				<g>
					<path style="fill:#263238;" d="M98.273,414.194c3.503-3.011,5.641,2.991,3.401,5.945c-2.089,2.981-3.178,5.361-3.078,6.411
						c-0.358-0.711-0.734-1.414-1.128-2.109C97.66,424.431,95.088,417.198,98.273,414.194z"/>
				</g>
			</g>
			<g>
				<path style="fill:#263238;" d="M94.78,420.656c0.125,0.012-2.304-6.423-4.984-9.069c-2.556-2.676-5.17-1.391-5.55,0.18
					c-0.408,1.573,1.45,3.364,3.286,4.511C89.437,417.266,94.818,420.548,94.78,420.656z"/>
				<path style="fill:#263238;" d="M94.722,420.905c0.011,0.003,0.022,0.004,0.034,0.005c0.108,0.01,0.214-0.051,0.26-0.149
					c0.003-0.007,0.006-0.015,0.007-0.024c0.024-0.068,0.041-0.12-0.015-0.201c-0.238-1.248-2.729-6.859-5.032-9.132
					c-1.258-1.318-2.743-1.873-4.07-1.516c-0.955,0.257-1.705,0.97-1.91,1.818c-0.551,2.127,2.462,4.204,3.399,4.789
					c1.858,0.965,6.756,3.955,7.175,4.308C94.606,420.855,94.66,420.891,94.722,420.905z M87.39,410.372
					c0.637,0.148,1.401,0.535,2.22,1.391c2.114,2.087,4.046,6.513,4.692,8.227c-0.451-0.295-1.166-0.734-2.285-1.413
					c-1.442-0.875-3.347-1.998-4.368-2.528c-1.758-1.1-3.525-2.794-3.156-4.219c0.163-0.672,0.769-1.239,1.546-1.447
					C86.354,410.298,86.822,410.24,87.39,410.372z"/>
			</g>
		</g>
		<g>
			<g>
				<path style="fill:#263238;" d="M108.284,466.432c0.192,0.144,0.466,0.117,0.627-0.067
					c13.361-15.315,17.835-36.857,11.676-56.218c-0.077-0.243-0.338-0.379-0.582-0.301c-0.244,0.077-0.379,0.338-0.301,0.582
					c6.061,19.054,1.658,40.255-11.491,55.328c-0.168,0.193-0.148,0.486,0.045,0.654
					C108.265,466.418,108.274,466.425,108.284,466.432z"/>
			</g>
			<g>
				<g>
					<path style="fill:#263238;" d="M110.971,446.744c5.343,1.9,3.74,10.913,3.504,10.93c-0.472,0.852-0.968,1.694-1.487,2.527
						c0.269-1.279-0.925-4.259-3.861-7.362C106.328,449.656,105.948,444.746,110.971,446.744z"/>
				</g>
				<g>
					<path style="fill:#263238;" d="M126.132,452.935c5.174,2.051-0.042,7.676-4.466,6.961c-4.357-0.555-7.526-0.366-8.61,0.35
						c0.575-0.797,1.128-1.607,1.66-2.429C114.851,457.991,121.162,451.175,126.132,452.935z"/>
				</g>
			</g>
			<g>
				<g>
					<path style="fill:#263238;" d="M113.481,438.716c5.58,0.984,5.549,10.049,5.328,10.097c-0.316,0.907-0.655,1.807-1.017,2.702
						c0.037-1.288-1.656-3.995-5.081-6.541C109.404,442.331,108.192,437.593,113.481,438.716z"/>
				</g>
				<g>
					<path style="fill:#263238;" d="M129.465,442.272c5.442,1.157,1.267,7.514-3.202,7.535c-4.38,0.171-7.459,0.87-8.397,1.741
						c0.423-0.868,0.825-1.747,1.204-2.633C119.225,449.068,124.265,441.377,129.465,442.272z"/>
				</g>
			</g>
			<g>
				<g>
					<path style="fill:#263238;" d="M114.606,430.418c5.663,0.044,7.153,8.951,6.947,9.029c-0.157,0.94-0.338,1.878-0.543,2.812
						c-0.183-1.265-2.31-3.636-6.115-5.565C111.19,434.654,109.203,430.197,114.606,430.418z"/>
				</g>
				<g>
					<path style="fill:#263238;" d="M130.96,431.25c5.557,0.233,2.505,7.179-1.894,7.936c-4.288,0.894-7.203,2.086-7.977,3.093
						c0.269-0.919,0.515-1.845,0.738-2.776C122.003,439.635,125.68,431.244,130.96,431.25z"/>
				</g>
			</g>
			<g>
				<g>
					<path style="fill:#263238;" d="M114.328,422.035c5.593-0.9,8.55,7.65,8.358,7.755c0.002,0.953-0.02,1.906-0.065,2.859
						c-0.392-1.214-2.885-3.193-6.958-4.459C111.67,426.8,108.965,422.725,114.328,422.035z"/>
				</g>
				<g>
					<path style="fill:#263238;" d="M130.591,420.114c5.52-0.698,3.672,6.684-0.54,8.161c-4.079,1.599-6.754,3.26-7.349,4.379
						c0.111-0.949,0.2-1.901,0.264-2.856C123.162,429.906,125.387,421.002,130.591,420.114z"/>
				</g>
			</g>
			<g>
				<g>
					<path style="fill:#263238;" d="M112.629,413.751c5.366-1.827,9.736,6.176,9.56,6.305c0.162,0.944,0.301,1.892,0.415,2.842
						c-0.589-1.135-3.38-2.677-7.609-3.25C110.826,418.942,107.462,415.34,112.629,413.751z"/>
				</g>
				<g>
					<path style="fill:#263238;" d="M128.334,409.111c5.326-1.617,4.766,6.039,0.86,8.207c-3.751,2.271-6.109,4.366-6.509,5.573
						c-0.049-0.957-0.122-1.915-0.219-2.873C122.683,420.099,123.362,410.875,128.334,409.111z"/>
				</g>
			</g>
			<g>
				<path style="fill:#263238;" d="M121.342,414.537c0.132,0.074,0.581-8.202-1.088-12.421c-1.518-4.193-5.024-4.046-6.207-2.499
					c-1.214,1.536-0.036,4.413,1.431,6.571C117.099,408.203,121.437,414.437,121.342,414.537z"/>
				<path style="fill:#263238;" d="M121.157,414.784c0.011,0.008,0.022,0.016,0.034,0.022c0.114,0.064,0.261,0.048,0.359-0.038
					c0.007-0.006,0.013-0.014,0.02-0.023c0.059-0.063,0.103-0.112,0.081-0.229c0.344-1.492,0.324-8.888-1.11-12.514
					c-0.747-2.065-2.114-3.398-3.75-3.649c-1.178-0.181-2.351,0.241-2.989,1.076c-1.642,2.077,0.672,5.831,1.42,6.932
					c1.58,1.966,5.526,7.643,5.817,8.236C121.054,414.672,121.096,414.739,121.157,414.784z M118.192,399.608
					c0.631,0.473,1.285,1.271,1.771,2.613c1.316,3.329,1.296,9.146,1.176,11.351c-0.354-0.545-0.928-1.376-1.832-2.668
					c-1.165-1.665-2.719-3.829-3.588-4.91c-1.404-2.068-2.529-4.794-1.429-6.186c0.506-0.662,1.449-0.992,2.407-0.845
					C117.086,399.023,117.63,399.186,118.192,399.608z"/>
			</g>
		</g>
	</g>
	<g>
		<g>
			<g>
				<path style="fill:#263238;" d="M663.648,467.56c-0.139,0.034-0.283-0.044-0.328-0.182c-3.774-11.488-1.235-24.33,6.626-33.513
					c0.099-0.115,0.273-0.129,0.389-0.03c0.116,0.099,0.129,0.273,0.03,0.389c-7.736,9.038-10.235,21.676-6.521,32.982
					c0.047,0.145-0.031,0.301-0.176,0.348C663.662,467.557,663.655,467.558,663.648,467.56z"/>
			</g>
			<g>
				<g>
					<path style="fill:#263238;" d="M666.737,456.148c-3.369-0.197-4.578,5.114-4.452,5.178c0.061,0.576,0.138,1.153,0.229,1.729
						c0.149-0.763,1.493-2.12,3.821-3.14C668.607,458.82,669.953,456.217,666.737,456.148z"/>
				</g>
				<g>
					<path style="fill:#263238;" d="M656.994,456.029c-3.31-0.075-1.755,4.216,0.835,4.85c2.516,0.705,4.209,1.543,4.637,2.186
						c-0.13-0.57-0.246-1.142-0.347-1.715C662.005,461.413,660.126,456.216,656.994,456.029z"/>
				</g>
			</g>
			<g>
				<g>
					<path style="fill:#263238;" d="M667.221,451.168c-3.286-0.753-5.369,4.221-5.259,4.299c-0.037,0.57-0.06,1.142-0.069,1.716
						c0.278-0.714,1.833-1.805,4.3-2.407C668.618,454.093,670.38,451.777,667.221,451.168z"/>
				</g>
				<g>
					<path style="fill:#263238;" d="M657.638,449.413c-3.25-0.627-2.435,3.824,0.009,4.871c2.361,1.108,3.886,2.205,4.198,2.899
						c-0.031-0.574-0.047-1.148-0.05-1.722C661.675,455.51,660.695,450.128,657.638,449.413z"/>
				</g>
			</g>
			<g>
				<g>
					<path style="fill:#263238;" d="M668.527,446.36c-3.114-1.288-5.994,3.248-5.899,3.338c-0.131,0.552-0.25,1.107-0.354,1.667
						c0.393-0.651,2.108-1.457,4.64-1.633C669.418,449.472,671.539,447.49,668.527,446.36z"/>
				</g>
				<g>
					<path style="fill:#263238;" d="M659.372,443.027c-3.1-1.16-3.036,3.354-0.801,4.788c2.143,1.483,3.464,2.812,3.655,3.543
						c0.066-0.566,0.145-1.13,0.238-1.692C662.338,449.697,662.267,444.247,659.372,443.027z"/>
				</g>
			</g>
			<g>
				<g>
					<path style="fill:#263238;" d="M670.621,441.83c-2.856-1.789-6.458,2.212-6.377,2.313c-0.222,0.522-0.431,1.049-0.626,1.582
						c0.496-0.574,2.32-1.081,4.846-0.831C670.974,445.057,673.401,443.451,670.621,441.83z"/>
				</g>
				<g>
					<path style="fill:#263238;" d="M662.154,437.01c-2.863-1.661-3.56,2.812-1.595,4.598c1.865,1.821,2.946,3.351,3.013,4.102
						c0.159-0.546,0.331-1.088,0.517-1.626C663.957,444.097,664.801,438.702,662.154,437.01z"/>
				</g>
			</g>
			<g>
				<g>
					<path style="fill:#263238;" d="M673.472,437.684c-2.517-2.245-6.766,1.129-6.699,1.24c-0.307,0.48-0.603,0.967-0.886,1.461
						c0.586-0.485,2.472-0.684,4.923-0.018C673.257,440.946,675.935,439.752,673.472,437.684z"/>
				</g>
				<g>
					<path style="fill:#263238;" d="M665.94,431.503c-2.544-2.12-4.011,2.205-2.373,4.298c1.529,2.114,2.337,3.808,2.276,4.562
						c0.249-0.513,0.51-1.021,0.786-1.524C666.492,438.833,668.256,433.621,665.94,431.503z"/>
				</g>
			</g>
			<g>
				<path style="fill:#263238;" d="M668.515,436.096c-0.089,0.01,1.582-4.629,3.474-6.555c1.803-1.946,3.691-1.053,3.98,0.069
					c0.309,1.123-1.003,2.427-2.306,3.269C672.308,433.608,668.486,436.019,668.515,436.096z"/>
				<path style="fill:#263238;" d="M668.559,436.275c-0.008,0.002-0.016,0.003-0.024,0.004c-0.077,0.009-0.154-0.034-0.188-0.104
					c-0.002-0.005-0.004-0.011-0.005-0.017c-0.018-0.048-0.031-0.085,0.009-0.144c0.157-0.897,1.882-4.946,3.508-6.601
					c0.888-0.958,1.945-1.372,2.901-1.131c0.687,0.174,1.232,0.677,1.389,1.282c0.418,1.519-1.719,3.04-2.384,3.47
					c-1.321,0.712-4.799,2.908-5.096,3.166C668.641,436.237,668.603,436.264,668.559,436.275z M673.7,428.645
					c-0.455,0.113-0.999,0.399-1.576,1.022c-1.493,1.519-2.829,4.712-3.274,5.948c0.32-0.216,0.827-0.539,1.622-1.038
					c1.024-0.643,2.377-1.469,3.104-1.859c1.248-0.808,2.496-2.041,2.216-3.059c-0.124-0.48-0.564-0.879-1.124-1.021
					C674.441,428.581,674.106,428.544,673.7,428.645z"/>
			</g>
		</g>
		<g>
			<g>
				<path style="fill:#263238;" d="M659.333,469.054c-0.136,0.105-0.333,0.089-0.45-0.041c-9.743-10.832-13.185-26.224-8.981-40.169
					c0.053-0.175,0.238-0.275,0.414-0.222c0.176,0.053,0.275,0.238,0.222,0.414c-4.137,13.724-0.751,28.872,8.839,39.533
					c0.123,0.137,0.112,0.347-0.025,0.469C659.346,469.044,659.34,469.049,659.333,469.054z"/>
			</g>
			<g>
				<g>
					<path style="fill:#263238;" d="M657.193,454.971c-3.81,1.42-2.562,7.863-2.393,7.872c0.348,0.605,0.712,1.204,1.093,1.795
						c-0.206-0.914,0.617-3.063,2.688-5.319C660.553,457.009,660.772,453.485,657.193,454.971z"/>
				</g>
				<g>
					<path style="fill:#263238;" d="M646.394,459.574c-3.686,1.526,0.113,5.502,3.277,4.941c3.117-0.445,5.39-0.344,6.175,0.157
						c-0.421-0.565-0.826-1.139-1.216-1.723C654.534,463.075,649.937,458.259,646.394,459.574z"/>
				</g>
			</g>
			<g>
				<g>
					<path style="fill:#263238;" d="M655.307,449.245c-3.989,0.766-3.868,7.263-3.709,7.295c0.236,0.646,0.489,1.288,0.758,1.925
						c-0.041-0.923,1.144-2.881,3.571-4.744C658.268,451.791,659.086,448.382,655.307,449.245z"/>
				</g>
				<g>
					<path style="fill:#263238;" d="M643.888,451.968c-3.888,0.888-0.826,5.399,2.377,5.366c3.142,0.075,5.356,0.542,6.038,1.157
						c-0.313-0.618-0.61-1.243-0.891-1.874C651.302,456.727,647.606,451.27,643.888,451.968z"/>
				</g>
			</g>
			<g>
				<g>
					<path style="fill:#263238;" d="M654.41,443.31c-4.059,0.093-5.03,6.494-4.881,6.547c0.123,0.672,0.263,1.342,0.42,2.01
						c0.117-0.909,1.616-2.631,4.322-4.055C656.904,446.308,658.28,443.092,654.41,443.31z"/>
				</g>
				<g>
					<path style="fill:#263238;" d="M642.697,444.084c-3.981,0.228-1.717,5.173,1.444,5.668c3.083,0.594,5.186,1.417,5.752,2.13
						c-0.203-0.656-0.389-1.316-0.559-1.982C649.208,449.996,646.481,444.022,642.697,444.084z"/>
				</g>
			</g>
			<g>
				<g>
					<path style="fill:#263238;" d="M654.518,437.297c-4.019-0.584-6.045,5.577-5.907,5.649c0.009,0.683,0.035,1.366,0.078,2.048
						c0.268-0.874,2.033-2.32,4.939-3.272C656.475,440.684,658.37,437.734,654.518,437.297z"/>
				</g>
				<g>
					<path style="fill:#263238;" d="M642.84,436.098c-3.964-0.44-2.559,4.831,0.476,5.844c2.941,1.102,4.876,2.263,5.315,3.059
						c-0.09-0.679-0.164-1.36-0.221-2.044C648.272,443.035,646.58,436.677,642.84,436.098z"/>
				</g>
			</g>
			<g>
				<g>
					<path style="fill:#263238;" d="M655.646,431.341c-3.866-1.251-6.911,4.533-6.784,4.623c-0.106,0.678-0.195,1.359-0.267,2.042
						c0.41-0.82,2.393-1.956,5.419-2.412C656.995,435.042,659.367,432.424,655.646,431.341z"/>
				</g>
				<g>
					<path style="fill:#263238;" d="M644.338,428.186c-3.835-1.101-3.351,4.38-0.527,5.892c2.713,1.587,4.427,3.063,4.726,3.924
						c0.025-0.687,0.067-1.374,0.126-2.061C648.509,436,647.921,429.396,644.338,428.186z"/>
				</g>
			</g>
			<g>
				<path style="fill:#263238;" d="M649.409,431.999c-0.094,0.054-0.505-5.872,0.645-8.915c1.042-3.022,3.557-2.955,4.422-1.859
					c0.887,1.088,0.074,3.163-0.954,4.725C652.382,427.413,649.34,431.928,649.409,431.999z"/>
				<path style="fill:#263238;" d="M649.544,432.175c-0.008,0.006-0.016,0.011-0.024,0.016c-0.081,0.047-0.186,0.038-0.258-0.023
					c-0.005-0.004-0.01-0.01-0.014-0.016c-0.043-0.044-0.075-0.079-0.061-0.163c-0.263-1.066-0.329-6.368,0.66-8.982
					c0.513-1.488,1.478-2.458,2.648-2.656c0.842-0.143,1.688,0.147,2.154,0.739c1.199,1.471-0.418,4.187-0.943,4.984
					c-1.111,1.427-3.878,5.539-4.08,5.967C649.617,432.093,649.587,432.141,649.544,432.175z M651.505,421.264
					c-0.447,0.346-0.907,0.925-1.241,1.892c-0.907,2.4-0.83,6.57-0.719,8.149c0.248-0.394,0.651-0.996,1.284-1.932
					c0.817-1.206,1.908-2.774,2.518-3.558c0.984-1.497,1.761-3.464,0.957-4.449c-0.37-0.469-1.05-0.695-1.735-0.579
					C652.291,420.833,651.903,420.956,651.505,421.264z"/>
			</g>
		</g>
	</g>
</g>
<g id="Characters">
	<g>
		<polygon style="fill:#FFFFFF;stroke:#263238;stroke-linecap:round;stroke-linejoin:round;stroke-miterlimit:10;" points="
			382.675,230.355 377.947,230.04 377.474,243.436 382.675,243.121 		"/>
		<polygon style="fill:#263238;stroke:#263238;stroke-linecap:round;stroke-linejoin:round;stroke-miterlimit:10;" points="
			414.511,228.306 382.675,230.355 382.727,246.141 416.124,252.554 		"/>
		<path style="fill:#FFFFFF;stroke:#263238;stroke-linecap:round;stroke-linejoin:round;stroke-miterlimit:10;" d="M377.947,230.04
			c0,0-13.081-5.516-14.815-5.516c-1.734,0-6.935,6.935-8.353,9.299c-1.418,2.364-0.473,3.783,0.788,5.201s5.831,3.31,8.983,2.994
			c3.152-0.315,13.081-1.418,13.081-1.418L377.947,230.04z"/>
		<g>
			<g>
				<path style="fill:#828282;stroke:#263238;stroke-miterlimit:10;" d="M259.958,451.097c0,0-3.173-0.198-3.371,0.793
					c-0.198,0.992,0.793,10.908,1.785,11.701c0.992,0.793,2.975,1.388,7.734,1.587s11.503-0.793,11.503-0.793l-0.793-11.304
					L259.958,451.097z"/>
				<path style="fill:#FFFFFF;stroke:#263238;stroke-miterlimit:10;" d="M256.264,351.663c0,0,0,16.308-2.204,25.564
					c-2.204,9.256,1.452,28.878,4.097,39.897c2.645,11.019,2.204,20.275,2.204,20.275s-4.848,6.611-3.967,9.697
					c0.882,3.085,1.625,4.31,5.151,5.191c3.526,0.882,3.967-0.793,8.953,2.742c6.186,4.386,14.104,6.171,16.308,3.526
					c2.204-2.645-0.882-3.967-2.645-5.289c-1.763-1.322-5.73-7.493-8.815-11.901c-3.085-4.408-1.322-19.834-1.322-33.057
					s6.481-51.798,6.481-51.798L256.264,351.663z"/>
				<path style="fill:#FFFFFF;stroke:#263238;stroke-miterlimit:10;" d="M273.453,354.749c0,0-5.289,22.479-3.526,32.616
					c1.763,10.138,2.775,38.134,2.334,49.594c-0.22,5.73-2.654,9.304-3.393,11.654c-0.938,2.978-0.333,6.291,1.851,8.522
					c1.157,1.182,2.604,2.095,4.312,2.095c4.848,0,5.605-0.232,12.216,2.853s13.664,3.085,17.19,1.322
					c3.526-1.763,2.204-3.085-1.763-4.848c-3.967-1.763-7.065-7.127-13.125-11.534c-3.347-2.434-3.347-12.475-3.347-12.475
					s7.967-56.438,9.73-67.016c1.763-10.578,1.322-18.512,1.322-18.512L273.453,354.749z"/>
				<path style="fill:#828282;stroke:#263238;stroke-miterlimit:10;" d="M268.486,453.477l0.397,12.296c0,0,0.397,0.595,7.933,0.992
					c7.536,0.397,6.743-0.397,17.056,1.388c10.313,1.785,13.089-2.182,13.288-2.777s-0.198-3.768-0.198-3.768
					s-3.966,2.181-13.089,0.992c-9.123-1.19-12.296-3.371-16.262-5.95C273.642,454.072,268.486,453.477,268.486,453.477z"/>
				<path style="fill:#92E3A9;stroke:#263238;stroke-miterlimit:10;" d="M289.549,447.022l-3.214,13.397
					c0,0,4.165,2.182,7.536,2.182l3.372-8.329C297.243,454.271,294.151,448.896,289.549,447.022z"/>
			</g>
			<path style="fill:#FFFFFF;stroke:#263238;stroke-miterlimit:10;" d="M313.573,219.191c0,0-0.171-1.883,1.027-4.108
				c1.198-2.225,0.171-4.279-1.712-2.738c-1.883,1.54-2.738,4.792-2.738,4.792L313.573,219.191z"/>
			
				<rect x="274.208" y="190.267" transform="matrix(0.992 0.1266 -0.1266 0.992 30.5693 -35.1879)" style="fill:#FFFFFF;stroke:#263238;stroke-miterlimit:10;" width="35.941" height="65.379"/>
			<g>
				<path style="fill:#92E3A9;stroke:#263238;stroke-miterlimit:10;" d="M256.785,238.155c0,0-8.827,15.34-14.639,33.471
					c-5.811,18.131-4.184,84.612-3.952,85.309c0.232,0.697,4.416,3.022,13.25,3.022c8.833,0,15.109-0.465,15.109-0.465
					s5.811,3.022,12.087,2.789c6.276-0.232,13.25-3.022,13.25-3.022s0.93,0.93,5.346,0c4.417-0.93,8.368-3.022,8.368-3.022
					l4.184-2.324c0,0-3.254-30.451-6.044-41.376s-4.881-58.81-5.346-60.902c-0.465-2.092,0.465,4.184-0.465-2.092
					c-0.93-6.276-2.916-11.201-2.916-11.201L256.785,238.155z"/>
				<path style="fill:none;stroke:#263238;stroke-miterlimit:10;" d="M252.194,300.817c0.566,1.26,1.168,2.467,1.807,3.585"/>
				<path style="fill:none;stroke:#263238;stroke-miterlimit:10;" d="M245.633,278.135c0,0,1.839,10.878,5.515,20.195"/>
				<path style="fill:none;stroke:#263238;stroke-miterlimit:10;" d="M248.887,300.682c0,0,2.557,4.649,6.276,10.693"/>
				<line style="fill:none;stroke:#263238;stroke-miterlimit:10;" x1="267.018" y1="348.702" x2="267.018" y2="328.112"/>
				<line style="fill:none;stroke:#263238;stroke-miterlimit:10;" x1="267.018" y1="357.633" x2="267.018" y2="353.587"/>
				<path style="fill:none;stroke:#263238;stroke-miterlimit:10;" d="M274.223,255.106c-0.213,1.761-0.378,3.436-0.464,4.898"/>
				<path style="fill:none;stroke:#263238;stroke-miterlimit:10;" d="M277.013,237.921c0,0-1.396,7.098-2.378,14.049"/>
				<line style="fill:none;stroke:#263238;stroke-miterlimit:10;" x1="266.786" y1="238.618" x2="263.764" y2="250.473"/>
				<path style="fill:none;stroke:#263238;stroke-miterlimit:10;" d="M303.28,321.138c0,0,1.627,21.153,0.93,27.894"/>
			</g>
			<path style="fill:#263238;stroke:#263238;stroke-miterlimit:10;" d="M280.416,164.813c0,0,10.282,6.169,10.282,13.196
				c0,7.026-3.085,9.426-2.571,10.454c0.514,1.028,4.97-2.399,5.141,0.171c0.171,2.571-1.371,8.226-5.484,9.083
				c-4.113,0.857-9.426-1.542-13.196-11.825C270.819,175.609,278.188,164.813,280.416,164.813z"/>
			<path style="fill:#92E3A9;stroke:#263238;stroke-miterlimit:10;" d="M262.595,169.747c0,0-10.308,1.124-15.181,14.619
				c-4.873,13.494,7.497,42.732,8.434,44.793c0.937,2.062,0.937,8.996,0.937,8.996l38.234,0.188c0,0-1.125-22.865-2.811-32.424
				s-5.06-21.553-10.683-28.3S272.715,167.497,262.595,169.747z"/>
			<path style="fill:#263238;stroke:#263238;stroke-miterlimit:10;" d="M256.41,231.597c0.374,2.805,0.375,6.557,0.375,6.557
				l38.233,0.187c0,0-0.166-3.371-0.465-8.059H256.41V231.597z"/>
			<g>
				<path style="fill:#FFFFFF;stroke:#263238;stroke-miterlimit:10;" d="M312.203,224.325c0,0,1.883-4.621,1.369-5.134
					c-0.513-0.513-3.936-3.252-4.792-3.252c-0.856,0-7.188,0.513-7.188,1.369c0,0.856,1.712,1.198,1.712,1.198
					s-1.54,1.027-1.369,1.883c0.171,0.856,3.168,1.613,3.168,1.613L312.203,224.325z"/>
				<path style="fill:none;stroke:#263238;stroke-miterlimit:10;" d="M304.502,218.164c0,0,2.91-0.171,3.423,0
					c0.514,0.171,4.279,3.081,4.279,3.081"/>
			</g>
			<path style="fill:#92E3A9;stroke:#263238;stroke-linecap:round;stroke-linejoin:round;stroke-miterlimit:10;" d="
				M258.453,193.634l27.738,42.71c0,0,4.255,2.049,7.092,3.31c2.837,1.261,11.19,0.63,18.912,0s38.014-5.359,38.014-5.359
				s1.891,2.837,3.783,4.571c1.891,1.734,5.358,3.94,6.462,4.098c1.103,0.158,4.098-0.946,4.098-0.946s1.734,1.261,3.152,1.103
				c1.418-0.158,2.049-0.473,2.206-1.103c0.158-0.63-0.473-5.516-0.946-6.934c-0.473-1.419-4.255-5.201-4.255-5.201
				s-5.516-4.728-6.462-4.886c-0.946-0.158-12.923,0.473-12.923,0.473l-40.221-3.467c0,0,1.261-0.63-1.261-1.891
				c-2.522-1.261-5.043-1.419-5.043-1.419s-22.064-44.917-25.689-48.069c-3.625-3.152-11.032-1.891-15.76,2.522
				c-4.728,4.413-4.255,9.771-4.255,9.771"/>
			<path style="fill:#FFFFFF;stroke:#263238;stroke-linecap:round;stroke-linejoin:round;stroke-miterlimit:10;" d="
				M369.909,242.018c0.158-0.63-0.473-5.516-0.946-6.934c-0.473-1.419-4.255-5.201-4.255-5.201s-5.516-4.728-6.462-4.886
				c-0.946-0.158-12.923,0.473-12.923,0.473l-31.745-2.862l-2.937,17.172c0.52-0.042,1.038-0.083,1.554-0.126
				c7.723-0.63,38.014-5.359,38.014-5.359s1.891,2.837,3.783,4.571c1.891,1.734,5.358,3.94,6.462,4.098
				c1.103,0.158,4.098-0.946,4.098-0.946s1.734,1.261,3.152,1.103C369.121,242.963,369.752,242.648,369.909,242.018z"/>
			<path style="fill:none;stroke:#263238;stroke-linecap:round;stroke-linejoin:round;stroke-miterlimit:10;" d="M301.793,222.633
				c0,0-7.88,4.886-9.456,8.668"/>
			<path style="fill:none;stroke:#263238;stroke-linecap:round;stroke-linejoin:round;stroke-miterlimit:10;" d="M299.271,221.687
				c0,0-8.983,3.152-10.874,5.358"/>
			<polygon style="fill:#FFFFFF;stroke:#263238;stroke-miterlimit:10;" points="283.158,161.214 278.36,171.668 271.505,159.329 
				273.561,156.93 			"/>
			<g>
				<path style="fill:#FFFFFF;stroke:#263238;stroke-miterlimit:10;" d="M288.128,123.511c0,0,3.085,5.313,3.599,8.911
					c0.514,3.599,0.171,7.883,0.171,7.883s4.456,5.998,4.456,7.54s-3.599,3.085-3.599,3.085s-1.028,7.712-1.2,9.426
					c-0.171,1.714-1.714,3.599-3.428,3.599c-1.714,0-12.51-3.427-14.053-3.942c-1.542-0.514-6.341-13.367-2.742-22.45
					S288.128,123.511,288.128,123.511z"/>
				<path style="fill:#263238;" d="M288.299,139.963c0,1.041-0.46,1.885-1.028,1.885c-0.568,0-1.028-0.844-1.028-1.885
					c0-1.041,0.46-1.885,1.028-1.885C287.839,138.078,288.299,138.922,288.299,139.963z"/>
				<path style="fill:none;stroke:#263238;stroke-miterlimit:10;" d="M285.386,136.193c0,0,2.571-1.371,4.284,0.171"/>
				<path style="fill:none;stroke:#263238;stroke-miterlimit:10;" d="M290.185,153.331c0,0-2.057,0.343-3.77-2.228"/>
			</g>
			<path style="fill:#263238;stroke:#263238;stroke-miterlimit:10;" d="M292.755,118.027c0,0-3.942,5.313-10.282,15.767
				c-6.341,10.454-6.855,27.763-6.855,27.763s5.313,6.855,6.684,13.025s-1.714,8.911-1.714,8.911s-2.789-9.457-7.478-12.869
				c-4.689-3.412-9.486-3.656-10.515-0.877c-1.03,2.778,4.283,8.948,1.884,14.089c-2.399,5.141-11.653,9.94-10.968,15.595
				c0.686,5.655,4.97,10.111,3.599,16.966c-1.371,6.855-8.569,9.597-12.168,7.198c-3.599-2.399-2.228-4.456-1.885-4.97
				c0.343-0.514,1.885-2.571-0.514-4.97c-2.399-2.399-9.426-7.54-7.712-12.168c1.714-4.627,8.226-5.827,6.17-11.653
				c-2.057-5.827-10.283-14.053-6.855-20.565c3.428-6.512,10.625-7.198,8.911-15.595c-1.714-8.397-3.256-9.254-1.371-17.309
				c1.885-8.055,10.797-18.337,14.738-21.251c3.942-2.913,15.595-5.484,18.337-5.313s9.426,2.913,11.654,3.599
				S293.955,114.943,292.755,118.027z"/>
		</g>
		<g>
			<path style="fill:#FFFFFF;stroke:#263238;stroke-linecap:round;stroke-linejoin:round;stroke-miterlimit:10;" d="
				M350.904,231.743c0,0-3.605,4.16-3.051,5.131c0.555,0.971,2.496,1.664,2.496,1.664s2.08-3.328,2.357-5.27
				C352.985,231.327,352.152,231.188,350.904,231.743z"/>
			<path style="fill:#FFFFFF;stroke:#263238;stroke-linecap:round;stroke-linejoin:round;stroke-miterlimit:10;" d="M354.78,233.822
				c0,0-4.43,3.606-4.43,4.715c0,1.109,0.693,2.08,1.525,1.664c0.832-0.416,3.605-2.912,3.883-4.715
				C356.035,233.684,355.743,233.822,354.78,233.822z"/>
			<path style="fill:#FFFFFF;stroke:#263238;stroke-linecap:round;stroke-linejoin:round;stroke-miterlimit:10;" d="
				M355.785,236.637c0,0-3.226,2.99-3.068,3.776c0.157,0.787,1.259,1.337,1.888,1.337s2.754-2.124,3.304-3.698
				C358.46,236.48,357.594,235.378,355.785,236.637z"/>
			<path style="fill:#FFFFFF;stroke:#263238;stroke-linecap:round;stroke-linejoin:round;stroke-miterlimit:10;" d="
				M357.752,238.683c0,0-2.282,3.619-2.046,4.013c0.236,0.393,1.416,1.495,1.967,0.708c0.551-0.787,2.36-2.911,2.203-4.327
				C359.719,237.66,358.617,237.739,357.752,238.683z"/>
		</g>
		<g>
			<path style="fill:#263238;stroke:#263238;stroke-linecap:round;stroke-linejoin:round;stroke-miterlimit:10;" d="
				M434.758,170.023c0,0-8.254,7.046-9.059,9.261c-0.805,2.215-0.805,4.832-0.805,4.832s-10.871,12.482-11.677,18.32
				s2.215,16.106,2.215,16.106l24.36-47.512L434.758,170.023z"/>
			<g>
				<path style="fill:#263238;stroke:#263238;stroke-linecap:round;stroke-linejoin:round;stroke-miterlimit:10;" d="
					M493.218,460.926l-0.08,5.026c0,0-8.499,1.487-15.298,0.85l-0.212-3.612L493.218,460.926z"/>
				<path style="fill:#263238;stroke:#263238;stroke-linecap:round;stroke-linejoin:round;stroke-miterlimit:10;" d="
					M460.559,439.991c0,0-0.725,4.952-1.842,6.626c-1.116,1.675-2.625,3.981-7.37,5.935c-4.745,1.954-16.802,6.051-16.244,8.284
					c0.558,2.233,1.675,3.35,2.791,3.629c1.117,0.279,9.953,1.7,17.21,1.7s16.34,0.344,19.131-0.773
					c2.791-1.117,5.583-2.233,8.653-2.233s9.211-0.558,10.328-2.233c1.117-1.675-0.558-9.491-1.396-11.724s-1.973-5.672-1.973-5.672
					L460.559,439.991z"/>
			</g>
			<path style="fill:#263238;stroke:#263238;stroke-linecap:round;stroke-linejoin:round;stroke-miterlimit:10;" d="
				M471.525,300.183c0,0,0.975,61.45,1.301,66.977c0.325,5.527,7.153,34.789,12.355,49.095c5.202,14.306,5.597,29.801,5.597,29.801
				s-10.149,2.062-12.425,2.387c-2.276,0.325-11.38-1.951-11.38-1.951s-6.828-54.947-6.828-87.786
				c0-32.838,2.276-56.898,2.276-56.898L471.525,300.183z"/>
			<g>
				<path style="fill:#263238;stroke:#263238;stroke-linecap:round;stroke-linejoin:round;stroke-miterlimit:10;" d="
					M477.495,464.538l-0.08,5.026c0,0-8.499,1.487-15.298,0.85l-0.212-3.612L477.495,464.538z"/>
				<path style="fill:#263238;stroke:#263238;stroke-linecap:round;stroke-linejoin:round;stroke-miterlimit:10;" d="
					M444.836,443.603c0,0-0.725,4.952-1.842,6.626c-1.117,1.675-2.625,3.981-7.37,5.935c-4.745,1.954-16.802,6.051-16.244,8.284
					c0.558,2.233,1.675,3.35,2.791,3.629c1.116,0.279,9.953,1.7,17.21,1.7c7.257,0,16.34,0.344,19.131-0.773
					c2.791-1.116,5.583-2.233,8.653-2.233c3.07,0,9.211-0.558,10.328-2.233c1.117-1.675-0.558-9.491-1.396-11.724
					c-0.837-2.233-1.973-5.672-1.973-5.672L444.836,443.603z"/>
			</g>
			<path style="fill:#263238;stroke:#263238;stroke-linecap:round;stroke-linejoin:round;stroke-miterlimit:10;" d="
				M425.357,298.882c0,0,4.552,43.242,6.828,53.322c2.276,10.079,9.104,42.267,9.104,42.267s4.227,32.838,4.227,34.139
				c0,1.3,0,5.202,0,5.202s-3.46,3.619-3.46,5.244c0,1.626,1.577,9.048,1.577,9.048s6.123,1.797,14.251,2.772
				c8.07,0.968,17.582,0.284,17.582,0.284s0.282-20.175-1.994-39.032c-2.276-18.858-8.123-48.545-8.123-57.973
				s1.626-28.937,1.951-30.237c0.325-1.3,1.301-21.784,1.301-21.784L425.357,298.882z"/>
			<g>
				<path style="fill:#FFFFFF;stroke:#263238;stroke-linecap:round;stroke-linejoin:round;stroke-miterlimit:10;" d="
					M426.18,110.938c0,0-5.703,10.443-5.703,12.745c0,2.302,0.987,3.618,0.658,4.276c-0.329,0.658-5.427,7.729-5.756,9.538
					c-0.329,1.809,3.289,4.111,3.782,4.605c0.493,0.493,0.987,9.209,1.645,11.676c0.658,2.467,2.796,4.44,4.605,4.44
					c1.809,0,4.111-0.658,4.111-0.658l9.045,6.085l24.832-14.636l-0.329-5.263c0,0,7.662-12.794,8.155-15.261
					c0.493-2.467,0.835-13.507-1.631-17.619c-2.467-4.111-13.818-9.284-19.903-11.093c-6.085-1.809-17.427,2.942-19.893,4.586
					c-2.467,1.645-5.591,3.618-5.098,4.769C425.193,110.281,426.18,110.938,426.18,110.938z"/>
				<path style="fill:#263238;stroke:#263238;stroke-linecap:round;stroke-linejoin:round;stroke-miterlimit:10;" d="
					M469.594,110.868c-2.467-4.111-13.818-9.284-19.903-11.093c-6.085-1.809-17.427,2.942-19.893,4.586
					c-2.467,1.645-5.591,3.618-5.098,4.769c0.493,1.151,1.48,1.809,1.48,1.809s1.48,0.329,2.631-0.658
					c1.151-0.987,0.822-2.138,7.894-3.453c7.072-1.316,8.769,3.207,6.302,5.674c-2.467,2.467-7.071,5.591-6.249,8.223
					c0.822,2.631,8.223,5.92,8.223,5.92s-0.658,2.96,0,3.618c0.658,0.658,1.809,0.822,1.809,0.822s4.934-5.591,7.236-4.44
					c2.302,1.151,5.262,6.578,4.934,9.209c-0.329,2.631-4.276,7.4-4.276,7.4l-2.796,0.658c0,0,5.098,3.289,11.183-0.165
					c0,0,7.662-12.794,8.155-15.261C471.718,126.02,472.06,114.979,469.594,110.868z"/>
				<path style="fill:#263238;" d="M426.397,129.604c0,1.09-0.405,1.974-0.904,1.974c-0.5,0-0.905-0.884-0.905-1.974
					c0-1.09,0.405-1.973,0.905-1.973C425.992,127.631,426.397,128.514,426.397,129.604z"/>
				<path style="fill:none;stroke:#263238;stroke-linecap:round;stroke-linejoin:round;stroke-miterlimit:10;" d="M422.779,125.328
					c0,0,3.453-2.302,5.756,0"/>
				<path style="fill:none;stroke:#263238;stroke-linecap:round;stroke-linejoin:round;stroke-miterlimit:10;" d="M422.779,143.418
					c0,0,3.289,0.329,5.756-1.645"/>
				<path style="fill:none;stroke:#263238;stroke-linecap:round;stroke-linejoin:round;stroke-miterlimit:10;" d="M423.93,132.564
					c0,0,1.48,2.96,3.618,2.96"/>
				<polygon style="fill:#263238;stroke:#263238;stroke-linecap:round;stroke-linejoin:round;stroke-miterlimit:10;" points="
					429.521,157.561 435.113,154.765 434.784,160.686 				"/>
			</g>
			<polygon style="fill:#FFFFFF;stroke:#263238;stroke-linecap:round;stroke-linejoin:round;stroke-miterlimit:10;" points="
				463.399,147.036 435.277,164.961 433.633,176.473 467.181,151.312 			"/>
			<path style="fill:#263238;stroke:#263238;stroke-linecap:round;stroke-linejoin:round;stroke-miterlimit:10;" d="
				M467.181,151.312c0,0-31.739,19.405-37.166,29.601c-5.427,10.196-16.116,23.681-16.445,32.068
				c-0.329,8.387,0,74.661-0.164,79.595c-0.164,4.934,16.116,14.965,33.548,16.61c17.432,1.645,34.535-6.085,36.179-7.071
				c1.645-0.987,4.934-3.947,4.934-3.947s-4.934-30.095-4.934-34.042c0-3.947-1.316-12.827-1.316-12.827l3.618-29.437
				c0,0-1.48-37.495-3.453-46.211c-1.974-8.716-10.854-23.845-10.854-23.845S469.483,149.996,467.181,151.312z"/>
			<path style="fill:none;stroke:#A1A1A1;stroke-linecap:round;stroke-linejoin:round;stroke-miterlimit:10;" d="M414.56,208.359
				c-0.221,0.649-0.409,1.282-0.559,1.897l2.365-3.524c0,0,14.143-13.814,17.925-18.747c3.782-4.934,11.512-11.183,11.512-11.183
				l1.151-4.769l1.645,2.631c0,0,6.907-8.223,11.841-11.347c4.933-3.125,11.183-6.578,11.183-6.578"/>
			
				<rect x="411.389" y="235.397" transform="matrix(0.9404 0.34 -0.34 0.9404 114.4122 -135.3489)" style="fill:#92E3A9;stroke:#263238;stroke-linecap:round;stroke-linejoin:round;stroke-miterlimit:10;" width="63.968" height="46.721"/>
			<g>
				<path style="fill:#FFFFFF;stroke:#263238;stroke-linecap:round;stroke-linejoin:round;stroke-miterlimit:10;" d="
					M447.945,261.259c0,0-4.87,2.533-5.65,2.727c-0.779,0.195-11.299-1.169-12.273-0.779c-0.974,0.39-3.896,2.143-5.455,2.533
					s-0.974,2.922,0.974,3.507c1.948,0.584,6.818-0.779,6.818-0.779l1.364,1.558c0,0-4.091,11.494-3.117,12.468
					c0.974,0.974,1.753,1.948,2.727,1.559c0.974-0.39,2.727-0.974,2.727-0.974s4.481,1.753,5.455,2.143
					c0.974,0.39,4.286,0.585,5.065,0.195c0.779-0.39,1.558-1.364,2.338-2.533c0.779-1.169,4.091-10.715,4.091-10.715l1.364-3.507
					L447.945,261.259z"/>
				<path style="fill:#263238;stroke:#263238;stroke-linecap:round;stroke-linejoin:round;stroke-miterlimit:10;" d="
					M456.322,173.594c0,0-4.286,1.559-5.65,11.884c-1.364,10.325,1.948,18.507,3.896,21.429
					c1.948,2.922,18.022,25.063,18.022,25.063s-1.948,1.753-1.753,2.727c0.195,0.974,0.195,0.974,0.195,0.974l-25.814,25.003
					l9.935,10.13c0,0,31.74-15.231,39.256-21.494c6.015-5.013,9.156-15.392,8.961-17.535c-0.195-2.143-20.944-46.882-24.061-52.532
					s-6.624-9.156-9.351-9.935"/>
				<path style="fill:none;stroke:#263238;stroke-linecap:round;stroke-linejoin:round;stroke-miterlimit:10;" d="M472.785,234.892
					c0,0,15.39-3.896,15.975-1.948"/>
				<path style="fill:none;stroke:#A1A1A1;stroke-linecap:round;stroke-linejoin:round;stroke-miterlimit:10;" d="M491.487,231.386
					c0,0-4.675-2.143-8.572-1.364"/>
			</g>
			<path style="fill:none;stroke:#A1A1A1;stroke-linecap:round;stroke-linejoin:round;stroke-miterlimit:10;" d="M450.672,185.478
				c0,0,0.879,9.721,2.623,14.205c1.744,4.485,19.435,30.149,19.435,30.149s-2.99-0.498-2.492,1.246
				c0.498,1.744,0.599,3.62,0.599,3.62l-3.34,2.859"/>
		</g>
		<path style="fill:#FFFFFF;stroke:#263238;stroke-linecap:round;stroke-linejoin:round;stroke-miterlimit:10;" d="M373.849,229.094
			c0,0-7.407-4.098-9.771-5.831c-2.364-1.734-5.043-0.788-5.516-0.473c-0.473,0.315-3.625,5.359-4.098,6.304
			c-0.473,0.946,0.946,1.576,2.206,1.418c1.261-0.158,5.516-2.994,5.516-2.994l5.359,4.255"/>
	</g>
</g>
<g id="Gears">
	<path style="fill:none;stroke:#263238;stroke-miterlimit:10;" d="M723.507,340.99v-10.74l-13.651-2.165
		c-0.676-2.552-1.69-4.965-2.986-7.194l8.126-11.189l-7.595-7.595l-11.189,8.126c-2.229-1.296-4.642-2.31-7.194-2.986l-2.165-13.651
		h-10.74l-2.165,13.651c-2.552,0.676-4.965,1.69-7.194,2.986l-11.189-8.126l-7.595,7.595l8.126,11.189
		c-1.296,2.229-2.31,4.642-2.986,7.194l-13.651,2.165v10.74l13.651,2.165c0.676,2.552,1.69,4.965,2.986,7.194l-8.126,11.189
		l7.595,7.595l11.189-8.126c2.229,1.296,4.642,2.31,7.194,2.986l2.165,13.651h10.74l2.165-13.651
		c2.552-0.676,4.965-1.69,7.194-2.986l11.189,8.126l7.595-7.595l-8.126-11.189c1.296-2.229,2.31-4.642,2.986-7.194L723.507,340.99z
		 M681.483,352.211c-9.163,0-16.591-7.428-16.591-16.591c0-9.163,7.428-16.59,16.591-16.59c9.163,0,16.59,7.428,16.59,16.59
		C698.073,344.783,690.645,352.211,681.483,352.211z"/>
	<path style="fill:none;stroke:#263238;stroke-miterlimit:10;" d="M580.342,158.851v-9.165l-11.648-1.847
		c-0.577-2.178-1.442-4.237-2.548-6.139l6.934-9.547l-6.48-6.48l-9.547,6.934c-1.902-1.106-3.961-1.971-6.139-2.548l-1.847-11.648
		h-9.165l-1.847,11.648c-2.178,0.577-4.237,1.442-6.139,2.548l-9.547-6.934l-6.48,6.48l6.934,9.547
		c-1.106,1.902-1.971,3.961-2.548,6.139l-11.648,1.847v9.165l11.648,1.847c0.577,2.178,1.442,4.237,2.548,6.139l-6.934,9.547
		l6.48,6.48l9.547-6.934c1.902,1.106,3.961,1.971,6.139,2.548l1.847,11.648h9.165l1.847-11.648c2.178-0.577,4.237-1.442,6.139-2.548
		l9.547,6.934l6.48-6.48l-6.934-9.547c1.106-1.902,1.971-3.961,2.548-6.139L580.342,158.851z M544.484,168.425
		c-7.818,0-14.156-6.338-14.156-14.156c0-7.818,6.338-14.156,14.156-14.156c7.818,0,14.156,6.338,14.156,14.156
		C558.64,162.087,552.302,168.425,544.484,168.425z"/>
	<path style="fill:none;stroke:#263238;stroke-miterlimit:10;" d="M205.351,363.67v-6.772l-8.607-1.365
		c-0.426-1.609-1.065-3.13-1.883-4.536l5.124-7.055l-4.789-4.789l-7.055,5.124c-1.406-0.817-2.927-1.457-4.536-1.883l-1.365-8.607
		h-6.772l-1.365,8.607c-1.609,0.426-3.13,1.066-4.536,1.883l-7.055-5.124l-4.788,4.789l5.124,7.055
		c-0.817,1.406-1.457,2.927-1.883,4.536l-8.607,1.365v6.772l8.607,1.365c0.426,1.609,1.066,3.13,1.883,4.536l-5.123,7.055
		l4.788,4.788l7.055-5.124c1.406,0.817,2.927,1.457,4.536,1.883l1.365,8.607h6.772l1.365-8.607c1.609-0.426,3.13-1.065,4.536-1.883
		l7.055,5.124l4.789-4.788l-5.124-7.055c0.817-1.406,1.457-2.927,1.883-4.536L205.351,363.67z M178.854,370.744
		c-5.777,0-10.46-4.683-10.46-10.46c0-5.777,4.683-10.46,10.46-10.46c5.777,0,10.46,4.683,10.46,10.46
		C189.315,366.061,184.631,370.744,178.854,370.744z"/>
	<path style="fill:none;stroke:#263238;stroke-miterlimit:10;" d="M134.628,93.947v-9.949l-12.645-2.005
		c-0.626-2.364-1.565-4.599-2.766-6.664l7.528-10.365l-7.035-7.035l-10.365,7.527c-2.065-1.201-4.3-2.14-6.664-2.766l-2.005-12.646
		h-9.949l-2.005,12.646c-2.364,0.626-4.599,1.565-6.664,2.766L71.69,57.928l-7.035,7.035l7.528,10.365
		c-1.201,2.065-2.14,4.3-2.766,6.664l-12.645,2.005v9.949l12.645,2.005c0.626,2.364,1.565,4.599,2.766,6.664l-7.528,10.365
		l7.035,7.035l10.365-7.527c2.065,1.201,4.3,2.14,6.664,2.766l2.005,12.646h9.949l2.005-12.646c2.364-0.626,4.599-1.565,6.664-2.766
		l10.365,7.527l7.035-7.035l-7.528-10.365c1.201-2.065,2.14-4.3,2.766-6.664L134.628,93.947z M95.699,104.34
		c-8.488,0-15.368-6.881-15.368-15.368s6.881-15.368,15.368-15.368c8.488,0,15.368,6.881,15.368,15.368
		S104.187,104.34,95.699,104.34z"/>
</g>
</svg>
